<?xml version="1.0" encoding="utf-8"?>
<!-- Generator: Adobe Illustrator 15.0.0, SVG Export Plug-In . SVG Version: 6.00 Build 0)  -->
<!DOCTYPE svg PUBLIC "-//W3C//DTD SVG 1.1//EN" "http://www.w3.org/Graphics/SVG/1.1/DTD/svg11.dtd">
<svg version="1.1" id="Ebene_1" xmlns="http://www.w3.org/2000/svg" xmlns:xlink="http://www.w3.org/1999/xlink" x="0px" y="0px"
	 width="80px" height="95px" viewBox="0 0 80 95" enable-background="new 0 0 80 95" xml:space="preserve">
<g id="Layer_1" display="none">
	<g display="inline">
		<g>
			<path fill="#424143" d="M62.299,4.826h-50.77v86.746h66.245V22.503L62.299,4.826z M72.926,23.795H60.334V9.414L72.926,23.795z
				 M73.273,87.076H16.027V9.323h39.807v18.97h17.439V87.076z"/>
		</g>
		<rect x="2" y="20.567" fill="#5E94CE" width="44.98" height="20.938"/>
		<rect x="23.847" y="51.197" fill="#424143" width="40.911" height="4.604"/>
		<rect x="23.847" y="60.995" fill="#424143" width="40.911" height="4.604"/>
		<rect x="23.847" y="70.794" fill="#424143" width="40.911" height="4.606"/>
		<g>
			<path fill="#FFFFFF" d="M8.995,26.248h4.162c3.194,0,4.985,1.82,4.985,5.145c0,3.309-1.792,5.144-4.985,5.144H8.995V26.248z
				 M12.882,34.657c2.065,0,2.99-1.199,2.99-3.265c0-2.067-0.954-3.266-2.99-3.266h-1.647v6.531H12.882z"/>
			<path fill="#FFFFFF" d="M29.387,31.406c0,3.207-2.038,5.375-5.058,5.375c-3.049,0-5.086-2.152-5.086-5.375
				c0-3.266,2.022-5.404,5.1-5.404C27.35,26.002,29.387,28.183,29.387,31.406z M21.526,31.362c0,2.211,1.069,3.541,2.817,3.555
				c1.706,0,2.76-1.359,2.76-3.555c0-2.167-1.069-3.511-2.789-3.511C22.609,27.851,21.526,29.224,21.526,31.362z"/>
			<path fill="#FFFFFF" d="M35.517,36.781c-2.992,0-4.971-2.152-4.971-5.405c0-2.991,1.907-5.375,5.057-5.375
				c2.47,0,4.278,1.56,4.451,3.684h-2.212c-0.231-1.126-1.069-1.792-2.282-1.792c-1.979,0-2.745,1.778-2.745,3.498
				c0,2.124,1.054,3.482,2.715,3.482c1.359,0,2.168-0.809,2.356-2.312h2.238C39.896,35.076,38.334,36.781,35.517,36.781z"/>
		</g>
	</g>
</g>
<g id="Layer_4" display="none">
	<g display="inline">
		<g>
			<path fill="#424143" d="M62.166,4.396h-50.77v86.747h66.243V22.073L62.166,4.396z M72.795,23.364H60.199V8.983L72.795,23.364z
				 M73.141,86.643H15.895V8.891h39.807v18.971h17.438V86.643L73.141,86.643z"/>
		</g>
		<rect x="1.865" y="20.136" fill="#56B64D" width="44.982" height="20.938"/>
		<rect x="23.715" y="50.764" fill="#424143" width="40.91" height="4.605"/>
		<rect x="23.715" y="60.564" fill="#424143" width="40.91" height="4.604"/>
		<rect x="23.715" y="70.363" fill="#424143" width="40.91" height="4.604"/>
		<g>
			<path fill="#FFFFFF" d="M16.615,30.647l3.611,5.375h-2.703l-2.252-3.569l-2.283,3.569h-2.574l3.629-5.375l-3.354-4.912h2.631
				l2.051,3.309l2.066-3.309h2.484L16.615,30.647z"/>
			<path fill="#FFFFFF" d="M28.438,36.022h-7.283V25.735h2.254v8.353h5.029V36.022z"/>
			<path fill="#FFFFFF" d="M35.201,28.797c-0.086-0.996-0.752-1.531-1.949-1.531c-1.041,0-1.662,0.434-1.662,1.171
				c0,0.896,1.098,0.968,3.15,1.545c1.836,0.521,3.006,1.229,3.006,2.949c0,2.428-2.141,3.322-4.234,3.322
				c-2.789,0-4.436-1.343-4.465-3.669h2.238c0.045,1.387,0.955,1.935,2.328,1.935c1.184,0,1.906-0.521,1.906-1.372
				c0-0.809-0.693-0.955-2.816-1.559c-1.678-0.479-3.281-0.897-3.281-2.992c0-1.864,1.561-3.078,3.959-3.078
				c2.168,0,3.916,0.981,3.959,3.279H35.201z"/>
		</g>
	</g>
</g>
<g>
	<g>
		<path fill="#424143" d="M62.107,4.386H11.337v86.746h66.244v-69.07L62.107,4.386z M72.734,23.354H60.143V8.973L72.734,23.354z
			 M73.082,86.633H15.836V8.881h39.807v18.971h17.439V86.633z"/>
	</g>
	<rect x="1.809" y="20.126" fill="#E5B451" width="44.98" height="20.936"/>
	<rect x="23.656" y="50.754" fill="#424143" width="40.911" height="4.605"/>
	<rect x="23.656" y="60.555" fill="#424143" width="40.911" height="4.604"/>
	<rect x="23.656" y="70.354" fill="#424143" width="40.911" height="4.605"/>
</g>
<g id="Layer_3" display="none">
	<g display="inline">
		<g>
			<path fill="#424143" d="M62.113,4.45H11.343v86.745h66.243V22.127L62.113,4.45z M72.742,23.419H60.146V9.038L72.742,23.419z
				 M73.088,86.7H15.841V8.947h39.808v18.97h17.438L73.088,86.7L73.088,86.7z"/>
		</g>
		<rect x="1.812" y="20.191" fill="#EE2E36" width="44.983" height="20.938"/>
		<rect x="23.662" y="50.82" fill="#424143" width="40.911" height="4.604"/>
		<rect x="23.662" y="60.619" fill="#424143" width="40.911" height="4.605"/>
		<rect x="23.662" y="70.418" fill="#424143" width="40.911" height="4.605"/>
		<g>
			<path fill="#FFFFFF" d="M15.291,26.001c2.225,0,3.771,1.041,3.771,3.309c0,2.24-1.592,3.28-3.658,3.28h-2.311v3.7h-2.24V26.001
				H15.291z M13.093,30.814h2.008c1.012,0,1.764-0.333,1.764-1.475c0-1.097-0.752-1.488-1.748-1.488h-2.023v2.963H13.093z"/>
			<path fill="#FFFFFF" d="M20.496,26.001h4.16c3.193,0,4.986,1.821,4.986,5.144c0,3.309-1.793,5.144-4.986,5.144h-4.16V26.001z
				 M24.38,34.412c2.066,0,2.992-1.2,2.992-3.266s-0.955-3.266-2.992-3.266h-1.646v6.532H24.38z"/>
			<path fill="#FFFFFF" d="M38.445,27.895h-5v2.384h4.348v1.792h-4.348v4.22h-2.254v-10.29h7.254V27.895z"/>
		</g>
	</g>
</g>
<circle fill="#2D4A60" cx="-325" cy="-5.5" r="39.667"/>
<path fill="#EAEFF0" d="M-306.309-10.602l-24.278-14.017c-2.818-1.627-6.421-0.661-8.048,2.157
	c-0.517,0.896-0.789,1.911-0.789,2.945V8.517c-0.012,3.247,2.61,5.889,5.857,5.9c1.047,0.005,2.076-0.271,2.98-0.798l24.278-14.017
	c2.817-1.627,3.782-5.23,2.156-8.048C-304.67-9.341-305.413-10.085-306.309-10.602L-306.309-10.602z"/>
<g>
	<path fill="#FFFFFF" d="M10.765,24.491l3.12,8.81l3.104-8.81h3.287v12.147h-2.511v-3.32l0.25-5.732l-3.279,9.052h-1.719
		l-3.27-9.044l0.25,5.724v3.32H7.495V24.491H10.765z"/>
	<path fill="#FFFFFF" d="M24.965,32.359v4.28h-2.503V24.491h4.739c0.912,0,1.715,0.167,2.407,0.5
		c0.692,0.334,1.225,0.808,1.598,1.423c0.373,0.614,0.559,1.314,0.559,2.098c0,1.19-0.408,2.129-1.223,2.815
		c-0.814,0.687-1.942,1.031-3.383,1.031H24.965z M24.965,30.332h2.236c0.662,0,1.167-0.156,1.515-0.467
		c0.347-0.312,0.521-0.756,0.521-1.335c0-0.595-0.175-1.076-0.525-1.443s-0.834-0.556-1.452-0.567h-2.294V30.332z"/>
	<path fill="#FFFFFF" d="M35.677,29.497h1.285c0.612,0,1.065-0.153,1.36-0.459c0.295-0.306,0.441-0.712,0.441-1.218
		c0-0.49-0.146-0.871-0.438-1.143s-0.694-0.409-1.206-0.409c-0.461,0-0.848,0.126-1.159,0.379s-0.467,0.583-0.467,0.989h-2.411
		c0-0.634,0.171-1.203,0.513-1.706c0.342-0.503,0.82-0.897,1.435-1.181c0.614-0.284,1.292-0.426,2.032-0.426
		c1.284,0,2.291,0.308,3.02,0.922c0.729,0.615,1.093,1.461,1.093,2.541c0,0.556-0.169,1.068-0.509,1.535
		c-0.339,0.467-0.784,0.826-1.335,1.076c0.685,0.245,1.194,0.612,1.531,1.102c0.337,0.489,0.505,1.068,0.505,1.735
		c0,1.079-0.394,1.944-1.181,2.595c-0.787,0.65-1.828,0.976-3.124,0.976c-1.213,0-2.204-0.32-2.975-0.959s-1.155-1.485-1.155-2.537
		h2.411c0,0.457,0.171,0.829,0.513,1.118c0.342,0.29,0.764,0.434,1.264,0.434c0.573,0,1.022-0.152,1.348-0.455
		c0.325-0.303,0.488-0.705,0.488-1.206c0-1.212-0.667-1.818-2.002-1.818h-1.277V29.497z"/>
</g>
</svg>
