<?xml version="1.0" encoding="utf-8"?>
<!-- Generator: Adobe Illustrator 16.0.3, SVG Export Plug-In . SVG Version: 6.00 Build 0)  -->
<!DOCTYPE svg PUBLIC "-//W3C//DTD SVG 1.1//EN" "http://www.w3.org/Graphics/SVG/1.1/DTD/svg11.dtd">
<svg version="1.1" id="Ebene_1" xmlns="http://www.w3.org/2000/svg" xmlns:xlink="http://www.w3.org/1999/xlink" x="0px" y="0px"
	 width="80px" height="95px" viewBox="0 0 80 95" enable-background="new 0 0 80 95" xml:space="preserve">
<g id="Layer_1" display="none">
	<g display="inline">
		<g>
			<path fill="#424143" d="M62.299,4.826h-50.77v86.746h66.245V22.503L62.299,4.826z M72.926,23.795H60.334V9.414L72.926,23.795z
				 M73.273,87.076H16.027V9.323h39.807v18.97h17.439V87.076z"/>
		</g>
		<rect x="2" y="20.567" fill="#5E94CE" width="44.98" height="20.938"/>
		<rect x="23.847" y="51.197" fill="#424143" width="40.911" height="4.604"/>
		<rect x="23.847" y="60.995" fill="#424143" width="40.911" height="4.604"/>
		<rect x="23.847" y="70.794" fill="#424143" width="40.911" height="4.606"/>
		<g>
			<path fill="#FFFFFF" d="M8.995,26.248h4.162c3.194,0,4.985,1.82,4.985,5.145c0,3.309-1.792,5.144-4.985,5.144H8.995V26.248z
				 M12.882,34.657c2.065,0,2.99-1.199,2.99-3.265c0-2.067-0.954-3.266-2.99-3.266h-1.647v6.531H12.882z"/>
			<path fill="#FFFFFF" d="M29.387,31.406c0,3.207-2.038,5.375-5.058,5.375c-3.049,0-5.086-2.152-5.086-5.375
				c0-3.266,2.022-5.404,5.1-5.404C27.35,26.002,29.387,28.183,29.387,31.406z M21.526,31.362c0,2.211,1.069,3.541,2.817,3.555
				c1.706,0,2.76-1.359,2.76-3.555c0-2.167-1.069-3.511-2.789-3.511C22.609,27.851,21.526,29.224,21.526,31.362z"/>
			<path fill="#FFFFFF" d="M35.517,36.781c-2.992,0-4.971-2.152-4.971-5.405c0-2.991,1.907-5.375,5.057-5.375
				c2.47,0,4.278,1.56,4.451,3.684h-2.212c-0.231-1.126-1.069-1.792-2.282-1.792c-1.979,0-2.745,1.778-2.745,3.498
				c0,2.124,1.054,3.482,2.715,3.482c1.359,0,2.168-0.809,2.356-2.312h2.238C39.896,35.076,38.334,36.781,35.517,36.781z"/>
		</g>
	</g>
</g>
<g id="Layer_4" display="none">
	<g display="inline">
		<g>
			<path fill="#424143" d="M62.166,4.396h-50.77v86.747h66.243v-69.07L62.166,4.396z M72.795,23.364H60.199V8.983L72.795,23.364z
				 M73.141,86.643H15.895V8.891h39.807v18.971h17.438V86.643L73.141,86.643z"/>
		</g>
		<rect x="1.865" y="20.136" fill="#56B64D" width="44.983" height="20.938"/>
		<rect x="23.715" y="50.764" fill="#424143" width="40.91" height="4.605"/>
		<rect x="23.715" y="60.564" fill="#424143" width="40.91" height="4.604"/>
		<rect x="23.715" y="70.363" fill="#424143" width="40.91" height="4.604"/>
		<g>
			<path fill="#FFFFFF" d="M16.615,30.647l3.611,5.375h-2.703l-2.252-3.569l-2.283,3.569h-2.574l3.629-5.375l-3.354-4.912h2.631
				l2.051,3.309l2.066-3.309h2.484L16.615,30.647z"/>
			<path fill="#FFFFFF" d="M28.438,36.022h-7.283V25.735h2.254v8.353h5.029V36.022z"/>
			<path fill="#FFFFFF" d="M35.201,28.797c-0.086-0.996-0.752-1.531-1.949-1.531c-1.041,0-1.662,0.434-1.662,1.171
				c0,0.896,1.098,0.968,3.15,1.545c1.836,0.521,3.006,1.229,3.006,2.949c0,2.428-2.141,3.322-4.234,3.322
				c-2.789,0-4.436-1.343-4.465-3.669h2.238c0.045,1.387,0.955,1.935,2.328,1.935c1.184,0,1.906-0.521,1.906-1.372
				c0-0.809-0.693-0.955-2.816-1.559c-1.678-0.479-3.281-0.897-3.281-2.992c0-1.864,1.561-3.078,3.959-3.078
				c2.168,0,3.916,0.981,3.959,3.279H35.201z"/>
		</g>
	</g>
</g>
<g id="Layer_2" display="none">
	<g display="inline">
		<g>
			<path fill="#424143" d="M62.107,4.386H11.337v86.746h66.244v-69.07L62.107,4.386z M72.734,23.354H60.143V8.973L72.734,23.354z
				 M73.082,86.633H15.836V8.881h39.807v18.971h17.439V86.633z"/>
		</g>
		<rect x="1.809" y="20.126" fill="#E44725" width="44.98" height="20.936"/>
		<rect x="23.656" y="50.754" fill="#424143" width="40.911" height="4.605"/>
		<rect x="23.656" y="60.555" fill="#424143" width="40.911" height="4.604"/>
		<rect x="23.656" y="70.354" fill="#424143" width="40.911" height="4.605"/>
		<g>
			<path fill="#FFFFFF" d="M15.25,26.28c2.226,0,3.771,1.042,3.771,3.311c0,2.238-1.589,3.28-3.656,3.28h-2.312v3.697h-2.239V26.28
				H15.25z M13.054,31.094h2.008c1.012,0,1.764-0.333,1.764-1.474c0-1.099-0.751-1.491-1.749-1.491h-2.023V31.094L13.054,31.094z"/>
			<path fill="#FFFFFF" d="M24.891,26.28c2.225,0,3.772,1.042,3.772,3.311c0,2.238-1.589,3.28-3.656,3.28h-2.312v3.697h-2.24V26.28
				H24.891z M22.695,31.094h2.008c1.011,0,1.762-0.333,1.762-1.474c0-1.099-0.751-1.491-1.748-1.491h-2.022V31.094z"/>
			<path fill="#FFFFFF" d="M37.725,28.202h-3.092v8.366h-2.269v-8.366h-3.092V26.28h8.453V28.202z"/>
		</g>
	</g>
</g>
<g>
	<path fill="#FEC458" d="M74.859,10.612H26.264c1.745,0,3.305,1.084,3.913,2.72l2.481,7.685c0.825,2.22,2.942,3.692,5.311,3.692
		h36.513c2.306,0,4.175,1.869,4.175,4.174V14.408C78.656,12.32,76.948,10.612,74.859,10.612z"/>
	<g>
		<g>
			<path fill="#F9AB49" d="M47.39,21.018l-2.481-7.685c-0.607-1.635-2.168-2.72-3.912-2.72H26.264c1.745,0,3.305,1.084,3.913,2.72
				l2.481,7.685c0.825,2.22,2.942,3.693,5.311,3.693H52.7C50.332,24.71,48.215,23.238,47.39,21.018z"/>
		</g>
	</g>
	<path fill="#FFE181" d="M74.481,23.708H38.97c-2.367,0-4.485-1.473-5.31-3.692l-2.482-6.684c-0.607-1.636-2.168-2.72-3.912-2.72
		H6.174C3.869,10.612,2,12.481,2,14.786v52.978c0,2.305,1.869,4.173,4.174,4.173h68.308c2.306,0,4.175-1.868,4.175-4.173V27.882
		C78.656,25.577,76.787,23.708,74.481,23.708z"/>
	<path fill="#FEC458" d="M15.357,67.764V14.786c0-2.305,1.869-4.173,4.174-4.173H6.174C3.869,10.612,2,12.481,2,14.786v52.978
		c0,2.305,1.869,4.173,4.174,4.173h13.357C17.226,71.937,15.357,70.068,15.357,67.764z"/>
	<path fill="#9DC6FB" d="M63.162,47.75H17.493c-2.731,0-4.967,2.235-4.967,4.966v28.589c0,2.731,2.235,4.967,4.967,4.967h45.669
		c2.732,0,4.967-2.235,4.967-4.967V52.716C68.129,49.984,65.895,47.75,63.162,47.75L63.162,47.75z"/>
	<path fill="#80B4FB" d="M23.641,81.305V52.716c0-2.731,2.235-4.966,4.967-4.966H17.493c-2.731,0-4.967,2.235-4.967,4.966v28.589
		c0,2.731,2.235,4.967,4.967,4.967h11.114C25.875,86.271,23.641,84.036,23.641,81.305z"/>
	<g>
		<path fill="#DFEBFA" d="M24.671,74.007h8.069c0.89,0,1.394,1.067,1.394,2.017s-0.504,2.018-1.394,2.018H20.103
			c-0.949,0-1.335-0.505-1.335-1.217c0-0.475,0.178-1.068,0.504-1.632l8.365-14.802h-6.882c-0.89,0-1.394-0.949-1.394-2.018
			c0-0.979,0.415-2.018,1.394-2.018h11.451c0.89,0,1.334,0.505,1.334,1.217c0,0.475-0.177,1.038-0.504,1.631L24.671,74.007z"/>
		<path fill="#DFEBFA" d="M37.821,57.75c0-0.979,1.157-1.395,2.313-1.395s2.314,0.416,2.314,1.395v18.867
			c0,0.949-1.157,1.423-2.314,1.423s-2.313-0.474-2.313-1.423V57.75z"/>
		<path fill="#DFEBFA" d="M54.967,56.355h-6.141c-1.038,0-1.721,0.653-1.721,1.395v18.867c0,0.949,1.157,1.423,2.313,1.423
			c1.157,0,2.314-0.474,2.314-1.423v-5.681h2.937c4.095,0,7.298-2.626,7.298-7.609v-0.148
			C61.968,58.195,58.882,56.355,54.967,56.355L54.967,56.355z M57.34,63.683c0,2.018-1.009,2.967-2.67,2.967h-2.937v-6.259h2.937
			c1.661,0,2.67,0.949,2.67,2.966V63.683L57.34,63.683z"/>
	</g>
</g>
</svg>
