<svg id="Capa_1" enable-background="new 0 0 512 512" height="512" viewBox="0 0 512 512" width="512" xmlns="http://www.w3.org/2000/svg"><g><path d="m256 512c114.947 0 208.13-32.614 208.13-72.846v-137.365l-208.13 44.748z" fill="#ffc250"/><path d="m440.195 306.935v132.22c0 37.398-80.524 68.208-184.195 72.363v.482c114.947 0 208.13-32.614 208.13-72.846v-137.365z" fill="#ebb044"/><path d="m256 374.634c114.947 0 208.13-32.614 208.13-72.846h-208.13z" fill="#ffe07d"/><path d="m440.195 301.789c-10.406 50.991-184.195 72.845-184.195 72.845 114.947 0 208.13-32.614 208.13-72.846h-23.935z" fill="#ffd064"/><path d="m256 214.461h208.13v87.328h-208.13z" fill="#df73c1"/><path d="m440.195 214.461h23.935v87.328h-23.935z" fill="#dd4fb1"/><path d="m256 512c-114.947 0-208.13-32.614-208.13-72.846v-366.308h208.13z" fill="#80b4fb"/><path d="m235.187 72.846v438.793c6.846.237 13.788.361 20.813.361v-439.154z" fill="#61a2f9"/><path d="m324.77 145.691-68.77 68.77h208.13c0-31.796-58.21-58.829-139.36-68.77z" fill="#eaaadd"/><path d="m324.77 145.691-.011.011c46.828 6.267 115.436 36.98 115.436 68.759h23.935c0-31.796-58.21-58.829-139.36-68.77z" fill="#e490d0"/><path d="m321.777 7.067v.01l-16.782 16.771-44.771 44.772c-2.704 2.705-4.224 6.373-4.224 10.198v56.478c0 5.743-4.697 10.401-10.44 10.302-110.097-1.904-197.688-33.751-197.688-72.754 0-40.228 93.18-72.844 208.128-72.844 19.342.013 38.649.907 57.876 2.864 3.173.381 5.944 1.937 7.901 4.203z" fill="#9dc6fb"/><path d="m324.765 15.144v130.545l-19.769 19.769v.01l-48.996 48.995v-135.645c0-3.825 1.52-7.494 4.224-10.198l44.771-44.771 16.782-16.771c1.865 2.173 2.988 5.006 2.988 8.066z" fill="#5490f9"/><path d="m324.765 15.144v130.545l-19.769 19.779v-141.558l16.782-16.833c1.864 2.174 2.987 5.007 2.987 8.067z" fill="#4a81f6"/><path d="m304.995 23.849v.001l16.782-16.782v-.001c-1.971-2.275-4.759-3.838-7.958-4.207-4.211-.424-8.474-.806-12.788-1.139l-59.825 59.825c-3.903 3.903-6.096 9.197-6.096 14.717v69.061c3.479.121 6.964.211 10.454.271 5.741.099 10.436-4.559 10.436-10.301v-56.476c0-3.825 1.52-7.494 4.224-10.198z" fill="#80b4fb"/></g></svg>