<svg height="480pt" viewBox="0 0 480 480" width="480pt" xmlns="http://www.w3.org/2000/svg"><path d="m72 8h336v464h-336zm0 0" fill="#fd882f"/><path d="m48 0h384v16h-384zm0 0" fill="#fd882f"/><path d="m48 32h384v16h-384zm0 0" fill="#fd882f"/><path d="m48 176h384v16h-384zm0 0" fill="#fd882f"/><path d="m48 320h384v16h-384zm0 0" fill="#fd882f"/><path d="m56 472h-32l-16-56h64zm0 0" fill="#dee1e3"/><path d="m72 312c.003906-5.703125-1.546875-11.296875-4.488281-16.183594-2.921875-4.753906-2.945313-10.742187-.0625-15.519531 5.238281-8.726563 5.996093-19.425781 2.046875-28.800781-3.953125-9.378906-12.144532-16.304688-22.046875-18.648438-9.53125-2.261718-19.574219-.039062-27.261719 6.03125-7.6875 6.070313-12.179688 15.324219-12.1875 25.121094-.003906 5.699219 1.546875 11.289062 4.480469 16.175781 2.917969 4.808594 2.917969 10.839844 0 15.648438-5.980469 9.957031-5.980469 22.402343 0 32.359375 2.917969 4.753906 2.945312 10.742187.0625 15.519531-5.238281 8.726563-5.996094 19.425781-2.046875 28.800781 3.953125 9.378906 12.144531 16.304688 22.046875 18.648438 9.535156 2.265625 19.578125.042968 27.269531-6.027344 7.6875-6.070312 12.179688-15.328125 12.1875-25.125.003906-5.699219-1.546875-11.289062-4.480469-16.175781-2.917969-4.808594-2.917969-10.839844 0-15.648438 2.933594-4.886719 4.484375-10.476562 4.480469-16.175781zm0 0" fill="#88b337"/><path d="m32 264h16v152h-16zm0 0" fill="#a3603e"/><path d="m456 472h-32l-16-56h64zm0 0" fill="#dee1e3"/><path d="m472 312c.003906-5.703125-1.546875-11.296875-4.488281-16.183594-2.921875-4.753906-2.945313-10.742187-.0625-15.519531 5.238281-8.726563 5.996093-19.425781 2.046875-28.800781-3.953125-9.378906-12.144532-16.304688-22.046875-18.648438-9.53125-2.261718-19.574219-.039062-27.261719 6.03125-7.6875 6.070313-12.179688 15.324219-12.1875 25.121094-.003906 5.699219 1.546875 11.289062 4.480469 16.175781 2.917969 4.808594 2.917969 10.839844 0 15.648438-5.980469 9.957031-5.980469 22.402343 0 32.359375 2.917969 4.753906 2.945312 10.742187.0625 15.519531-5.238281 8.726563-5.996094 19.425781-2.046875 28.800781 3.953125 9.378906 12.144531 16.304688 22.046875 18.648438 9.535156 2.265625 19.578125.042968 27.269531-6.027344 7.6875-6.070312 12.179688-15.328125 12.1875-25.125.003906-5.699219-1.546875-11.289062-4.480469-16.175781-2.917969-4.808594-2.917969-10.839844 0-15.648438 2.933594-4.886719 4.484375-10.476562 4.480469-16.175781zm0 0" fill="#88b337"/><path d="m432 264h16v152h-16zm0 0" fill="#a3603e"/><g fill="#ef701b"><path d="m72 96h24v16h-24zm0 0"/><path d="m192 120h24v16h-24zm0 0"/><path d="m384 144h24v16h-24zm0 0"/><path d="m280 80h16v16h-16zm0 0"/><path d="m288 224h24v16h-24zm0 0"/><path d="m88 280h16v16h-16zm0 0"/><path d="m272 304h16v16h-16zm0 0"/><path d="m384 368h16v16h-16zm0 0"/><path d="m192 416h16v16h-16zm0 0"/><path d="m104 144h24v16h-24zm0 0"/></g><path d="m120 72h48v80h-48zm0 0" fill="#a12a2a"/><path d="m120 72h48v40h-48zm0 0" fill="#dee1e3"/><path d="m120 72h48v16h-48zm0 0" fill="#c0c3c4"/><path d="m216 72h48v80h-48zm0 0" fill="#a12a2a"/><path d="m216 72h48v40h-48zm0 0" fill="#dee1e3"/><path d="m216 72h48v16h-48zm0 0" fill="#c0c3c4"/><path d="m312 72h48v80h-48zm0 0" fill="#a12a2a"/><path d="m312 72h48v40h-48zm0 0" fill="#dee1e3"/><path d="m312 72h48v16h-48zm0 0" fill="#c0c3c4"/><path d="m120 216h48v80h-48zm0 0" fill="#a12a2a"/><path d="m120 216h48v40h-48zm0 0" fill="#dee1e3"/><path d="m120 216h48v16h-48zm0 0" fill="#c0c3c4"/><path d="m216 216h48v80h-48zm0 0" fill="#a12a2a"/><path d="m216 216h48v40h-48zm0 0" fill="#dee1e3"/><path d="m216 216h48v16h-48zm0 0" fill="#c0c3c4"/><path d="m312 216h48v80h-48zm0 0" fill="#a12a2a"/><path d="m312 216h48v40h-48zm0 0" fill="#dee1e3"/><path d="m312 216h48v16h-48zm0 0" fill="#c0c3c4"/><path d="m120 360h48v80h-48zm0 0" fill="#a12a2a"/><path d="m120 360h48v40h-48zm0 0" fill="#dee1e3"/><path d="m120 360h48v16h-48zm0 0" fill="#c0c3c4"/><path d="m216 360h48v80h-48zm0 0" fill="#a12a2a"/><path d="m216 360h48v40h-48zm0 0" fill="#dee1e3"/><path d="m216 360h48v16h-48zm0 0" fill="#c0c3c4"/><path d="m312 360h48v80h-48zm0 0" fill="#a12a2a"/><path d="m312 360h48v16h-48zm0 0" fill="#912626"/><path d="m296 440h80v32h-80zm0 0" fill="#ff9747"/><path d="m0 464h480v16h-480zm0 0" fill="#c0c2c4"/><path d="m72 16h336v16h-336zm0 0" fill="#ef701b"/><path d="m72 48h336v16h-336zm0 0" fill="#ef701b"/><path d="m72 192h336v16h-336zm0 0" fill="#ef701b"/><path d="m72 336h336v16h-336zm0 0" fill="#ef701b"/></svg>