<?xml version="1.0" encoding="utf-8"?>
<!-- Generator: Adobe Illustrator 15.0.0, SVG Export Plug-In . SVG Version: 6.00 Build 0)  -->
<!DOCTYPE svg PUBLIC "-//W3C//DTD SVG 1.1//EN" "http://www.w3.org/Graphics/SVG/1.1/DTD/svg11.dtd">
<svg version="1.1" id="Layer_1" xmlns="http://www.w3.org/2000/svg" xmlns:xlink="http://www.w3.org/1999/xlink" x="0px" y="0px"
	 width="200px" height="220px" viewBox="0 0 200 220" enable-background="new 0 0 200 220" xml:space="preserve">
<path fill="#E2E5E7" d="M39.85,1.137c-7.488,0-13.616,6.128-13.616,13.617v190.629c0,7.49,6.127,13.617,13.616,13.617h136.164
	c7.489,0,13.616-6.127,13.616-13.617V55.604L135.165,1.137H39.85z"/>
<g>
	<path d="M145.326,41.395c-0.336,0-0.604,0.141-0.809,0.42c-0.203,0.282-0.319,0.688-0.352,1.218h2.048
		c0.009-0.041,0.015-0.094,0.019-0.17c0.006-0.074,0.006-0.154,0.006-0.239c0-0.391-0.078-0.692-0.232-0.907
		C145.848,41.503,145.622,41.395,145.326,41.395 M147.104,42.66c0,0.241-0.006,0.45-0.021,0.627
		c-0.019,0.174-0.033,0.33-0.049,0.461h-2.867c0.033,0.664,0.174,1.152,0.429,1.463c0.254,0.313,0.616,0.467,1.094,0.467
		c0.162,0,0.311-0.017,0.444-0.057c0.134-0.039,0.246-0.085,0.347-0.141c0.097-0.054,0.18-0.108,0.246-0.163
		c0.064-0.054,0.112-0.096,0.145-0.13l0.352,0.668c-0.039,0.039-0.098,0.095-0.177,0.171c-0.077,0.074-0.183,0.148-0.315,0.222
		c-0.133,0.072-0.297,0.139-0.492,0.192c-0.194,0.056-0.426,0.082-0.688,0.082c-0.352,0-0.671-0.057-0.956-0.176
		c-0.285-0.117-0.527-0.296-0.726-0.542c-0.199-0.246-0.354-0.559-0.462-0.937c-0.109-0.377-0.164-0.833-0.164-1.363
		c0-0.5,0.058-0.931,0.171-1.294c0.11-0.362,0.267-0.661,0.46-0.894c0.195-0.235,0.422-0.409,0.684-0.522
		c0.256-0.113,0.531-0.171,0.827-0.171c0.539,0,0.96,0.171,1.267,0.511C146.953,41.471,147.104,41.98,147.104,42.66 M141.768,45.07
		c0,0.235,0.033,0.398,0.1,0.493c0.068,0.094,0.183,0.141,0.346,0.141c0.085,0,0.157-0.007,0.219-0.026
		c0.059-0.013,0.101-0.029,0.133-0.044l0.082,0.702c-0.047,0.024-0.133,0.055-0.256,0.094c-0.127,0.039-0.293,0.059-0.505,0.059
		c-0.319,0-0.577-0.098-0.771-0.294c-0.196-0.196-0.293-0.542-0.293-1.041v-7.048L141.77,38L141.768,45.07L141.768,45.07z
		 M139.1,45.07c0,0.235,0.03,0.398,0.1,0.493c0.066,0.094,0.182,0.141,0.345,0.141c0.086,0,0.158-0.007,0.217-0.026
		c0.06-0.013,0.104-0.029,0.134-0.044l0.084,0.702c-0.047,0.024-0.135,0.055-0.258,0.094c-0.125,0.039-0.295,0.059-0.505,0.059
		c-0.319,0-0.575-0.098-0.771-0.294c-0.194-0.196-0.295-0.542-0.295-1.041v-7.048L139.1,38V45.07L139.1,45.07z M135.982,43.572
		c0-0.75-0.107-1.294-0.328-1.633c-0.217-0.339-0.521-0.511-0.913-0.511c-0.39,0-0.69,0.171-0.907,0.511
		c-0.214,0.338-0.32,0.883-0.32,1.633s0.109,1.289,0.328,1.615c0.219,0.33,0.523,0.491,0.912,0.491c0.391,0,0.691-0.161,0.908-0.491
		C135.876,44.859,135.982,44.323,135.982,43.572 M132.531,43.572c0-0.515,0.06-0.959,0.181-1.335c0.12-0.375,0.285-0.681,0.492-0.92
		c0.206-0.237,0.444-0.413,0.715-0.526c0.269-0.112,0.556-0.17,0.858-0.17c0.313,0,0.603,0.058,0.867,0.17
		c0.266,0.113,0.494,0.29,0.69,0.526c0.192,0.239,0.351,0.544,0.463,0.92c0.113,0.376,0.169,0.82,0.169,1.335
		c0,0.522-0.059,0.971-0.178,1.346c-0.115,0.374-0.278,0.682-0.484,0.919c-0.207,0.237-0.445,0.413-0.72,0.52
		c-0.272,0.109-0.563,0.165-0.867,0.165c-0.312,0-0.601-0.055-0.864-0.165c-0.267-0.107-0.494-0.283-0.691-0.52
		c-0.195-0.237-0.35-0.542-0.463-0.913C132.587,44.554,132.531,44.102,132.531,43.572 M131.992,41.595
		c-0.023-0.016-0.073-0.035-0.151-0.059c-0.077-0.022-0.185-0.035-0.315-0.035c-0.297,0-0.53,0.08-0.696,0.239
		c-0.169,0.161-0.288,0.335-0.354,0.522v4.12h-0.949v-5.62h0.865v0.761h0.022c0.039-0.109,0.091-0.216,0.151-0.322
		c0.062-0.106,0.141-0.198,0.234-0.28s0.205-0.146,0.335-0.194c0.128-0.046,0.281-0.07,0.459-0.07c0.136,0,0.242,0.013,0.323,0.037
		c0.083,0.024,0.146,0.042,0.191,0.058L131.992,41.595z M128.443,41.536h-1.229v3.115c0,0.396,0.051,0.668,0.151,0.813
		c0.102,0.144,0.274,0.214,0.518,0.214c0.14,0,0.259-0.017,0.362-0.057c0.1-0.039,0.176-0.074,0.221-0.104l0.129,0.759
		c-0.037,0.032-0.132,0.08-0.281,0.146c-0.146,0.066-0.347,0.1-0.597,0.1c-0.483,0-0.846-0.135-1.086-0.405
		c-0.243-0.267-0.364-0.715-0.364-1.339v-3.244h-0.68v-0.632l0.68-0.141l0.104-1.568h0.844v1.568h1.346L128.443,41.536z
		 M123.68,46.383v-3.618c0-0.476-0.08-0.817-0.24-1.026c-0.158-0.207-0.401-0.309-0.73-0.309c-0.282,0-0.516,0.07-0.703,0.211
		c-0.186,0.141-0.334,0.276-0.443,0.409v4.333h-0.947v-5.62h0.865v0.631h0.023c0.021-0.046,0.073-0.115,0.15-0.206
		c0.076-0.088,0.18-0.176,0.304-0.258c0.127-0.081,0.272-0.153,0.446-0.214c0.172-0.065,0.367-0.096,0.584-0.096
		c0.25,0,0.479,0.037,0.681,0.111c0.203,0.076,0.374,0.195,0.515,0.357c0.14,0.165,0.25,0.376,0.328,0.637
		c0.079,0.263,0.117,0.585,0.117,0.966v3.688h-0.947v0.004H123.68z M118.438,43.572c0-0.75-0.111-1.294-0.33-1.633
		c-0.217-0.339-0.521-0.511-0.912-0.511s-0.692,0.171-0.908,0.511c-0.214,0.338-0.321,0.883-0.321,1.633s0.109,1.289,0.328,1.615
		c0.22,0.33,0.522,0.491,0.914,0.491c0.39,0,0.69-0.161,0.907-0.491C118.328,44.859,118.438,44.323,118.438,43.572 M114.98,43.572
		c0-0.515,0.062-0.959,0.183-1.335c0.123-0.375,0.285-0.681,0.491-0.92c0.205-0.237,0.445-0.413,0.716-0.526
		c0.269-0.112,0.556-0.17,0.86-0.17c0.312,0,0.601,0.058,0.865,0.17c0.264,0.113,0.495,0.29,0.69,0.526
		c0.192,0.239,0.349,0.544,0.463,0.92c0.112,0.376,0.169,0.82,0.169,1.335c0,0.522-0.059,0.971-0.177,1.346
		c-0.115,0.374-0.278,0.682-0.485,0.919s-0.449,0.413-0.721,0.52c-0.271,0.109-0.563,0.165-0.866,0.165
		c-0.313,0-0.603-0.055-0.868-0.165c-0.263-0.107-0.492-0.283-0.689-0.52c-0.193-0.237-0.348-0.542-0.461-0.913
		C115.038,44.554,114.98,44.102,114.98,43.572 M112.688,43.339l1.933,3.044h-1.136l-1.58-2.624h-0.387v2.624h-0.947v-8.278
		l0.947-0.106v4.954h0.398l1.51-2.189h1.124L112.688,43.339z M109.634,41.595c-0.024-0.016-0.075-0.035-0.153-0.059
		c-0.076-0.022-0.183-0.035-0.314-0.035c-0.298,0-0.529,0.08-0.695,0.239c-0.169,0.161-0.287,0.335-0.357,0.522v4.12h-0.949v-5.62
		h0.867v0.761h0.021c0.038-0.109,0.092-0.216,0.152-0.322s0.141-0.198,0.232-0.28c0.097-0.082,0.205-0.146,0.336-0.194
		c0.129-0.046,0.283-0.07,0.463-0.07c0.132,0,0.24,0.013,0.32,0.037c0.082,0.024,0.146,0.042,0.193,0.058L109.634,41.595z
		 M104.796,46.383v-3.618c0-0.476-0.077-0.817-0.237-1.026c-0.16-0.207-0.404-0.309-0.731-0.309c-0.281,0-0.515,0.07-0.702,0.211
		c-0.188,0.141-0.336,0.276-0.445,0.409v4.333h-0.947v-8.278l0.947-0.106v3.337h0.023c0.029-0.044,0.08-0.107,0.146-0.186
		c0.065-0.079,0.158-0.157,0.274-0.235c0.118-0.08,0.259-0.146,0.426-0.206c0.171-0.058,0.366-0.087,0.593-0.087
		c0.491,0,0.883,0.16,1.172,0.48c0.287,0.32,0.434,0.852,0.434,1.592v3.688L104.796,46.383L104.796,46.383z M100.279,46.383h-0.867
		V45.75h-0.021c-0.023,0.046-0.076,0.115-0.154,0.206c-0.076,0.089-0.176,0.174-0.299,0.257c-0.119,0.082-0.266,0.154-0.437,0.215
		c-0.173,0.063-0.364,0.094-0.574,0.094c-0.25,0-0.474-0.037-0.675-0.111c-0.197-0.076-0.368-0.194-0.507-0.357
		c-0.142-0.163-0.249-0.376-0.323-0.639c-0.074-0.261-0.111-0.582-0.111-0.967v-3.687h0.948v3.616c0,0.468,0.076,0.804,0.229,1.001
		c0.152,0.201,0.388,0.298,0.707,0.298c0.275,0,0.505-0.068,0.689-0.204c0.188-0.137,0.336-0.272,0.446-0.404v-4.309h0.948V46.383
		L100.279,46.383z M95.408,41.536h-1.147v4.848h-0.948v-4.848h-0.679v-0.631l0.679-0.129V39.65c0-0.303,0.042-0.565,0.13-0.785
		c0.087-0.219,0.199-0.396,0.339-0.537c0.139-0.141,0.302-0.242,0.492-0.305c0.186-0.062,0.386-0.094,0.597-0.094
		c0.203,0,0.375,0.028,0.516,0.082c0.139,0.055,0.234,0.098,0.279,0.128l-0.197,0.785c-0.048-0.031-0.115-0.065-0.199-0.1
		c-0.088-0.034-0.192-0.052-0.316-0.052c-0.227,0-0.398,0.07-0.516,0.21c-0.116,0.14-0.176,0.398-0.176,0.772v1.007h1.264
		L95.408,41.536z M91.371,41.899c-0.063-0.071-0.177-0.167-0.341-0.288c-0.164-0.12-0.376-0.181-0.643-0.181
		c-0.25,0-0.442,0.057-0.573,0.176c-0.133,0.117-0.198,0.257-0.198,0.422c0,0.209,0.059,0.383,0.179,0.52
		c0.122,0.137,0.306,0.282,0.558,0.439l0.352,0.211c0.381,0.226,0.683,0.471,0.901,0.731c0.218,0.261,0.327,0.6,0.327,1.015
		c0,0.442-0.153,0.818-0.46,1.122c-0.31,0.306-0.752,0.455-1.329,0.455c-0.227,0-0.426-0.022-0.597-0.068
		c-0.174-0.048-0.323-0.102-0.452-0.165c-0.13-0.063-0.237-0.131-0.323-0.206c-0.085-0.074-0.156-0.142-0.209-0.203l0.455-0.75
		c0.049,0.048,0.104,0.102,0.17,0.163c0.066,0.063,0.146,0.124,0.241,0.183c0.094,0.058,0.2,0.106,0.315,0.145
		c0.117,0.041,0.254,0.057,0.412,0.057c0.28,0,0.494-0.059,0.644-0.185c0.147-0.125,0.221-0.277,0.221-0.458
		c0-0.133-0.018-0.248-0.052-0.346c-0.035-0.096-0.089-0.183-0.159-0.261c-0.071-0.077-0.155-0.153-0.257-0.224
		c-0.1-0.07-0.217-0.148-0.352-0.233l-0.348-0.223c-0.352-0.228-0.628-0.464-0.826-0.714c-0.199-0.25-0.299-0.57-0.299-0.961
		c0-0.211,0.042-0.402,0.123-0.58c0.082-0.176,0.197-0.326,0.345-0.456c0.148-0.127,0.323-0.229,0.521-0.303
		c0.2-0.075,0.414-0.112,0.639-0.112c0.218,0,0.406,0.022,0.562,0.065c0.157,0.043,0.292,0.096,0.403,0.163
		c0.113,0.066,0.208,0.133,0.281,0.198c0.074,0.069,0.136,0.123,0.182,0.171L91.371,41.899z M87.494,46.383h-0.866V45.75h-0.026
		c-0.022,0.046-0.072,0.115-0.151,0.206c-0.078,0.089-0.177,0.174-0.299,0.257c-0.121,0.082-0.268,0.154-0.438,0.215
		c-0.173,0.063-0.364,0.094-0.575,0.094c-0.25,0-0.473-0.037-0.673-0.111c-0.197-0.076-0.368-0.194-0.508-0.357
		c-0.14-0.163-0.248-0.376-0.322-0.639c-0.074-0.261-0.11-0.582-0.11-0.967v-3.687h0.948v3.616c0,0.468,0.075,0.804,0.228,1.001
		c0.151,0.201,0.389,0.298,0.708,0.298c0.273,0,0.503-0.068,0.691-0.204c0.189-0.137,0.336-0.272,0.444-0.404v-4.309h0.948
		L87.494,46.383L87.494,46.383z M80.694,43.022l-0.632-2.212c-0.086-0.298-0.16-0.58-0.224-0.85
		c-0.061-0.269-0.097-0.495-0.104-0.673H79.71c-0.008,0.178-0.045,0.4-0.112,0.66c-0.066,0.263-0.142,0.541-0.229,0.836
		l-0.667,2.237h1.992V43.022z M82.765,46.383h-1.124l-0.727-2.587h-2.446l-0.737,2.587h-1.029l2.633-8.079h0.796L82.765,46.383z
		 M150.678,33.875c0.146,0,0.28-0.019,0.396-0.059c0.117-0.039,0.218-0.088,0.303-0.146c0.087-0.059,0.159-0.119,0.218-0.182
		c0.06-0.063,0.104-0.118,0.136-0.165v-3.465c-0.086-0.054-0.187-0.101-0.297-0.141c-0.115-0.039-0.258-0.058-0.429-0.058
		c-0.221,0-0.423,0.037-0.616,0.112c-0.188,0.073-0.354,0.197-0.496,0.368c-0.14,0.172-0.252,0.395-0.332,0.667
		c-0.082,0.276-0.123,0.609-0.123,1.008c0,0.39,0.031,0.716,0.1,0.977c0.064,0.261,0.158,0.473,0.275,0.634
		c0.117,0.159,0.248,0.273,0.396,0.344C150.355,33.839,150.512,33.875,150.678,33.875 M148.452,31.85
		c0-0.57,0.073-1.046,0.222-1.429c0.146-0.382,0.338-0.69,0.572-0.924c0.232-0.234,0.5-0.399,0.797-0.498
		c0.297-0.096,0.593-0.145,0.891-0.145c0.178,0,0.334,0.013,0.467,0.041c0.134,0.026,0.242,0.06,0.328,0.099v-2.693l0.949-0.104
		v8.381h-0.867v-0.597h-0.021c-0.023,0.046-0.066,0.111-0.13,0.193c-0.062,0.083-0.146,0.165-0.257,0.246
		c-0.109,0.081-0.245,0.152-0.411,0.211c-0.163,0.059-0.354,0.087-0.572,0.087c-0.267,0-0.519-0.052-0.755-0.158
		c-0.239-0.104-0.448-0.273-0.626-0.502c-0.181-0.23-0.322-0.527-0.429-0.89C148.506,32.802,148.452,32.365,148.452,31.85
		 M146.344,34.577v-3.618c0-0.475-0.078-0.817-0.238-1.024c-0.16-0.206-0.402-0.311-0.731-0.311c-0.281,0-0.515,0.071-0.702,0.211
		s-0.335,0.278-0.445,0.41v4.332h-0.947v-5.62h0.867v0.631h0.021c0.023-0.046,0.073-0.115,0.152-0.204
		c0.076-0.09,0.179-0.176,0.303-0.257c0.125-0.082,0.271-0.155,0.445-0.217c0.174-0.061,0.369-0.094,0.587-0.094
		c0.25,0,0.475,0.037,0.678,0.112c0.204,0.072,0.376,0.193,0.517,0.355c0.14,0.164,0.25,0.378,0.328,0.638
		c0.077,0.262,0.116,0.584,0.116,0.966v3.688h-0.95V34.577z M141.824,34.577h-0.863v-0.631h-0.025
		c-0.021,0.045-0.074,0.115-0.149,0.204c-0.079,0.089-0.179,0.176-0.298,0.257c-0.122,0.082-0.268,0.154-0.44,0.216
		c-0.17,0.062-0.362,0.093-0.571,0.093c-0.25,0-0.476-0.037-0.674-0.111c-0.199-0.074-0.369-0.192-0.51-0.357
		c-0.141-0.164-0.248-0.375-0.32-0.638c-0.076-0.262-0.111-0.583-0.111-0.966v-3.687h0.947v3.617c0,0.469,0.075,0.801,0.229,1.001
		c0.149,0.198,0.387,0.298,0.706,0.298c0.273,0,0.503-0.068,0.689-0.204c0.189-0.138,0.338-0.272,0.448-0.405v-4.307h0.944v5.62
		H141.824z M134.333,29.73h-1.229v3.115c0,0.397,0.053,0.668,0.152,0.814c0.104,0.142,0.271,0.216,0.516,0.216
		c0.14,0,0.262-0.02,0.362-0.06c0.103-0.039,0.177-0.074,0.224-0.105l0.129,0.761c-0.041,0.032-0.135,0.081-0.28,0.146
		c-0.149,0.066-0.347,0.1-0.599,0.1c-0.483,0-0.847-0.135-1.088-0.404c-0.242-0.268-0.362-0.715-0.362-1.34V29.73h-0.681v-0.631
		l0.681-0.14l0.104-1.569h0.845v1.569h1.348L134.333,29.73z M130.997,29.73h-1.147v4.847h-0.947V29.73h-0.68v-0.631l0.68-0.13
		v-1.124c0-0.304,0.041-0.566,0.127-0.783c0.088-0.219,0.201-0.398,0.341-0.539c0.142-0.141,0.305-0.241,0.493-0.305
		c0.188-0.063,0.385-0.094,0.597-0.094c0.203,0,0.374,0.028,0.515,0.082c0.141,0.055,0.234,0.098,0.281,0.129l-0.199,0.785
		c-0.048-0.031-0.113-0.063-0.197-0.1c-0.086-0.036-0.191-0.052-0.317-0.052c-0.226,0-0.396,0.071-0.515,0.211
		c-0.116,0.14-0.176,0.398-0.176,0.773v1.006h1.264L130.997,29.73z M125.331,33.91c0.131,0,0.25-0.02,0.353-0.058
		c0.1-0.041,0.188-0.087,0.262-0.143c0.074-0.054,0.138-0.114,0.188-0.18c0.053-0.067,0.098-0.124,0.135-0.169v-1.242l-0.305,0.013
		c-0.454,0.015-0.795,0.093-1.029,0.233c-0.233,0.14-0.352,0.367-0.352,0.68c0,0.288,0.066,0.505,0.2,0.65
		C124.914,33.837,125.096,33.91,125.331,33.91 M123.635,33.149c0-0.329,0.059-0.602,0.188-0.82c0.125-0.218,0.291-0.395,0.501-0.533
		c0.214-0.136,0.46-0.233,0.743-0.292c0.287-0.059,0.586-0.087,0.908-0.087h0.293v-0.539c0-0.476-0.084-0.804-0.252-0.984
		c-0.17-0.179-0.404-0.27-0.707-0.27c-0.281,0-0.518,0.062-0.703,0.182c-0.188,0.12-0.336,0.229-0.445,0.321l-0.396-0.632
		c0.062-0.063,0.143-0.132,0.237-0.212c0.101-0.078,0.218-0.151,0.358-0.221c0.142-0.072,0.3-0.129,0.479-0.177
		c0.182-0.046,0.383-0.069,0.61-0.069c0.575,0,1.013,0.16,1.312,0.479c0.297,0.32,0.444,0.835,0.444,1.546v2.562
		c0,0.243,0.008,0.479,0.024,0.71c0.014,0.229,0.029,0.382,0.047,0.462h-0.903l-0.035-0.622h-0.022
		c-0.029,0.071-0.076,0.151-0.139,0.241c-0.063,0.09-0.142,0.171-0.236,0.245c-0.094,0.075-0.205,0.139-0.336,0.194
		c-0.135,0.054-0.291,0.082-0.471,0.082c-0.211,0-0.406-0.04-0.59-0.116c-0.184-0.08-0.345-0.187-0.48-0.329
		c-0.138-0.14-0.24-0.306-0.314-0.497C123.672,33.585,123.635,33.375,123.635,33.149 M121.598,34.577v-3.618
		c0-0.475-0.08-0.817-0.242-1.024c-0.158-0.206-0.402-0.311-0.729-0.311c-0.278,0-0.515,0.071-0.702,0.211s-0.335,0.278-0.443,0.41
		v4.332h-0.947V26.3l0.947-0.105v3.338h0.021c0.032-0.048,0.08-0.11,0.146-0.188c0.068-0.079,0.16-0.155,0.276-0.233
		c0.117-0.08,0.259-0.146,0.427-0.206c0.168-0.059,0.365-0.087,0.592-0.087c0.492,0,0.883,0.161,1.17,0.48
		c0.289,0.32,0.433,0.851,0.433,1.591v3.688L121.598,34.577L121.598,34.577z M117.135,30.046c-0.021-0.022-0.059-0.058-0.107-0.105
		c-0.053-0.047-0.115-0.093-0.193-0.141c-0.078-0.048-0.173-0.087-0.282-0.122c-0.106-0.035-0.231-0.052-0.372-0.052
		c-0.205,0-0.394,0.037-0.57,0.11c-0.176,0.075-0.327,0.194-0.457,0.357c-0.127,0.164-0.229,0.376-0.303,0.638
		c-0.074,0.261-0.111,0.58-0.111,0.954c0,0.415,0.035,0.763,0.101,1.043c0.065,0.28,0.156,0.505,0.272,0.673
		c0.117,0.167,0.262,0.288,0.428,0.362c0.166,0.075,0.354,0.112,0.559,0.112c0.287,0,0.51-0.052,0.66-0.153
		c0.151-0.101,0.258-0.183,0.322-0.246l0.387,0.656c-0.041,0.046-0.098,0.103-0.173,0.169c-0.071,0.066-0.169,0.131-0.286,0.194
		c-0.117,0.061-0.257,0.115-0.427,0.158c-0.168,0.042-0.36,0.063-0.578,0.063c-0.313,0-0.606-0.05-0.88-0.15
		c-0.271-0.102-0.51-0.271-0.713-0.505c-0.204-0.233-0.363-0.538-0.48-0.912c-0.115-0.375-0.176-0.84-0.176-1.395
		c0-0.537,0.07-0.994,0.211-1.37c0.141-0.374,0.323-0.675,0.551-0.907c0.228-0.229,0.478-0.396,0.756-0.503
		c0.276-0.105,0.556-0.157,0.836-0.157c0.213,0,0.396,0.02,0.556,0.061c0.161,0.039,0.298,0.087,0.411,0.145
		c0.113,0.059,0.208,0.121,0.281,0.187c0.074,0.066,0.135,0.123,0.182,0.169L117.135,30.046z M112.336,30.094
		c-0.063-0.07-0.176-0.167-0.339-0.287c-0.164-0.121-0.379-0.181-0.644-0.181c-0.252,0-0.441,0.059-0.572,0.176
		c-0.137,0.117-0.202,0.257-0.202,0.421c0,0.21,0.063,0.383,0.185,0.519c0.119,0.138,0.305,0.284,0.555,0.44l0.354,0.212
		c0.38,0.226,0.682,0.469,0.898,0.731c0.219,0.261,0.33,0.598,0.33,1.013c0,0.444-0.155,0.818-0.465,1.122
		c-0.308,0.306-0.75,0.457-1.328,0.457c-0.226,0-0.424-0.024-0.596-0.07c-0.173-0.047-0.322-0.101-0.453-0.164
		c-0.127-0.063-0.234-0.13-0.32-0.206c-0.086-0.074-0.157-0.142-0.213-0.205l0.457-0.75c0.047,0.047,0.104,0.101,0.17,0.165
		c0.066,0.063,0.146,0.123,0.242,0.182c0.092,0.058,0.197,0.106,0.313,0.145c0.118,0.04,0.256,0.06,0.411,0.06
		c0.281,0,0.495-0.063,0.643-0.188c0.148-0.124,0.223-0.277,0.223-0.457c0-0.131-0.018-0.248-0.051-0.344
		c-0.037-0.098-0.088-0.188-0.158-0.263c-0.071-0.077-0.157-0.154-0.258-0.224c-0.101-0.07-0.218-0.147-0.353-0.233l-0.353-0.223
		c-0.351-0.225-0.623-0.464-0.822-0.713c-0.201-0.249-0.299-0.569-0.299-0.96c0-0.211,0.041-0.404,0.123-0.58
		s0.197-0.327,0.346-0.455s0.32-0.231,0.521-0.304c0.196-0.075,0.409-0.112,0.637-0.112c0.219,0,0.406,0.021,0.563,0.064
		c0.157,0.043,0.292,0.099,0.405,0.163c0.11,0.067,0.206,0.133,0.28,0.2c0.074,0.066,0.134,0.122,0.18,0.169L112.336,30.094z
		 M108.836,29.73h-1.229v3.115c0,0.397,0.052,0.668,0.152,0.814c0.102,0.142,0.271,0.216,0.516,0.216c0.142,0,0.262-0.02,0.363-0.06
		c0.098-0.039,0.176-0.074,0.221-0.105l0.131,0.761c-0.041,0.032-0.133,0.081-0.282,0.146c-0.147,0.066-0.347,0.1-0.597,0.1
		c-0.483,0-0.848-0.135-1.09-0.404c-0.24-0.268-0.363-0.715-0.363-1.34V29.73h-0.678v-0.631l0.678-0.14l0.107-1.569h0.842v1.569
		h1.346L108.836,29.73z M105.499,29.789c-0.022-0.015-0.073-0.037-0.151-0.059c-0.076-0.022-0.184-0.035-0.314-0.035
		c-0.299,0-0.53,0.08-0.698,0.24c-0.167,0.16-0.286,0.333-0.356,0.522v4.12h-0.945v-5.62h0.863v0.761h0.022
		c0.039-0.108,0.093-0.216,0.153-0.322c0.062-0.104,0.141-0.198,0.234-0.279c0.094-0.082,0.205-0.148,0.334-0.195
		c0.127-0.044,0.281-0.068,0.461-0.068c0.133,0,0.24,0.012,0.322,0.034c0.082,0.024,0.146,0.044,0.193,0.059L105.499,29.789z
		 M101.109,27.6c-0.195,0-0.352-0.061-0.469-0.187c-0.117-0.125-0.177-0.289-0.177-0.492c0-0.196,0.06-0.355,0.177-0.48
		c0.117-0.124,0.272-0.188,0.469-0.188c0.187,0,0.338,0.062,0.457,0.188c0.115,0.125,0.176,0.285,0.176,0.48
		c0,0.204-0.061,0.367-0.176,0.492C101.448,27.537,101.297,27.6,101.109,27.6 M101.577,34.577h-0.946v-5.62h0.946V34.577z
		 M99.751,26.499l-1.965,8.078h-0.914l-1.228-5.08c-0.088-0.352-0.161-0.679-0.224-0.984c-0.062-0.303-0.098-0.544-0.104-0.725
		h-0.025c0,0.181-0.029,0.416-0.093,0.714c-0.062,0.296-0.138,0.621-0.22,0.971l-1.253,5.104h-0.913l-1.92-8.079h1.089l1.006,4.918
		c0.078,0.375,0.146,0.727,0.206,1.059s0.094,0.587,0.1,0.767h0.022c0.008-0.18,0.049-0.443,0.123-0.785
		c0.074-0.342,0.154-0.698,0.241-1.064l1.194-4.895h0.972l1.168,4.917c0.088,0.376,0.166,0.728,0.235,1.059
		c0.069,0.333,0.108,0.587,0.117,0.768h0.022c0.008-0.181,0.043-0.444,0.104-0.79c0.063-0.348,0.133-0.708,0.21-1.083l1.021-4.871
		L99.751,26.499L99.751,26.499L99.751,26.499z M88.512,29.789c-0.023-0.015-0.074-0.037-0.153-0.059
		c-0.076-0.022-0.181-0.035-0.314-0.035c-0.297,0-0.53,0.08-0.697,0.24s-0.287,0.333-0.358,0.522v4.12h-0.948v-5.62h0.867v0.761
		h0.024c0.04-0.108,0.089-0.216,0.151-0.322c0.062-0.104,0.139-0.198,0.235-0.279c0.093-0.082,0.204-0.148,0.332-0.195
		c0.129-0.044,0.285-0.068,0.464-0.068c0.134,0,0.239,0.012,0.321,0.034c0.081,0.024,0.147,0.044,0.195,0.059L88.512,29.789z
		 M84.064,27.343c0,0.178-0.055,0.322-0.165,0.433c-0.109,0.109-0.242,0.163-0.397,0.163c-0.155,0-0.289-0.054-0.398-0.163
		c-0.108-0.111-0.163-0.255-0.163-0.433c0-0.181,0.055-0.325,0.163-0.437c0.11-0.108,0.243-0.163,0.398-0.163
		c0.156,0,0.289,0.055,0.397,0.163C84.01,27.019,84.064,27.162,84.064,27.343 M82.261,27.343c0,0.178-0.055,0.322-0.164,0.433
		c-0.109,0.109-0.242,0.163-0.398,0.163c-0.156,0-0.288-0.054-0.397-0.163c-0.11-0.111-0.165-0.255-0.165-0.433
		c0-0.181,0.054-0.325,0.165-0.437c0.109-0.108,0.242-0.163,0.397-0.163c0.157,0,0.289,0.055,0.398,0.163
		C82.207,27.019,82.261,27.162,82.261,27.343 M84.592,34.577h-0.868v-0.631H83.7c-0.022,0.045-0.074,0.115-0.152,0.204
		c-0.078,0.089-0.178,0.176-0.298,0.257c-0.121,0.082-0.267,0.154-0.439,0.216c-0.171,0.062-0.362,0.093-0.572,0.093
		c-0.25,0-0.474-0.037-0.673-0.111c-0.199-0.074-0.369-0.192-0.511-0.357c-0.14-0.164-0.247-0.375-0.321-0.638
		c-0.074-0.263-0.111-0.583-0.111-0.966v-3.687h0.948v3.617c0,0.469,0.077,0.801,0.229,1.001c0.152,0.198,0.389,0.298,0.708,0.298
		c0.274,0,0.503-0.068,0.69-0.204c0.188-0.138,0.336-0.272,0.445-0.405v-4.307h0.948L84.592,34.577L84.592,34.577z M79.722,29.73
		h-1.146v4.847h-0.948V29.73h-0.679v-0.631l0.679-0.13v-1.124c0-0.304,0.043-0.566,0.129-0.783c0.085-0.219,0.2-0.398,0.338-0.539
		c0.141-0.141,0.305-0.241,0.492-0.305s0.386-0.094,0.598-0.094c0.203,0,0.375,0.028,0.515,0.082
		c0.14,0.055,0.235,0.098,0.282,0.129l-0.199,0.785c-0.046-0.031-0.113-0.063-0.199-0.1c-0.087-0.036-0.191-0.052-0.316-0.052
		c-0.227,0-0.397,0.071-0.514,0.211c-0.119,0.14-0.177,0.398-0.177,0.773v1.006h1.263L79.722,29.73z M123.797,17.925h-1.229v3.113
		c0,0.398,0.05,0.67,0.152,0.814c0.1,0.144,0.271,0.217,0.514,0.217c0.141,0,0.263-0.021,0.363-0.059
		c0.103-0.039,0.176-0.074,0.223-0.104l0.129,0.76c-0.04,0.031-0.133,0.079-0.28,0.147c-0.147,0.066-0.349,0.099-0.599,0.099
		c-0.484,0-0.85-0.134-1.088-0.404c-0.242-0.27-0.363-0.716-0.363-1.34v-3.243h-0.68v-0.633l0.68-0.141l0.105-1.567h0.844v1.567
		h1.346L123.797,17.925z M116.082,22.772v-3.617c0-0.461-0.064-0.792-0.198-0.996c-0.134-0.203-0.348-0.304-0.645-0.304
		c-0.156,0-0.296,0.02-0.416,0.058c-0.12,0.039-0.229,0.087-0.322,0.146c-0.094,0.059-0.178,0.123-0.247,0.194
		c-0.068,0.07-0.127,0.132-0.176,0.186v4.333h-0.947v-5.621h0.866v0.633h0.021c0.043-0.063,0.101-0.139,0.178-0.228
		c0.08-0.09,0.177-0.178,0.294-0.257c0.114-0.082,0.255-0.152,0.411-0.206c0.156-0.053,0.33-0.082,0.526-0.082
		c0.64,0,1.091,0.25,1.36,0.749c0.053-0.078,0.127-0.162,0.219-0.25c0.096-0.091,0.202-0.173,0.329-0.247
		c0.126-0.074,0.265-0.135,0.421-0.181c0.155-0.046,0.327-0.071,0.516-0.071c1.14,0,1.709,0.664,1.709,1.991v3.77h-0.947v-3.618
		c0-0.459-0.083-0.791-0.246-0.995c-0.165-0.203-0.406-0.305-0.727-0.305c-0.267,0-0.486,0.065-0.66,0.194
		c-0.178,0.128-0.314,0.25-0.418,0.367c0.018,0.088,0.027,0.179,0.035,0.276c0.01,0.097,0.014,0.2,0.014,0.311v3.77H116.082
		L116.082,22.772z M109.829,22.104c0.136,0,0.252-0.02,0.353-0.058c0.104-0.039,0.189-0.085,0.264-0.14
		c0.074-0.055,0.14-0.116,0.188-0.183c0.05-0.065,0.097-0.122,0.136-0.168v-1.241l-0.306,0.011c-0.45,0.015-0.796,0.095-1.028,0.234
		c-0.234,0.142-0.352,0.367-0.352,0.68c0,0.288,0.066,0.505,0.199,0.648C109.415,22.032,109.598,22.104,109.829,22.104
		 M108.134,21.344c0-0.328,0.063-0.6,0.187-0.819c0.125-0.22,0.295-0.396,0.504-0.533c0.211-0.137,0.46-0.235,0.742-0.292
		c0.285-0.059,0.588-0.088,0.908-0.088h0.293v-0.54c0-0.476-0.086-0.802-0.252-0.981c-0.17-0.181-0.404-0.27-0.709-0.27
		c-0.281,0-0.516,0.059-0.701,0.181c-0.188,0.121-0.336,0.229-0.445,0.323l-0.396-0.633c0.061-0.062,0.143-0.131,0.237-0.21
		c0.099-0.079,0.217-0.154,0.358-0.221c0.139-0.072,0.298-0.13,0.48-0.177c0.178-0.047,0.383-0.07,0.605-0.07
		c0.58,0,1.019,0.159,1.313,0.479c0.296,0.321,0.443,0.836,0.443,1.546v2.564c0,0.241,0.009,0.478,0.022,0.707
		c0.017,0.23,0.032,0.385,0.049,0.464h-0.901l-0.035-0.62h-0.024c-0.029,0.069-0.076,0.151-0.14,0.239
		c-0.062,0.09-0.14,0.173-0.233,0.245c-0.094,0.076-0.205,0.14-0.338,0.195c-0.135,0.053-0.289,0.081-0.468,0.081
		c-0.213,0-0.409-0.039-0.593-0.118c-0.184-0.078-0.343-0.188-0.479-0.327c-0.14-0.14-0.244-0.307-0.317-0.499
		C108.171,21.778,108.134,21.571,108.134,21.344 M106.786,18.288c-0.062-0.07-0.175-0.166-0.338-0.287
		c-0.162-0.121-0.38-0.181-0.646-0.181c-0.25,0-0.441,0.059-0.572,0.176c-0.133,0.119-0.198,0.257-0.198,0.42
		c0,0.213,0.062,0.385,0.183,0.523c0.121,0.136,0.305,0.283,0.555,0.438l0.354,0.21c0.38,0.228,0.682,0.471,0.898,0.732
		c0.22,0.261,0.33,0.599,0.33,1.013c0,0.445-0.156,0.82-0.463,1.125c-0.309,0.303-0.752,0.457-1.33,0.457
		c-0.224,0-0.424-0.024-0.597-0.072c-0.171-0.047-0.321-0.101-0.45-0.164c-0.129-0.063-0.234-0.131-0.32-0.205
		c-0.088-0.074-0.157-0.143-0.213-0.206l0.457-0.748c0.047,0.045,0.104,0.1,0.17,0.163c0.065,0.061,0.146,0.123,0.24,0.18
		c0.094,0.059,0.196,0.109,0.314,0.146c0.117,0.039,0.254,0.06,0.41,0.06c0.281,0,0.496-0.062,0.645-0.188
		c0.148-0.125,0.223-0.277,0.223-0.456c0-0.131-0.019-0.248-0.055-0.345c-0.033-0.098-0.088-0.186-0.156-0.262
		c-0.07-0.08-0.158-0.154-0.258-0.225c-0.102-0.068-0.219-0.148-0.351-0.235l-0.354-0.222c-0.35-0.226-0.623-0.463-0.822-0.713
		c-0.199-0.251-0.299-0.57-0.299-0.96c0-0.209,0.041-0.404,0.123-0.578c0.082-0.176,0.197-0.328,0.346-0.458
		c0.146-0.128,0.322-0.23,0.521-0.303c0.198-0.075,0.411-0.112,0.638-0.112c0.219,0,0.408,0.021,0.563,0.065
		c0.155,0.041,0.29,0.096,0.403,0.163c0.113,0.066,0.207,0.133,0.281,0.198c0.072,0.066,0.135,0.124,0.181,0.17L106.786,18.288z
		 M101.32,17.784c-0.336,0-0.605,0.141-0.807,0.422c-0.203,0.282-0.322,0.686-0.354,1.217h2.049
		c0.009-0.039,0.016-0.095,0.018-0.169c0.004-0.074,0.008-0.154,0.008-0.241c0-0.39-0.08-0.692-0.235-0.906
		C101.843,17.892,101.618,17.784,101.32,17.784 M103.1,19.049c0,0.242-0.007,0.451-0.021,0.626c-0.016,0.177-0.03,0.331-0.046,0.462
		h-2.869c0.03,0.665,0.174,1.152,0.426,1.465c0.257,0.312,0.62,0.467,1.097,0.467c0.162,0,0.313-0.021,0.442-0.059
		c0.136-0.039,0.25-0.085,0.349-0.141c0.098-0.054,0.178-0.108,0.244-0.164c0.066-0.055,0.113-0.098,0.146-0.129l0.351,0.667
		c-0.037,0.039-0.096,0.096-0.176,0.169c-0.077,0.075-0.184,0.149-0.314,0.223c-0.133,0.074-0.297,0.139-0.492,0.193
		c-0.195,0.055-0.426,0.083-0.69,0.083c-0.351,0-0.669-0.06-0.954-0.177c-0.285-0.117-0.527-0.299-0.727-0.545
		c-0.199-0.245-0.354-0.557-0.463-0.935c-0.108-0.38-0.164-0.833-0.164-1.365c0-0.5,0.06-0.929,0.171-1.294
		c0.114-0.361,0.268-0.659,0.463-0.896c0.194-0.233,0.422-0.408,0.679-0.521c0.258-0.113,0.535-0.169,0.832-0.169
		c0.537,0,0.96,0.169,1.264,0.509C102.948,17.86,103.1,18.37,103.1,19.049 M96.041,22.069c0.147,0,0.281-0.021,0.396-0.059
		c0.118-0.039,0.221-0.087,0.307-0.146c0.084-0.059,0.156-0.118,0.217-0.18c0.059-0.063,0.104-0.119,0.135-0.164v-3.466
		c-0.087-0.055-0.187-0.102-0.298-0.141c-0.114-0.039-0.257-0.059-0.427-0.059c-0.221,0-0.424,0.037-0.615,0.112
		c-0.191,0.074-0.356,0.197-0.498,0.37c-0.14,0.17-0.252,0.392-0.332,0.667c-0.084,0.274-0.124,0.609-0.124,1.007
		c0,0.392,0.033,0.717,0.099,0.978c0.067,0.263,0.158,0.473,0.275,0.631c0.115,0.159,0.251,0.276,0.396,0.347
		C95.721,22.034,95.877,22.069,96.041,22.069 M93.816,20.044c0-0.569,0.076-1.045,0.224-1.429c0.147-0.383,0.337-0.69,0.571-0.925
		c0.236-0.233,0.5-0.399,0.797-0.497c0.298-0.098,0.596-0.146,0.891-0.146c0.18,0,0.336,0.013,0.467,0.04
		c0.135,0.027,0.242,0.06,0.328,0.099v-2.692l0.948-0.105v8.382h-0.865v-0.598h-0.021c-0.023,0.047-0.067,0.113-0.131,0.195
		s-0.148,0.163-0.258,0.246c-0.107,0.082-0.246,0.152-0.412,0.21c-0.163,0.061-0.354,0.088-0.572,0.088
		c-0.266,0-0.517-0.053-0.754-0.157c-0.24-0.107-0.449-0.274-0.627-0.503c-0.179-0.231-0.322-0.528-0.428-0.891
		C93.869,20.999,93.816,20.56,93.816,20.044 M91.708,22.772v-3.617c0-0.477-0.08-0.818-0.239-1.024
		c-0.159-0.207-0.405-0.311-0.733-0.311c-0.279,0-0.514,0.07-0.701,0.21c-0.186,0.142-0.334,0.277-0.446,0.409v4.333h-0.947v-5.621
		h0.867v0.633h0.023c0.022-0.048,0.073-0.116,0.15-0.205c0.078-0.089,0.18-0.175,0.305-0.257c0.125-0.081,0.273-0.153,0.445-0.215
		c0.173-0.063,0.368-0.095,0.585-0.095c0.25,0,0.477,0.037,0.679,0.112c0.203,0.073,0.375,0.192,0.516,0.356
		c0.14,0.164,0.25,0.375,0.328,0.638c0.078,0.26,0.119,0.583,0.119,0.966v3.688H91.708L91.708,22.772z M87.19,22.772h-0.866V22.14
		h-0.023c-0.024,0.046-0.074,0.116-0.153,0.205c-0.078,0.089-0.178,0.177-0.299,0.258c-0.121,0.082-0.266,0.154-0.438,0.216
		c-0.172,0.062-0.363,0.095-0.573,0.095c-0.25,0-0.474-0.039-0.673-0.113c-0.199-0.074-0.369-0.192-0.509-0.356
		c-0.142-0.165-0.248-0.377-0.322-0.639c-0.074-0.261-0.112-0.583-0.112-0.964v-3.688h0.948v3.617c0,0.469,0.077,0.803,0.229,1
		c0.153,0.198,0.39,0.299,0.709,0.299c0.273,0,0.503-0.069,0.69-0.206c0.187-0.137,0.336-0.271,0.444-0.404v-4.307h0.948V22.772z
		 M80.915,20.512c0-0.438-0.142-0.783-0.426-1.035c-0.286-0.255-0.694-0.381-1.224-0.381h-0.691v2.833h0.633
		c0.601,0,1.036-0.119,1.305-0.357C80.781,21.334,80.915,20.98,80.915,20.512 M80.764,16.788c0-0.374-0.134-0.682-0.398-0.925
		c-0.266-0.241-0.683-0.361-1.252-0.361h-0.539v2.786h0.528c0.545,0,0.96-0.132,1.241-0.398
		C80.623,17.623,80.764,17.259,80.764,16.788 M81.794,16.755c0,0.279-0.035,0.526-0.105,0.737c-0.071,0.211-0.166,0.393-0.287,0.544
		c-0.121,0.153-0.261,0.274-0.421,0.371c-0.159,0.092-0.326,0.163-0.496,0.208v0.026c0.211,0.039,0.407,0.112,0.59,0.221
		c0.184,0.108,0.344,0.247,0.481,0.41c0.136,0.163,0.245,0.357,0.328,0.579c0.082,0.223,0.123,0.466,0.123,0.73
		c0,0.32-0.055,0.613-0.164,0.878c-0.11,0.266-0.28,0.496-0.51,0.691c-0.229,0.195-0.521,0.347-0.872,0.457
		c-0.352,0.107-0.769,0.164-1.253,0.164h-1.651v-8.078h1.558c0.476,0,0.883,0.048,1.224,0.145c0.338,0.097,0.619,0.236,0.836,0.416
		c0.219,0.178,0.376,0.395,0.474,0.65C81.744,16.161,81.794,16.442,81.794,16.755"/>
	<polygon fill="#F8D200" points="68.761,54.253 70.236,54.253 70.236,73.927 66.794,73.927 66.794,54.253 	"/>
	<polygon fill="#E30613" points="68.761,34.479 70.236,34.479 70.236,54.253 66.794,54.253 66.794,34.479 	"/>
	<path d="M51.715,22.121c0.027-0.219,0.042-0.447,0.042-0.68c0-0.125,0.001-0.274-0.014-0.44c1.961-0.028,3.68-1.441,3.68-3.064
		c0-0.828-0.54-1.45-0.843-1.822c0.069-0.016,0.137-0.031,0.206-0.049c0.287,0.251,1.103,1.137,1.103,2.258
		C55.888,20.273,53.939,22.083,51.715,22.121 M49.74,15.333c-0.037-0.216-0.118-0.413-0.244-0.581
		c0.006-0.2,0.088-0.389,0.408-0.232c-0.173,0.177-0.04,0.492-0.04,0.492s0.354-0.166,0.282-0.398
		C50.669,14.737,50.292,15.442,49.74,15.333 M49.285,16.334c-0.071-0.29-0.22-0.59-0.41-0.814c-0.173-0.205-0.458-0.448-0.844-0.448
		c-0.175,0-0.472,0.082-0.659,0.161c-0.071-0.126-0.208-0.435-0.208-0.574c0-0.142,0.242-0.288,0.704-0.288
		c1.016,0,1.622,0.459,1.622,1.229C49.488,15.87,49.381,16.118,49.285,16.334 M51.892,29.417c0.117,0,0.176,0.02,0.244,0.045
		c0.292,0.796,1.418,2.296,1.465,2.36l0.01,0.014l0.017-0.005c0.276-0.043,0.982-0.151,1.571-0.151h0.014
		c0.064,0,0.137,0,0.183,0.044c0.04,0.041,0.059,0.106,0.059,0.202c0,0.146-0.063,0.396-0.138,0.506
		c-0.206-0.228-0.541-0.328-1.078-0.328c-0.162,0-0.353,0.048-0.455,0.076l-0.042,0.009l-0.05,0.011l0.311,0.312
		c0.478,0.478,0.893,0.89,0.893,1.165c0,0.166-0.162,0.381-0.31,0.478c-0.032-0.503-0.54-1.176-1.035-1.552l-0.042-0.033
		L53.5,32.748c-0.007,0.121-0.016,0.3-0.016,0.493c0,0.958-0.1,1.102-0.43,1.102c-0.05,0-0.129-0.013-0.177-0.032
		c0.186-0.231,0.26-0.537,0.26-1.071l-0.003-0.247l-0.001-0.199c0-0.22,0.023-0.382,0.04-0.513l0.01-0.074l-0.052-0.006
		c-0.156-0.023-0.444-0.061-0.665-0.061c-0.474,0-0.793,0.042-1.027,0.261c-0.153-0.122-0.311-0.337-0.311-0.472
		c0-0.2,0.126-0.215,0.289-0.215c0.083,0,0.16,0.012,0.264,0.025c0.205,0.029,0.511,0.074,1.142,0.074h0.04l-0.012-0.039
		c-0.161-0.456-0.599-1.12-1.303-1.976C51.608,29.569,51.669,29.417,51.892,29.417 M45.817,31.774l-0.012,0.039h0.039
		c0.631,0,0.938-0.044,1.141-0.074c0.106-0.013,0.182-0.025,0.266-0.025c0.163,0,0.288,0.016,0.288,0.215
		c0,0.135-0.157,0.348-0.31,0.472c-0.233-0.218-0.554-0.261-1.026-0.261c-0.221,0-0.509,0.039-0.665,0.061l-0.025,0.002
		l-0.026,0.003l0.009,0.074c0.017,0.131,0.042,0.293,0.042,0.513l-0.003,0.199l-0.002,0.247c0,0.534,0.073,0.84,0.26,1.071
		c-0.048,0.019-0.127,0.032-0.177,0.032c-0.333,0-0.429-0.144-0.429-1.102c0-0.192-0.01-0.372-0.018-0.493l-0.008-0.178
		l-0.042,0.034c-0.492,0.376-1.002,1.048-1.033,1.552c-0.149-0.096-0.309-0.312-0.309-0.478c0-0.274,0.413-0.688,0.892-1.165
		l0.275-0.274l0.035-0.038l-0.09-0.02c-0.102-0.028-0.293-0.076-0.455-0.076c-0.537,0-0.871,0.1-1.081,0.328
		c-0.073-0.109-0.136-0.359-0.136-0.506c0-0.094,0.019-0.161,0.057-0.202c0.048-0.044,0.12-0.044,0.184-0.044h0.013
		c0.591,0,1.297,0.106,1.573,0.152l0.017,0.004l0.01-0.014c0.047-0.064,1.174-1.563,1.466-2.36c0.067-0.024,0.126-0.045,0.243-0.045
		c0.222,0,0.282,0.152,0.348,0.379C46.416,30.652,45.978,31.317,45.817,31.774 M42.776,18.323c0-1.121,0.815-2.007,1.103-2.258
		c0.07,0.018,0.137,0.033,0.206,0.049c-0.304,0.372-0.842,0.995-0.842,1.822c0,1.639,1.752,3.065,3.737,3.065
		c-0.012,0.14-0.02,0.29-0.02,0.439c0,0.243,0.014,0.469,0.039,0.68C44.752,22.108,42.776,20.286,42.776,18.323 M57.833,21.778
		c1.007,1.594,1.796,1.566,2.986,1.566c-0.985-0.755-1.637-1.72-1.947-2.214l-1.84-2.943c-0.18-0.909-0.651-1.758-1.354-2.392
		c0.237-0.09,0.433-0.183,0.552-0.274c-1.202,0-2.392-0.609-3.047-0.609c-0.42,0-0.692,0.251-0.692,0.585
		c0.028,0.37,0.41,0.746,1.114,0.746c0.16,0,0.364-0.02,0.589-0.057c0.382,0.532,0.689,1.013,0.689,1.699
		c0,1.289-1.541,2.292-3.096,2.292c-0.088,0-0.172-0.003-0.259-0.01c-0.142-0.318-0.61-0.856-0.61-1.464
		c0-1.025,0.668-1.862,0.668-2.877c0-0.629-0.308-1.019-0.426-1.181c0.192-0.178,0.399-0.396,0.45-0.547
		c-0.111,0.048-0.244,0.056-0.436,0.056c-0.745,0-1.354-0.195-1.946-0.195c-0.337,0-0.429,0.105-0.429,0.205
		c0,0.036,0.007,0.074,0.017,0.094c-0.126-0.051-0.246-0.084-0.386-0.109c-0.175-0.034-0.362-0.05-0.563-0.05
		c-0.721,0-0.976,0.302-0.976,0.562c0,0.217,0.171,0.618,0.368,0.922c0.282-0.141,0.616-0.237,0.771-0.237
		c0.381,0,0.722,0.364,0.902,0.795c-0.257,0.032-0.307,0.042-0.566,0.042c-0.7,0-1.177-0.252-1.277-0.252
		c-0.009,0-0.029,0.004-0.029,0.02c0,0.099,0.199,0.358,0.592,0.501c0.515,0.19,1.289,0.268,1.418,0.289
		c0,0.023-0.131,0.267-0.277,0.314c-0.031,0.011-0.056,0.011-0.092,0.003c-0.539-0.105-0.689-0.151-1.374-0.413
		c-0.02-0.007-0.033,0.005-0.033,0.028c0,0.271,0.701,0.866,1.329,1.096c-0.524,0.669-1.179,1.354-1.488,2.397
		c-0.088,0.006-0.171,0.01-0.26,0.01c-1.556,0-3.096-1.003-3.096-2.292c0-0.688,0.308-1.167,0.69-1.699
		c0.224,0.037,0.429,0.057,0.589,0.057c0.706,0,1.086-0.376,1.115-0.746c0-0.334-0.271-0.585-0.694-0.585
		c-0.653,0-1.844,0.609-3.046,0.609c0.119,0.09,0.316,0.184,0.552,0.274c-0.704,0.632-1.173,1.483-1.352,2.391l-1.84,2.944
		c-0.309,0.495-0.962,1.459-1.948,2.215c1.189,0,1.981,0.026,2.988-1.566l0.942-1.509c0.07,0.197,0.156,0.389,0.256,0.575l-1.875,3
		c-0.312,0.498-0.959,1.458-1.949,2.216c1.191,0,1.98,0.027,2.988-1.564l1.614-2.585c0.12,0.129,0.247,0.254,0.38,0.375
		l-2.277,3.648c-0.313,0.498-0.955,1.453-1.948,2.213c1.19,0,1.98,0.027,2.986-1.563l2.22-3.559
		c0.147,0.094,0.297,0.183,0.452,0.268l-2.711,4.338c-0.313,0.5-0.957,1.452-1.946,2.212c1.189,0,1.978,0.028,2.985-1.564
		l2.792-4.468c0.165,0.063,0.332,0.124,0.504,0.178l-3.155,5.051c-0.309,0.492-0.967,1.461-1.946,2.213
		c1.189,0,1.979,0.025,2.985-1.565l3.362-5.383c0.034,0.006,0.068,0.013,0.102,0.02c0.091,0.292,0.155,0.562,0.155,0.833
		c0,1.691-1.109,3.186-2.442,4.338c0.084,0.037,0.233,0.05,0.37,0.05c0.275,0,0.453-0.016,0.577-0.038
		c-0.308,0.702-0.971,1.607-1.305,2.077c-0.436-0.079-1.07-0.142-1.486-0.142c-0.435,0-0.483,0.256-0.483,0.481
		c0,0.396,0.185,0.709,0.399,0.884c0.08-0.201,0.244-0.472,1.047-0.472c0.014,0,0.042,0.002,0.08,0.005
		c-0.235,0.261-0.969,0.855-0.969,1.333c0,0.317,0.347,0.792,0.806,0.792c-0.028-0.101-0.024-0.195-0.024-0.266
		c0-0.389,0.344-0.843,0.633-1.158c-0.009,0.094-0.003,0.084-0.003,0.195c0,0.917,0.082,1.337,0.664,1.337
		c0.285,0,0.482-0.158,0.55-0.204c-0.378-0.349-0.397-0.621-0.397-1.135c0.001-0.133,0.001-0.264,0.003-0.444
		c0.002-0.117,0-0.272-0.02-0.385c0.209-0.029,0.292-0.029,0.453-0.029c0,0,0.827-0.066,1.025,0.364
		c0.224-0.205,0.549-0.494,0.549-0.814c0-0.212-0.1-0.451-0.526-0.451c-0.161,0-0.667,0.099-1.091,0.099
		c0.113-0.253,0.621-0.996,1.059-1.533c0.067,0.208,0.171,0.435,0.403,0.619c0.03-0.347,0.234-1.441,0.775-2.08
		c0.063,0.432,0.147,0.875,0.147,1.812c0,2.276-0.547,3.957-1.709,4.278c0.151,0.264,0.472,0.499,0.804,0.499
		c0.424,0,0.657-0.48,0.893-0.935c0.122,0.334,0.462,1.157,0.802,1.157s0.68-0.822,0.803-1.157c0.236,0.455,0.467,0.935,0.892,0.935
		c0.332,0,0.652-0.235,0.803-0.499c-1.162-0.321-1.709-2.002-1.709-4.278c0-0.935,0.085-1.379,0.148-1.812
		c0.54,0.64,0.743,1.733,0.775,2.08c0.23-0.184,0.336-0.411,0.401-0.619c0.439,0.537,0.946,1.28,1.06,1.533
		c-0.424,0-0.931-0.099-1.091-0.099c-0.426,0-0.527,0.239-0.527,0.451c0,0.32,0.327,0.61,0.55,0.814
		c0.2-0.43,1.026-0.364,1.026-0.364c0.159,0,0.243,0,0.452,0.029c-0.02,0.113-0.02,0.269-0.02,0.385
		c0.001,0.181,0.002,0.311,0.002,0.444c0,0.515-0.019,0.787-0.396,1.135c0.068,0.046,0.265,0.204,0.55,0.204
		c0.581,0,0.665-0.42,0.665-1.337c0-0.11,0.002-0.101-0.004-0.195c0.289,0.315,0.633,0.771,0.633,1.158
		c0,0.07,0.003,0.165-0.024,0.266c0.458,0,0.807-0.474,0.807-0.792c0-0.478-0.735-1.072-0.972-1.333
		c0.039-0.002,0.065-0.005,0.081-0.005c0.804,0,0.965,0.271,1.046,0.472c0.214-0.175,0.399-0.487,0.399-0.884
		c0-0.226-0.049-0.481-0.485-0.481c-0.415,0-1.049,0.063-1.484,0.142c-0.335-0.469-0.998-1.375-1.307-2.077
		c0.125,0.022,0.302,0.038,0.577,0.038c0.138,0,0.286-0.013,0.373-0.05c-1.333-1.153-2.442-2.647-2.442-4.338
		c0-0.271,0.064-0.541,0.155-0.833c0.033-0.007,0.069-0.012,0.102-0.02l3.363,5.383c1.006,1.59,1.796,1.565,2.984,1.565
		c-0.98-0.752-1.637-1.723-1.945-2.213l-3.157-5.051c0.171-0.055,0.34-0.115,0.504-0.178l2.791,4.468
		c1.008,1.592,1.795,1.564,2.987,1.564c-0.991-0.761-1.634-1.714-1.947-2.212l-2.712-4.338c0.154-0.084,0.306-0.174,0.452-0.268
		l2.221,3.559c1.008,1.59,1.796,1.563,2.986,1.563c-0.989-0.76-1.633-1.715-1.947-2.213l-2.278-3.648
		c0.134-0.12,0.262-0.246,0.381-0.375l1.616,2.585c1.008,1.592,1.795,1.564,2.987,1.564c-0.99-0.759-1.636-1.718-1.949-2.216
		l-1.876-3c0.101-0.186,0.188-0.378,0.257-0.575L57.833,21.778z"/>
	<polygon points="70.237,14.902 70.237,34.577 68.761,34.577 66.794,34.577 66.794,14.902 	"/>
	<line fill="none" x1="15.146" y1="75.971" x2="175.5" y2="75.971"/>
</g>
<path fill="#B0B7BD" d="M148.779,55.604h40.851L135.165,1.137v40.85C135.165,49.476,141.293,55.604,148.779,55.604z"/>
<polygon fill="#CAD1D8" points="189.63,96.451 148.779,55.604 189.63,55.604 "/>
<rect x="51.25" y="83.5" fill="#CAD1D8" width="111.25" height="8.5"/>
<rect x="51.25" y="94.75" fill="#CAD1D8" width="111.25" height="8.5"/>
<rect x="51.25" y="106" fill="#CAD1D8" width="111.25" height="8.5"/>
<path fill="#656C80" d="M171.396,186.941c0,3.311-3.104,6.018-6.896,6.018H12.77c-3.793,0-6.896-2.707-6.896-6.018v-60.178
	c0-3.309,3.102-6.017,6.896-6.017H164.5c3.793,0,6.896,2.707,6.896,6.017V186.941z"/>
<path fill="#CAD1D8" d="M164.141,192.959H26.273v6.809h137.868c3.991,0,7.258-3.063,7.258-6.809v-6.809
	C171.396,189.896,168.133,192.959,164.141,192.959z"/>
<g enable-background="new    ">
	<path fill="#FFFFFF" d="M22.723,154.789c-1.032,0.921-2.367,1.381-4.005,1.381h-5.221c-0.092,0-0.17-0.031-0.235-0.098
		c-0.065-0.064-0.097-0.143-0.097-0.233v-18.673c0-0.094,0.032-0.171,0.097-0.234c0.065-0.064,0.143-0.098,0.235-0.098h4.613
		c1.841,0,3.283,0.441,4.323,1.326c1.04,0.884,1.561,2.199,1.561,3.949c0,1.824-0.626,3.148-1.878,3.979
		c-0.074,0.055-0.083,0.109-0.027,0.165c1.454,1.032,2.182,2.562,2.182,4.586C24.27,152.553,23.754,153.868,22.723,154.789z
		 M17.061,140.314v4.336c0,0.094,0.045,0.139,0.138,0.139h0.995c0.626,0,1.114-0.197,1.464-0.594
		c0.35-0.396,0.525-0.953,0.525-1.672c0-0.754-0.17-1.334-0.511-1.739c-0.341-0.405-0.833-0.606-1.478-0.606h-0.995
		C17.106,140.178,17.061,140.223,17.061,140.314z M19.85,152.137c0.35-0.441,0.525-1.066,0.525-1.878s-0.175-1.454-0.525-1.934
		s-0.819-0.72-1.409-0.72h-1.243c-0.092,0-0.138,0.047-0.138,0.14v4.917c0,0.092,0.045,0.138,0.138,0.138h1.216
		C19.021,152.8,19.5,152.579,19.85,152.137z"/>
	<path fill="#FFFFFF" d="M33.358,155.866l-0.442-2.652c0-0.092-0.055-0.138-0.166-0.138h-3.508c-0.111,0-0.166,0.046-0.166,0.138
		l-0.442,2.652c-0.019,0.202-0.138,0.304-0.359,0.304h-3.232c-0.24,0-0.332-0.119-0.276-0.359l4.061-18.672
		c0.037-0.203,0.156-0.305,0.359-0.305h3.729c0.203,0,0.322,0.102,0.359,0.305l4.033,18.672l0.028,0.11
		c0,0.166-0.102,0.249-0.304,0.249h-3.315C33.496,156.17,33.376,156.068,33.358,155.866z M29.739,150.064h2.486
		c0.092,0,0.129-0.045,0.11-0.139l-1.298-7.539c-0.019-0.057-0.046-0.084-0.083-0.084s-0.065,0.027-0.083,0.084l-1.243,7.539
		C29.628,150.02,29.666,150.064,29.739,150.064z"/>
	<path fill="#FFFFFF" d="M48.923,140.08c-0.064,0.064-0.143,0.098-0.235,0.098h-5.746c-0.092,0-0.138,0.045-0.138,0.137v4.365
		c0,0.092,0.045,0.139,0.138,0.139h3.287c0.092,0,0.17,0.031,0.235,0.097s0.097,0.144,0.097,0.233v2.681
		c0,0.092-0.032,0.17-0.097,0.233c-0.065,0.064-0.143,0.098-0.235,0.098h-3.287c-0.092,0-0.138,0.046-0.138,0.139v7.541
		c0,0.092-0.033,0.17-0.097,0.234c-0.065,0.064-0.143,0.097-0.235,0.097H39.24c-0.092,0-0.17-0.032-0.235-0.097
		c-0.065-0.065-0.097-0.143-0.097-0.234v-18.673c0-0.093,0.032-0.171,0.097-0.235c0.065-0.063,0.143-0.097,0.235-0.097h9.447
		c0.092,0,0.17,0.032,0.235,0.097c0.065,0.065,0.097,0.144,0.097,0.235v2.679C49.02,139.938,48.987,140.016,48.923,140.08z"/>
	<path fill="#FFFFFF" d="M57.168,155.866l-0.442-2.652c0-0.092-0.055-0.138-0.166-0.138h-3.508c-0.111,0-0.166,0.046-0.166,0.138
		l-0.442,2.652c-0.019,0.202-0.138,0.304-0.359,0.304h-3.232c-0.24,0-0.332-0.119-0.276-0.359l4.061-18.672
		c0.037-0.203,0.156-0.305,0.359-0.305h3.729c0.203,0,0.322,0.102,0.359,0.305l4.033,18.672l0.028,0.11
		c0,0.166-0.102,0.249-0.304,0.249h-3.315C57.306,156.17,57.187,156.068,57.168,155.866z M53.55,150.064h2.486
		c0.092,0,0.129-0.045,0.11-0.139l-1.298-7.539c-0.019-0.057-0.046-0.084-0.083-0.084c-0.037,0-0.065,0.027-0.083,0.084
		l-1.243,7.539C53.439,150.02,53.476,150.064,53.55,150.064z"/>
	<path fill="#FFFFFF" d="M78.286,140.08c-0.065,0.064-0.143,0.098-0.235,0.098h-5.773c-0.092,0-0.138,0.045-0.138,0.137v4.365
		c0,0.092,0.045,0.139,0.138,0.139h3.315c0.092,0,0.17,0.031,0.235,0.097c0.064,0.063,0.097,0.144,0.097,0.233v2.681
		c0,0.092-0.032,0.17-0.097,0.233c-0.065,0.064-0.143,0.098-0.235,0.098h-3.315c-0.092,0-0.138,0.046-0.138,0.139v4.393
		c0,0.093,0.045,0.138,0.138,0.138h5.773c0.092,0,0.17,0.032,0.235,0.097c0.064,0.065,0.097,0.145,0.097,0.235v2.68
		c0,0.093-0.033,0.171-0.097,0.234c-0.065,0.063-0.143,0.097-0.235,0.097h-9.475c-0.092,0-0.17-0.031-0.235-0.097
		c-0.065-0.065-0.097-0.144-0.097-0.234v-18.673c0-0.094,0.032-0.171,0.097-0.234c0.065-0.064,0.143-0.098,0.235-0.098h9.475
		c0.092,0,0.17,0.032,0.235,0.098c0.064,0.063,0.097,0.143,0.097,0.234v2.68C78.382,139.938,78.35,140.016,78.286,140.08z"/>
	<path fill="#FFFFFF" d="M87.69,142.082c0.147,0.093,0.203,0.23,0.166,0.415l-0.524,3.231c-0.019,0.203-0.148,0.275-0.387,0.221
		c-0.203-0.073-0.452-0.11-0.746-0.11c-0.276,0-0.516,0.037-0.718,0.11c-0.424,0.074-0.764,0.326-1.022,0.76
		s-0.387,0.936-0.387,1.506v7.596c0,0.094-0.032,0.172-0.097,0.235s-0.143,0.097-0.235,0.097h-3.231
		c-0.093,0-0.171-0.031-0.235-0.097c-0.065-0.063-0.097-0.144-0.097-0.235v-13.506c0-0.093,0.032-0.171,0.097-0.236
		c0.064-0.063,0.142-0.096,0.235-0.096h3.231c0.092,0,0.17,0.031,0.235,0.096c0.064,0.065,0.097,0.145,0.097,0.236v1.076
		c0,0.073,0.014,0.115,0.042,0.124c0.028,0.011,0.06-0.015,0.097-0.069c0.497-1.086,1.271-1.629,2.32-1.629
		C87.027,141.807,87.414,141.898,87.69,142.082z"/>
	<path fill="#FFFFFF" d="M89.224,156.072c-0.065-0.063-0.097-0.143-0.097-0.233v-18.673c0-0.094,0.032-0.171,0.097-0.234
		c0.064-0.064,0.142-0.098,0.235-0.098h3.231c0.092,0,0.17,0.031,0.235,0.098c0.065,0.064,0.097,0.143,0.097,0.234v9.143
		c0,0.074,0.018,0.115,0.055,0.125s0.074-0.015,0.111-0.068l2.403-4.172c0.074-0.146,0.211-0.221,0.415-0.221h3.314
		c0.129,0,0.217,0.037,0.263,0.109c0.046,0.074,0.032,0.166-0.042,0.275l-2.982,4.642c-0.037,0.073-0.047,0.14-0.027,0.192
		l3.369,8.592c0.02,0.037,0.027,0.083,0.027,0.138c0,0.166-0.101,0.249-0.304,0.249h-3.342c-0.185,0-0.304-0.092-0.359-0.275
		l-1.768-5.47c-0.019-0.056-0.046-0.088-0.083-0.097c-0.037-0.01-0.065,0.014-0.083,0.068l-0.912,1.437
		c-0.037,0.073-0.055,0.129-0.055,0.166v3.84c0,0.093-0.032,0.17-0.097,0.233c-0.065,0.064-0.143,0.098-0.235,0.098h-3.231
		C89.366,156.17,89.288,156.139,89.224,156.072z"/>
	<path fill="#FFFFFF" d="M101.516,156.072c-0.064-0.063-0.097-0.143-0.097-0.233v-18.673c0-0.094,0.031-0.171,0.097-0.234
		c0.064-0.064,0.144-0.098,0.234-0.098h3.232c0.092,0,0.17,0.031,0.233,0.098c0.063,0.064,0.097,0.143,0.097,0.234v18.673
		c0,0.093-0.031,0.17-0.097,0.233c-0.065,0.064-0.143,0.098-0.233,0.098h-3.232C101.658,156.17,101.58,156.139,101.516,156.072z"/>
	<path fill="#FFFFFF" d="M116.251,143.021c0.978,0.848,1.464,1.961,1.464,3.342v9.476c0,0.093-0.031,0.17-0.097,0.233
		c-0.065,0.064-0.144,0.098-0.234,0.098h-3.231c-0.092,0-0.17-0.031-0.234-0.098c-0.064-0.064-0.098-0.143-0.098-0.233v-0.608
		c0-0.055-0.019-0.092-0.055-0.109c-0.037-0.018-0.074,0-0.109,0.057c-0.608,0.772-1.547,1.178-2.818,1.215
		c-1.066,0-1.992-0.295-2.775-0.885c-0.783-0.589-1.174-1.713-1.174-3.369c0-1.713,0.475-2.892,1.422-3.535
		c0.948-0.645,2.315-0.967,4.104-0.967h1.271c0.092,0,0.137-0.047,0.137-0.14v-0.69c0-0.496-0.133-0.906-0.399-1.229
		c-0.266-0.323-0.604-0.482-1.008-0.482c-0.313,0-0.576,0.096-0.787,0.289c-0.212,0.193-0.346,0.465-0.401,0.814
		c-0.019,0.221-0.138,0.33-0.357,0.33l-3.314-0.026c-0.222,0-0.332-0.11-0.332-0.331c0.092-1.345,0.617-2.417,1.574-3.219
		c0.958-0.801,2.173-1.201,3.646-1.201C114.005,141.751,115.275,142.175,116.251,143.021z M108.282,139.748
		c-0.414-0.414-0.621-0.936-0.621-1.561c0-0.646,0.202-1.17,0.606-1.574c0.404-0.405,0.931-0.607,1.574-0.607
		c0.645,0,1.169,0.202,1.574,0.607c0.404,0.404,0.607,0.93,0.607,1.574c0,0.625-0.207,1.146-0.621,1.561s-0.936,0.622-1.562,0.622
		S108.695,140.163,108.282,139.748z M113.311,152.952c0.34-0.285,0.51-0.668,0.51-1.146v-1.3c0-0.092-0.045-0.138-0.137-0.138
		h-1.134c-0.497,0-0.897,0.143-1.2,0.428c-0.305,0.286-0.457,0.678-0.457,1.176c0,0.459,0.115,0.811,0.346,1.049
		c0.229,0.24,0.539,0.358,0.926,0.358C112.587,153.38,112.969,153.236,113.311,152.952z M113.365,139.748
		c-0.415-0.414-0.622-0.936-0.622-1.561c0-0.646,0.202-1.17,0.606-1.574c0.405-0.405,0.93-0.607,1.575-0.607
		s1.169,0.202,1.574,0.607c0.403,0.404,0.606,0.93,0.606,1.574c0,0.625-0.207,1.146-0.621,1.561s-0.936,0.622-1.561,0.622
		S113.779,140.163,113.365,139.748z"/>
	<path fill="#FFFFFF" d="M127.107,142.082c0.146,0.093,0.201,0.23,0.164,0.415l-0.523,3.231c-0.02,0.203-0.146,0.275-0.387,0.221
		c-0.203-0.073-0.451-0.11-0.746-0.11c-0.276,0-0.516,0.037-0.719,0.11c-0.424,0.074-0.765,0.326-1.021,0.76
		s-0.387,0.936-0.387,1.506v7.596c0,0.094-0.032,0.172-0.098,0.235c-0.064,0.063-0.143,0.097-0.233,0.097h-3.232
		c-0.092,0-0.17-0.031-0.233-0.097c-0.064-0.065-0.098-0.144-0.098-0.235v-13.506c0-0.093,0.032-0.171,0.098-0.236
		c0.063-0.063,0.143-0.096,0.233-0.096h3.232c0.092,0,0.17,0.031,0.233,0.096c0.064,0.065,0.098,0.145,0.098,0.236v1.076
		c0,0.073,0.014,0.115,0.041,0.124c0.027,0.011,0.061-0.015,0.098-0.069c0.497-1.086,1.271-1.629,2.32-1.629
		C126.443,141.807,126.831,141.898,127.107,142.082z"/>
	<path fill="#FFFFFF" d="M134.993,142.068c0.063-0.064,0.142-0.098,0.233-0.098h3.231c0.092,0,0.17,0.032,0.235,0.098
		c0.063,0.064,0.097,0.144,0.097,0.234v13.535c0,0.092-0.032,0.17-0.097,0.234c-0.065,0.064-0.145,0.097-0.235,0.097h-3.231
		c-0.093,0-0.17-0.032-0.233-0.097c-0.065-0.064-0.097-0.143-0.097-0.234v-0.47c0-0.056-0.02-0.093-0.057-0.11s-0.074,0-0.109,0.055
		c-0.276,0.388-0.623,0.66-1.037,0.815c-0.414,0.156-0.896,0.233-1.449,0.233c-1.104,0-2.018-0.336-2.734-1.008
		c-0.719-0.672-1.076-1.707-1.076-3.107v-9.943c0-0.092,0.03-0.17,0.096-0.234c0.064-0.064,0.144-0.098,0.234-0.098h3.232
		c0.092,0,0.17,0.032,0.234,0.098c0.063,0.064,0.097,0.144,0.097,0.234v9.088c0,0.534,0.104,0.943,0.317,1.229
		c0.211,0.286,0.521,0.429,0.926,0.429c0.404,0,0.728-0.156,0.967-0.47c0.238-0.313,0.359-0.735,0.359-1.271v-9.006
		C134.896,142.212,134.928,142.135,134.993,142.068z"/>
	<path fill="#FFFFFF" d="M150.311,142.994c0.625,0.828,0.938,1.988,0.938,3.48v9.363c0,0.092-0.032,0.17-0.097,0.234
		c-0.065,0.064-0.144,0.097-0.235,0.097h-3.231c-0.092,0-0.17-0.032-0.233-0.097c-0.065-0.064-0.097-0.143-0.097-0.234v-9.061
		c0-0.534-0.106-0.948-0.318-1.243c-0.212-0.294-0.521-0.44-0.926-0.44c-0.424,0-0.75,0.15-0.979,0.454s-0.346,0.731-0.346,1.284
		v9.006c0,0.092-0.032,0.17-0.097,0.234c-0.065,0.064-0.144,0.097-0.234,0.097h-3.232c-0.092,0-0.17-0.032-0.233-0.097
		c-0.064-0.065-0.097-0.143-0.097-0.234v-13.535c0-0.092,0.031-0.17,0.097-0.234c0.063-0.064,0.143-0.098,0.233-0.098h3.232
		c0.092,0,0.17,0.032,0.234,0.098c0.063,0.064,0.097,0.144,0.097,0.234v0.524c0,0.056,0.022,0.083,0.069,0.083
		c0.045,0,0.104-0.037,0.18-0.11c0.589-0.7,1.408-1.05,2.458-1.05C148.744,141.751,149.684,142.165,150.311,142.994z"/>
	<path fill="#FFFFFF" d="M159.659,142.068c0.063-0.064,0.143-0.098,0.235-0.098h3.23c0.092,0,0.17,0.032,0.234,0.098
		c0.063,0.064,0.097,0.144,0.097,0.234v13.203c0,2.044-0.483,3.619-1.449,4.725c-0.967,1.104-2.702,1.656-5.207,1.656
		c-0.497,0-0.884-0.01-1.159-0.027c-0.223-0.019-0.332-0.139-0.332-0.358v-2.707c0-0.239,0.119-0.341,0.358-0.304
		c1.086,0.037,1.91-0.069,2.474-0.317c0.562-0.249,0.938-0.622,1.131-1.118c0.194-0.498,0.291-1.15,0.291-1.961
		c0-0.057-0.02-0.084-0.056-0.084c-0.037,0-0.073,0.027-0.11,0.084c-0.332,0.44-0.731,0.75-1.201,0.924
		c-0.471,0.176-0.926,0.264-1.367,0.264c-1.271,0-2.221-0.409-2.846-1.229c-0.627-0.818-0.938-1.957-0.938-3.412v-5.248
		c0-1.49,0.317-2.638,0.953-3.438c0.635-0.802,1.578-1.201,2.831-1.201c1.123,0,1.979,0.414,2.568,1.243
		c0.037,0.055,0.073,0.072,0.11,0.055c0.036-0.018,0.056-0.055,0.056-0.109v-0.635C159.563,142.212,159.596,142.135,159.659,142.068
		z M159.189,152.469c0.248-0.295,0.373-0.672,0.373-1.133v-4.668c0-0.46-0.125-0.838-0.373-1.133
		c-0.248-0.294-0.565-0.441-0.953-0.441c-0.387,0-0.699,0.147-0.938,0.441c-0.239,0.295-0.358,0.673-0.358,1.133v4.668
		c0,0.461,0.119,0.838,0.358,1.133s0.554,0.441,0.938,0.441C158.623,152.91,158.941,152.764,159.189,152.469z"/>
</g>
<g enable-background="new    ">
	<path fill="#FFFFFF" d="M15.088,176.534l-2.704-12.778l-0.019-0.076c0-0.113,0.069-0.17,0.208-0.17h2.438
		c0.151,0,0.233,0.069,0.246,0.208l1.304,8.317c0.013,0.051,0.031,0.076,0.057,0.076c0.026,0,0.044-0.025,0.057-0.076l1.267-8.317
		c0.013-0.139,0.095-0.208,0.246-0.208h2.363c0.164,0,0.227,0.082,0.189,0.246l-2.722,12.778c-0.025,0.139-0.107,0.208-0.246,0.208
		h-2.438C15.194,176.742,15.113,176.673,15.088,176.534z"/>
	<path fill="#FFFFFF" d="M21.789,176.043c-0.636-0.566-0.955-1.343-0.955-2.324v-3.668c0-0.957,0.321-1.727,0.964-2.307
		c0.643-0.579,1.518-0.869,2.627-0.869c1.122,0,2.003,0.29,2.646,0.869c0.643,0.58,0.964,1.349,0.964,2.307v3.668
		c0,0.981-0.318,1.758-0.955,2.324c-0.637,0.566-1.521,0.852-2.656,0.852C23.304,176.895,22.425,176.609,21.789,176.043z
		 M25.106,174.285c0.177-0.202,0.265-0.46,0.265-0.775v-3.271c0-0.313-0.088-0.572-0.265-0.773c-0.176-0.201-0.403-0.303-0.68-0.303
		c-0.277,0-0.501,0.102-0.671,0.303s-0.255,0.46-0.255,0.773v3.271c0,0.315,0.085,0.573,0.255,0.775
		c0.17,0.201,0.394,0.302,0.671,0.302C24.703,174.587,24.93,174.486,25.106,174.285z"/>
	<path fill="#FFFFFF" d="M34.463,167.102c0.101,0.063,0.139,0.157,0.114,0.283l-0.359,2.213c-0.013,0.139-0.101,0.188-0.265,0.15
		c-0.139-0.051-0.309-0.076-0.51-0.076c-0.189,0-0.353,0.025-0.492,0.076c-0.29,0.051-0.523,0.225-0.699,0.52
		c-0.177,0.297-0.265,0.641-0.265,1.03v5.198c0,0.063-0.022,0.117-0.066,0.161s-0.098,0.065-0.161,0.065h-2.211
		c-0.063,0-0.117-0.021-0.161-0.065c-0.044-0.044-0.066-0.099-0.066-0.161v-9.243c0-0.063,0.022-0.116,0.066-0.161
		c0.044-0.044,0.097-0.064,0.161-0.064h2.211c0.063,0,0.117,0.021,0.161,0.064c0.044,0.045,0.066,0.098,0.066,0.161v0.737
		c0,0.05,0.009,0.078,0.028,0.085c0.019,0.006,0.041-0.011,0.066-0.048c0.34-0.743,0.87-1.115,1.588-1.115
		C34.009,166.912,34.274,166.977,34.463,167.102z"/>
	<path fill="#FFFFFF" d="M35.437,176.676c-0.044-0.044-0.066-0.098-0.066-0.16v-12.779c0-0.063,0.022-0.115,0.066-0.159
		s0.097-0.065,0.161-0.065h2.211c0.063,0,0.117,0.021,0.161,0.065c0.044,0.044,0.066,0.098,0.066,0.159v12.779
		c0,0.063-0.022,0.116-0.066,0.16c-0.044,0.045-0.098,0.066-0.161,0.066h-2.211C35.534,176.742,35.48,176.721,35.437,176.676z"/>
	<path fill="#FFFFFF" d="M45.521,167.744c0.668,0.58,1.002,1.342,1.002,2.287v6.484c0,0.063-0.022,0.115-0.066,0.159
		c-0.044,0.046-0.098,0.066-0.161,0.066h-2.212c-0.063,0-0.117-0.021-0.161-0.066c-0.044-0.044-0.066-0.098-0.066-0.159V176.1
		c0-0.037-0.013-0.063-0.038-0.076c-0.025-0.012-0.05,0-0.076,0.039c-0.416,0.528-1.059,0.807-1.928,0.832
		c-0.731,0-1.365-0.201-1.9-0.605c-0.536-0.402-0.804-1.172-0.804-2.307c0-1.172,0.325-1.979,0.974-2.42
		c0.649-0.439,1.585-0.66,2.807-0.66h0.87c0.063,0,0.095-0.031,0.095-0.096v-0.473c0-0.34-0.092-0.62-0.274-0.841
		c-0.182-0.222-0.413-0.331-0.69-0.331c-0.214,0-0.394,0.066-0.539,0.197c-0.145,0.134-0.236,0.318-0.274,0.559
		c-0.013,0.15-0.095,0.227-0.246,0.227l-2.268-0.019c-0.151,0-0.227-0.075-0.227-0.228c0.063-0.92,0.422-1.653,1.078-2.201
		c0.655-0.549,1.487-0.822,2.495-0.822C43.983,166.875,44.853,167.165,45.521,167.744z M43.508,174.54
		c0.233-0.194,0.35-0.457,0.35-0.784v-0.889c0-0.063-0.032-0.096-0.095-0.096h-0.775c-0.34,0-0.614,0.099-0.822,0.293
		c-0.208,0.195-0.312,0.463-0.312,0.805c0,0.314,0.079,0.555,0.236,0.718c0.157,0.164,0.369,0.246,0.633,0.246
		C43.013,174.833,43.275,174.734,43.508,174.54z"/>
	<path fill="#FFFFFF" d="M52.223,167.092c0.044-0.044,0.098-0.064,0.161-0.064h2.212c0.063,0,0.116,0.021,0.161,0.064
		c0.044,0.045,0.066,0.098,0.066,0.161v9.035c0,1.399-0.331,2.478-0.992,3.231c-0.662,0.758-1.85,1.135-3.563,1.135
		c-0.34,0-0.605-0.006-0.794-0.018c-0.151-0.014-0.227-0.096-0.227-0.246v-1.854c0-0.164,0.082-0.232,0.246-0.208
		c0.744,0.024,1.307-0.048,1.692-0.218c0.384-0.17,0.643-0.426,0.775-0.766c0.132-0.341,0.199-0.787,0.199-1.343
		c0-0.038-0.013-0.058-0.038-0.058s-0.05,0.02-0.076,0.058c-0.227,0.304-0.501,0.515-0.822,0.634
		c-0.321,0.119-0.633,0.18-0.936,0.18c-0.87,0-1.519-0.28-1.947-0.842c-0.428-0.561-0.643-1.338-0.643-2.334v-3.592
		c0-1.021,0.217-1.806,0.652-2.354c0.435-0.549,1.081-0.822,1.938-0.822c0.769,0,1.354,0.283,1.758,0.852
		c0.025,0.037,0.05,0.049,0.076,0.037c0.025-0.013,0.038-0.037,0.038-0.076v-0.435C52.157,167.189,52.178,167.137,52.223,167.092z
		 M51.901,174.209c0.17-0.201,0.255-0.46,0.255-0.773v-3.195c0-0.314-0.085-0.573-0.255-0.774c-0.17-0.202-0.388-0.303-0.652-0.303
		s-0.479,0.101-0.643,0.303c-0.164,0.201-0.246,0.46-0.246,0.774v3.195c0,0.313,0.082,0.572,0.246,0.773
		c0.164,0.202,0.378,0.303,0.643,0.303S51.731,174.411,51.901,174.209z"/>
	<path fill="#FFFFFF" d="M63.111,172.648c-0.044,0.045-0.098,0.066-0.161,0.066h-4.159c-0.063,0-0.094,0.031-0.094,0.096v0.698
		c0,0.315,0.085,0.576,0.255,0.784s0.388,0.313,0.652,0.313c0.239,0,0.435-0.078,0.586-0.235c0.151-0.158,0.252-0.356,0.303-0.597
		c0.038-0.125,0.12-0.188,0.246-0.188l2.174,0.114c0.063,0,0.116,0.021,0.161,0.064c0.044,0.045,0.06,0.104,0.047,0.18
		c-0.088,0.972-0.425,1.705-1.011,2.203s-1.421,0.746-2.505,0.746c-1.122,0-1.998-0.279-2.627-0.842
		c-0.63-0.561-0.945-1.339-0.945-2.334v-3.667c0-0.958,0.318-1.728,0.955-2.307c0.636-0.579,1.509-0.869,2.618-0.869
		s1.981,0.29,2.618,0.869c0.636,0.579,0.955,1.349,0.955,2.307v2.438C63.177,172.553,63.155,172.605,63.111,172.648z
		 M58.952,169.465c-0.17,0.201-0.255,0.46-0.255,0.773v0.738c0,0.063,0.031,0.094,0.094,0.094h1.626c0.063,0,0.094-0.03,0.094-0.094
		v-0.738c0-0.313-0.085-0.572-0.255-0.773s-0.388-0.303-0.652-0.303S59.122,169.264,58.952,169.465z"/>
	<path fill="#FFFFFF" d="M74.632,167.727c0.428,0.565,0.643,1.359,0.643,2.381v6.408c0,0.063-0.022,0.116-0.066,0.16
		c-0.044,0.045-0.098,0.066-0.161,0.066h-2.211c-0.063,0-0.117-0.021-0.161-0.066c-0.044-0.044-0.066-0.098-0.066-0.16v-6.199
		c0-0.366-0.073-0.649-0.217-0.852c-0.145-0.201-0.356-0.303-0.633-0.303c-0.29,0-0.514,0.104-0.671,0.313
		c-0.158,0.207-0.236,0.5-0.236,0.879v6.162c0,0.063-0.022,0.116-0.066,0.16c-0.044,0.045-0.098,0.066-0.161,0.066h-2.211
		c-0.063,0-0.117-0.021-0.161-0.066c-0.044-0.044-0.066-0.098-0.066-0.16v-12.779c0-0.063,0.022-0.115,0.066-0.159
		s0.097-0.065,0.161-0.065h2.211c0.063,0,0.117,0.021,0.161,0.065s0.066,0.098,0.066,0.159v3.877c0,0.037,0.016,0.057,0.047,0.057
		c0.031,0,0.072-0.025,0.123-0.076c0.403-0.479,0.964-0.718,1.683-0.718C73.561,166.875,74.204,167.158,74.632,167.727z"/>
	<path fill="#FFFFFF" d="M83.583,172.648c-0.044,0.045-0.098,0.066-0.161,0.066h-4.159c-0.063,0-0.094,0.031-0.094,0.096v0.698
		c0,0.315,0.085,0.576,0.255,0.784s0.388,0.313,0.652,0.313c0.239,0,0.435-0.078,0.586-0.235c0.151-0.158,0.252-0.356,0.303-0.597
		c0.038-0.125,0.12-0.188,0.246-0.188l2.174,0.114c0.063,0,0.116,0.021,0.161,0.064c0.044,0.045,0.06,0.104,0.047,0.18
		c-0.088,0.972-0.425,1.705-1.011,2.203s-1.421,0.746-2.505,0.746c-1.122,0-1.998-0.279-2.627-0.842
		c-0.63-0.561-0.945-1.339-0.945-2.334v-3.667c0-0.958,0.318-1.728,0.955-2.307c0.636-0.579,1.509-0.869,2.618-0.869
		s1.981,0.29,2.618,0.869c0.636,0.579,0.955,1.349,0.955,2.307v2.438C83.649,172.553,83.627,172.605,83.583,172.648z
		 M79.424,169.465c-0.17,0.201-0.255,0.46-0.255,0.773v0.738c0,0.063,0.031,0.094,0.094,0.094h1.626c0.063,0,0.094-0.03,0.094-0.094
		v-0.738c0-0.313-0.085-0.572-0.255-0.773s-0.388-0.303-0.652-0.303C79.812,169.162,79.594,169.264,79.424,169.465z"/>
	<path fill="#FFFFFF" d="M90.019,167.102c0.101,0.063,0.139,0.157,0.114,0.283l-0.359,2.213c-0.013,0.139-0.101,0.188-0.265,0.15
		c-0.139-0.051-0.309-0.076-0.51-0.076c-0.189,0-0.353,0.025-0.492,0.076c-0.29,0.051-0.523,0.225-0.699,0.52
		c-0.177,0.297-0.265,0.641-0.265,1.03v5.198c0,0.063-0.022,0.117-0.066,0.161s-0.098,0.065-0.161,0.065h-2.211
		c-0.063,0-0.117-0.021-0.161-0.065s-0.066-0.099-0.066-0.161v-9.243c0-0.063,0.022-0.116,0.066-0.161
		c0.044-0.044,0.097-0.064,0.161-0.064h2.211c0.063,0,0.117,0.021,0.161,0.064c0.044,0.045,0.066,0.098,0.066,0.161v0.737
		c0,0.05,0.009,0.078,0.028,0.085c0.019,0.006,0.041-0.011,0.066-0.048c0.34-0.743,0.87-1.115,1.588-1.115
		C89.565,166.912,89.83,166.977,90.019,167.102z"/>
	<path fill="#FFFFFF" d="M95.416,167.092c0.044-0.044,0.097-0.064,0.161-0.064h2.211c0.063,0,0.116,0.021,0.161,0.064
		c0.044,0.045,0.066,0.098,0.066,0.161v9.263c0,0.063-0.022,0.116-0.066,0.16c-0.045,0.045-0.098,0.066-0.161,0.066h-2.211
		c-0.063,0-0.117-0.021-0.161-0.066c-0.044-0.044-0.066-0.098-0.066-0.16v-0.32c0-0.039-0.013-0.063-0.038-0.076
		c-0.025-0.012-0.051,0-0.076,0.037c-0.189,0.266-0.425,0.451-0.709,0.559c-0.283,0.105-0.614,0.16-0.992,0.16
		c-0.756,0-1.38-0.229-1.872-0.689c-0.491-0.459-0.737-1.168-0.737-2.127v-6.805c0-0.063,0.022-0.115,0.066-0.16
		s0.097-0.066,0.161-0.066h2.211c0.063,0,0.117,0.021,0.161,0.066s0.066,0.098,0.066,0.16v6.219c0,0.366,0.072,0.646,0.217,0.842
		c0.145,0.197,0.356,0.293,0.633,0.293s0.498-0.106,0.662-0.32c0.164-0.215,0.246-0.504,0.246-0.87v-6.162
		C95.35,167.189,95.372,167.137,95.416,167.092z"/>
	<path fill="#FFFFFF" d="M105.896,167.727c0.43,0.565,0.644,1.359,0.644,2.381v6.408c0,0.063-0.021,0.116-0.065,0.16
		c-0.045,0.045-0.098,0.066-0.16,0.066h-2.213c-0.063,0-0.115-0.021-0.16-0.066c-0.045-0.044-0.065-0.098-0.065-0.16v-6.199
		c0-0.366-0.071-0.649-0.218-0.852c-0.145-0.201-0.355-0.303-0.633-0.303c-0.291,0-0.515,0.104-0.672,0.313
		c-0.158,0.207-0.235,0.5-0.235,0.879v6.162c0,0.063-0.022,0.116-0.066,0.16c-0.044,0.045-0.098,0.066-0.159,0.066H99.68
		c-0.063,0-0.117-0.021-0.16-0.066c-0.045-0.044-0.065-0.098-0.065-0.16v-9.263c0-0.063,0.021-0.116,0.065-0.161
		c0.043-0.044,0.098-0.064,0.16-0.064h2.213c0.063,0,0.115,0.021,0.159,0.064c0.044,0.045,0.066,0.098,0.066,0.161v0.358
		c0,0.037,0.016,0.058,0.047,0.058c0.03,0,0.071-0.024,0.123-0.075c0.403-0.48,0.964-0.719,1.683-0.719
		C104.826,166.875,105.469,167.158,105.896,167.727z"/>
	<path fill="#FFFFFF" d="M112.258,168.831c-0.044,0.044-0.098,0.065-0.16,0.065h-1.059c-0.063,0-0.096,0.031-0.096,0.096v4.498
		c0,0.365,0.07,0.617,0.209,0.757s0.347,0.2,0.623,0.188h0.133c0.063,0,0.115,0.021,0.16,0.065c0.045,0.045,0.066,0.099,0.066,0.161
		v1.854c0,0.063-0.021,0.115-0.066,0.159c-0.045,0.046-0.098,0.065-0.16,0.065h-0.756c-0.92,0-1.613-0.153-2.079-0.463
		c-0.468-0.309-0.7-0.897-0.7-1.768v-5.52c0-0.063-0.031-0.096-0.094-0.096h-0.625c-0.063,0-0.116-0.021-0.16-0.065
		s-0.064-0.099-0.064-0.16v-1.418c0-0.063,0.021-0.116,0.064-0.161c0.044-0.044,0.098-0.064,0.16-0.064h0.625
		c0.063,0,0.094-0.032,0.094-0.096v-2.099c0-0.063,0.021-0.116,0.066-0.16c0.043-0.045,0.098-0.065,0.16-0.065h2.117
		c0.063,0,0.116,0.021,0.16,0.065c0.044,0.044,0.066,0.099,0.066,0.16v2.099c0,0.063,0.031,0.096,0.095,0.096h1.06
		c0.063,0,0.115,0.021,0.159,0.064c0.044,0.045,0.066,0.098,0.066,0.161v1.418C112.324,168.732,112.302,168.787,112.258,168.831z"/>
	<path fill="#FFFFFF" d="M120.35,172.648c-0.045,0.045-0.099,0.066-0.16,0.066h-4.16c-0.063,0-0.094,0.031-0.094,0.096v0.698
		c0,0.315,0.086,0.576,0.256,0.784s0.388,0.313,0.651,0.313c0.239,0,0.435-0.078,0.587-0.235c0.149-0.158,0.252-0.356,0.301-0.597
		c0.039-0.125,0.121-0.188,0.246-0.188l2.174,0.114c0.063,0,0.117,0.021,0.162,0.064c0.043,0.045,0.06,0.104,0.047,0.18
		c-0.088,0.972-0.426,1.705-1.012,2.203s-1.422,0.746-2.505,0.746c-1.122,0-1.997-0.279-2.628-0.842
		c-0.631-0.561-0.945-1.339-0.945-2.334v-3.667c0-0.958,0.318-1.728,0.955-2.307s1.51-0.869,2.618-0.869s1.981,0.29,2.617,0.869
		c0.638,0.579,0.955,1.349,0.955,2.307v2.438C120.415,172.553,120.393,172.605,120.35,172.648z M116.189,169.465
		c-0.17,0.201-0.256,0.46-0.256,0.773v0.738c0,0.063,0.031,0.094,0.096,0.094h1.625c0.063,0,0.096-0.03,0.096-0.094v-0.738
		c0-0.313-0.085-0.572-0.256-0.773c-0.17-0.201-0.387-0.303-0.651-0.303C116.579,169.162,116.359,169.264,116.189,169.465z"/>
	<path fill="#FFFFFF" d="M126.785,167.102c0.102,0.063,0.139,0.157,0.113,0.283l-0.359,2.213c-0.014,0.139-0.102,0.188-0.266,0.15
		c-0.139-0.051-0.309-0.076-0.51-0.076c-0.188,0-0.354,0.025-0.492,0.076c-0.289,0.051-0.522,0.225-0.698,0.52
		c-0.177,0.297-0.265,0.641-0.265,1.03v5.198c0,0.063-0.022,0.117-0.066,0.161s-0.098,0.065-0.16,0.065h-2.212
		c-0.063,0-0.117-0.021-0.161-0.065s-0.064-0.099-0.064-0.161v-9.243c0-0.063,0.021-0.116,0.064-0.161
		c0.044-0.044,0.098-0.064,0.161-0.064h2.212c0.063,0,0.116,0.021,0.16,0.064c0.044,0.045,0.066,0.098,0.066,0.161v0.737
		c0,0.05,0.01,0.078,0.027,0.085c0.02,0.006,0.041-0.011,0.066-0.048c0.34-0.743,0.869-1.115,1.588-1.115
		C126.331,166.912,126.596,166.977,126.785,167.102z"/>
	<path fill="#FFFFFF" d="M127.759,176.676c-0.044-0.044-0.065-0.098-0.065-0.16v-12.779c0-0.063,0.021-0.115,0.065-0.159
		s0.099-0.065,0.16-0.065h2.212c0.063,0,0.116,0.021,0.161,0.065c0.044,0.044,0.065,0.098,0.065,0.159v12.779
		c0,0.063-0.021,0.116-0.065,0.16c-0.045,0.045-0.099,0.066-0.161,0.066h-2.212C127.855,176.742,127.803,176.721,127.759,176.676z"
		/>
	<path fill="#FFFFFF" d="M137.843,167.744c0.668,0.58,1.003,1.342,1.003,2.287v6.484c0,0.063-0.022,0.115-0.066,0.159
		c-0.045,0.046-0.098,0.066-0.16,0.066h-2.212c-0.063,0-0.116-0.021-0.16-0.066c-0.045-0.044-0.065-0.098-0.065-0.159V176.1
		c0-0.037-0.014-0.063-0.039-0.076c-0.024-0.012-0.051,0-0.074,0.039c-0.416,0.528-1.06,0.807-1.93,0.832
		c-0.729,0-1.363-0.201-1.898-0.605c-0.536-0.402-0.805-1.172-0.805-2.307c0-1.172,0.324-1.979,0.975-2.42
		c0.648-0.439,1.585-0.66,2.808-0.66h0.869c0.063,0,0.095-0.031,0.095-0.096v-0.473c0-0.34-0.092-0.62-0.273-0.841
		c-0.182-0.222-0.413-0.331-0.689-0.331c-0.215,0-0.395,0.066-0.539,0.197c-0.146,0.134-0.236,0.318-0.273,0.559
		c-0.014,0.15-0.096,0.227-0.245,0.227l-2.269-0.019c-0.151,0-0.229-0.075-0.229-0.228c0.063-0.92,0.423-1.653,1.078-2.201
		c0.654-0.549,1.486-0.822,2.494-0.822C136.307,166.875,137.175,167.165,137.843,167.744z M135.83,174.54
		c0.232-0.194,0.35-0.457,0.35-0.784v-0.889c0-0.063-0.031-0.096-0.095-0.096h-0.774c-0.34,0-0.615,0.099-0.822,0.293
		c-0.209,0.195-0.313,0.463-0.313,0.805c0,0.314,0.078,0.555,0.236,0.718c0.156,0.164,0.367,0.246,0.633,0.246
		C135.335,174.833,135.598,174.734,135.83,174.54z"/>
	<path fill="#FFFFFF" d="M144.525,163.576c0.043-0.045,0.098-0.066,0.16-0.066h2.211c0.063,0,0.117,0.022,0.162,0.066
		c0.043,0.044,0.064,0.098,0.064,0.16v12.779c0,0.063-0.021,0.115-0.064,0.159c-0.045,0.046-0.1,0.066-0.162,0.066h-2.211
		c-0.063,0-0.117-0.021-0.16-0.066c-0.045-0.044-0.066-0.098-0.066-0.159v-0.304c0-0.038-0.014-0.06-0.038-0.065
		s-0.05,0.004-0.075,0.027c-0.429,0.479-0.996,0.719-1.701,0.719c-0.869,0-1.524-0.279-1.965-0.842
		c-0.441-0.561-0.662-1.339-0.662-2.334v-3.667c0-1.021,0.224-1.806,0.67-2.354c0.447-0.549,1.101-0.821,1.957-0.821
		c0.276,0,0.566,0.054,0.869,0.16s0.58,0.3,0.832,0.577c0.025,0.025,0.051,0.033,0.075,0.027c0.024-0.007,0.038-0.027,0.038-0.066
		v-3.838C144.459,163.674,144.48,163.62,144.525,163.576z M144.156,174.379c0.164-0.15,0.265-0.354,0.303-0.604v-3.78
		c-0.038-0.252-0.139-0.454-0.303-0.604c-0.164-0.152-0.359-0.228-0.586-0.228c-0.266,0-0.479,0.101-0.644,0.303
		c-0.163,0.201-0.245,0.46-0.245,0.774v3.289c0,0.314,0.082,0.574,0.245,0.775c0.164,0.201,0.378,0.303,0.644,0.303
		C143.797,174.605,143.992,174.529,144.156,174.379z"/>
	<path fill="#FFFFFF" d="M155.508,172.648c-0.044,0.045-0.098,0.066-0.16,0.066h-4.158c-0.063,0-0.096,0.031-0.096,0.096v0.698
		c0,0.315,0.086,0.576,0.256,0.784s0.389,0.313,0.652,0.313c0.239,0,0.436-0.078,0.586-0.235c0.15-0.158,0.252-0.356,0.303-0.597
		c0.037-0.125,0.119-0.188,0.245-0.188l2.175,0.114c0.063,0,0.115,0.021,0.16,0.064c0.045,0.045,0.061,0.104,0.047,0.18
		c-0.088,0.972-0.426,1.705-1.012,2.203s-1.421,0.746-2.504,0.746c-1.122,0-1.998-0.279-2.628-0.842
		c-0.631-0.561-0.945-1.339-0.945-2.334v-3.667c0-0.958,0.318-1.728,0.955-2.307c0.636-0.579,1.509-0.869,2.618-0.869
		c1.107,0,1.98,0.29,2.617,0.869s0.955,1.349,0.955,2.307v2.438C155.574,172.553,155.552,172.605,155.508,172.648z M151.35,169.465
		c-0.17,0.201-0.256,0.46-0.256,0.773v0.738c0,0.063,0.031,0.094,0.096,0.094h1.625c0.063,0,0.096-0.03,0.096-0.094v-0.738
		c0-0.313-0.085-0.572-0.256-0.773c-0.17-0.201-0.387-0.303-0.651-0.303C151.739,169.162,151.52,169.264,151.35,169.465z"/>
	<path fill="#FFFFFF" d="M163.248,167.727c0.429,0.565,0.643,1.359,0.643,2.381v6.408c0,0.063-0.021,0.116-0.064,0.16
		c-0.045,0.045-0.098,0.066-0.161,0.066h-2.212c-0.063,0-0.116-0.021-0.16-0.066c-0.045-0.044-0.066-0.098-0.066-0.16v-6.199
		c0-0.366-0.072-0.649-0.218-0.852c-0.145-0.201-0.354-0.303-0.633-0.303c-0.29,0-0.515,0.104-0.671,0.313
		c-0.158,0.207-0.236,0.5-0.236,0.879v6.162c0,0.063-0.021,0.116-0.066,0.16c-0.043,0.045-0.098,0.066-0.159,0.066h-2.212
		c-0.063,0-0.117-0.021-0.161-0.066c-0.044-0.044-0.065-0.098-0.065-0.16v-9.263c0-0.063,0.021-0.116,0.065-0.161
		c0.044-0.044,0.098-0.064,0.161-0.064h2.212c0.063,0,0.116,0.021,0.159,0.064c0.045,0.045,0.066,0.098,0.066,0.161v0.358
		c0,0.037,0.016,0.058,0.047,0.058s0.072-0.024,0.123-0.075c0.403-0.48,0.965-0.719,1.684-0.719
		C162.177,166.875,162.818,167.158,163.248,167.727z"/>
</g>
<g>
	<path fill="#66D15F" d="M195.624,108.043c0-12.85-10.413-23.265-23.262-23.265c-12.847,0-23.261,10.416-23.261,23.265
		c0,12.851,10.414,23.265,23.261,23.265C185.211,131.308,195.624,120.894,195.624,108.043z"/>
	<path fill="#53BC77" d="M186.55,89.606c3.028,3.928,4.829,8.848,4.829,14.189c0,12.85-10.416,23.267-23.263,23.267
		c-5.341,0-10.259-1.803-14.188-4.828c4.254,5.518,10.929,9.074,18.434,9.074c12.849,0,23.262-10.414,23.262-23.265
		C195.624,100.535,192.067,93.86,186.55,89.606z"/>
	<path fill="#D4FFDF" d="M177.605,106.739l-1.886,1.887v-9.075c0-1.857-1.503-3.361-3.359-3.361s-3.357,1.504-3.357,3.361v9.157
		l-1.88-1.879c-1.312-1.312-3.438-1.312-4.751,0c-1.311,1.312-1.311,3.441,0,4.752l5.197,5.197l1.959,1.96
		c1.542,1.541,4.039,1.541,5.582,0l1.96-1.96l5.286-5.289c1.308-1.308,1.308-3.429,0-4.736l-0.014-0.015
		C181.033,105.431,178.914,105.431,177.605,106.739z"/>
	<g>
		<path fill="#B1FFC5" d="M173.021,99.551v8.893c0,0.982,1.188,1.477,1.885,0.78c0.246-0.246,0.521-0.445,0.813-0.599v-9.074
			c0-1.857-1.503-3.361-3.359-3.361c-0.479,0-0.936,0.103-1.348,0.283C172.193,96.994,173.021,98.175,173.021,99.551z"/>
		<path fill="#B1FFC5" d="M182.356,106.754l-0.014-0.015c-1.005-1.005-2.49-1.236-3.719-0.696c0.37,0.163,0.716,0.393,1.019,0.696
			l0.014,0.015c1.309,1.307,1.309,3.429,0,4.736l-5.286,5.289l-1.961,1.96c-0.421,0.422-0.913,0.728-1.439,0.917
			c1.396,0.508,3.021,0.202,4.141-0.917l1.96-1.96l5.286-5.289C183.664,110.183,183.664,108.061,182.356,106.754z"/>
	</g>
</g>
</svg>
