<svg id="Layer_1" enable-background="new 0 0 50 50" height="512" viewBox="0 0 50 50" width="512" xmlns="http://www.w3.org/2000/svg"><g><path d="m49.0066 16.8519c0 .8868-.8393 1.6152-1.8369 1.6152h-7.1738c-1.0135 0-1.8528-.7284-1.8528-1.6152 0-.7602.5701-1.3936 1.3777-1.5677-.326-.9781.8391-2.1144 2.0745-1.8053.6712-1.417 2.8784-1.3192 3.4205.0159.2217-.0793.4593-.1426.6968-.1426.9442 0 1.8644.6932 1.5995 1.8845.9503.0633 1.6945.76 1.6945 1.6152z" fill="#eeeded"/><path d="m13.9066 10.4422c0 1.06-1 1.92-2.18 1.92h-8.52c-1.2 0-2.2-.86-2.2-1.92 0-.9.68-1.65 1.64-1.86-.4107-1.1304 1.0214-2.5234 2.46-2.14.8239-1.7204 3.4506-1.5036 4.06.02 1.7178-.5948 3.0696.5833 2.72 2.07 1.13.07 2.02.9 2.02 1.91z" fill="#eeeded"/><path d="m4.639 23.937h11.331v16.071h-11.331z" fill="#fccc67"/><path d="m18.6236 23.4675h-16.6388l8.3198-3.6821z" fill="#d25c59"/><path d="m1.985 23.468h16.533v.47h-16.533z" fill="#bb302f"/><path d="m34 23.937h11.331v16.071h-11.331z" fill="#fccc67"/><path d="m47.9848 23.4675h-16.6388l8.3198-3.6821z" fill="#d25c59"/><path d="m31.346 23.468h16.533v.47h-16.533z" fill="#bb302f"/><path d="m16.718 23.468h16.533v.47h-16.533z" fill="#bb302f"/><path d="m15.969 23.934h18.03v16.07h-18.03z" fill="#eeeded"/><path d="m42.6346 23.4675h-35.2996l9.3833-4.6489h16.533z" fill="#ee7373"/><g><g><path d="m7.68 25.99h5.249v4.401h-5.249z" fill="#a77a4e"/><path d="m8.401 25.762h3.807v4.856h-3.807z" fill="#fff"/><g fill="#676767"><g><path d="m8.782 26.117h1.136v.924h-1.136z"/><path d="m10.691 26.117h1.136v.924h-1.136z"/></g><g><path d="m8.782 27.191h1.136v.924h-1.136z"/><path d="m10.691 27.191h1.136v.924h-1.136z"/></g><g><path d="m8.782 28.265h1.136v.924h-1.136z"/><path d="m10.691 28.265h1.136v.924h-1.136z"/></g><g><path d="m8.782 29.339h1.136v.924h-1.136z"/><path d="m10.691 29.339h1.136v.924h-1.136z"/></g></g></g><g><path d="m7.68 33.555h5.249v4.401h-5.249z" fill="#a77a4e"/><path d="m8.401 33.328h3.807v4.856h-3.807z" fill="#fff"/><g fill="#676767"><g><path d="m8.782 33.683h1.136v.924h-1.136z"/><path d="m10.691 33.683h1.136v.924h-1.136z"/></g><g><path d="m8.782 34.757h1.136v.924h-1.136z"/><path d="m10.691 34.757h1.136v.924h-1.136z"/></g><g><path d="m8.782 35.831h1.136v.924h-1.136z"/><path d="m10.691 35.831h1.136v.924h-1.136z"/></g><g><path d="m8.782 36.905h1.136v.924h-1.136z"/><path d="m10.691 36.905h1.136v.924h-1.136z"/></g></g></g></g><g><g><path d="m37.041 25.99h5.249v4.401h-5.249z" fill="#a77a4e"/><path d="m37.762 25.762h3.807v4.856h-3.807z" fill="#fff"/><g fill="#676767"><g><path d="m38.143 26.117h1.136v.924h-1.136z"/><path d="m40.052 26.117h1.136v.924h-1.136z"/></g><g><path d="m38.143 27.191h1.136v.924h-1.136z"/><path d="m40.052 27.191h1.136v.924h-1.136z"/></g><g><path d="m38.143 28.265h1.136v.924h-1.136z"/><path d="m40.052 28.265h1.136v.924h-1.136z"/></g><g><path d="m38.143 29.339h1.136v.924h-1.136z"/><path d="m40.052 29.339h1.136v.924h-1.136z"/></g></g></g><g><path d="m37.041 33.555h5.249v4.401h-5.249z" fill="#a77a4e"/><path d="m37.762 33.328h3.807v4.856h-3.807z" fill="#fff"/><g fill="#676767"><g><path d="m38.143 33.683h1.136v.924h-1.136z"/><path d="m40.052 33.683h1.136v.924h-1.136z"/></g><g><path d="m38.143 34.757h1.136v.924h-1.136z"/><path d="m40.052 34.757h1.136v.924h-1.136z"/></g><g><path d="m38.143 35.831h1.136v.924h-1.136z"/><path d="m40.052 35.831h1.136v.924h-1.136z"/></g><g><path d="m38.143 36.905h1.136v.924h-1.136z"/><path d="m40.052 36.905h1.136v.924h-1.136z"/></g></g></g></g><path d="m22.408 31.576h5.154v8.433h-5.154z" fill="#676767"/><path d="m22.769 32.065h4.429v7.939h-4.429z" fill="#ee7373"/><path d="m23.572 32.667h1.106v2.943h-1.106z" fill="#72b0e0"/><path d="m24.7176 35.6492h-1.1844v-3.0212h1.1844zm-1.1064-.078h1.0283v-2.8651h-1.0283z" fill="#fff"/><path d="m25.291 32.667h1.106v2.943h-1.106z" fill="#72b0e0"/><path d="m26.4359 35.6492h-1.1844v-3.0212h1.1844zm-1.1063-.078h1.0283v-2.8651h-1.0283z" fill="#fff"/><path d="m24.7306 35.6622h-1.2104v-3.0472h1.2104zm-1.1064-.104h1.0023v-2.8391h-1.0023z" fill="#fff"/><path d="m26.4489 35.6622h-1.2104v-3.0472h1.2104zm-1.1063-.104h1.0023v-2.8391h-1.0023z" fill="#fff"/><path d="m26.6199 37.084c0 .15-.12.28-.27.28-.16 0-.28-.13-.28-.28s.12-.28.28-.28c.15 0 .27.1299.27.28z" fill="#fff"/><path d="m17.15 25.47h2.084v3.973h-2.084z" fill="#4a8bc9"/><path d="m19.172 25.47h2.084v3.973h-2.084z" fill="#4a8bc9"/><path d="m19.2948 29.504h-2.2062v-4.0953h2.2062zm-2.0837-.1225h1.9613v-3.8505h-1.9613z" fill="#fff"/><path d="m21.3173 29.504h-2.2062v-4.0953h2.2062zm-2.0837-.1225h1.9613v-3.8505h-1.9613z" fill="#fff"/><path d="m17.15 27.395h2.084v.122h-2.084z" fill="#fff"/><path d="m19.172 27.395h2.084v.122h-2.084z" fill="#fff"/><path d="m22.918 25.443h2.084v3.973h-2.084z" fill="#4a8bc9"/><path d="m24.941 25.443h2.084v3.973h-2.084z" fill="#4a8bc9"/><path d="m25.063 29.4768h-2.2062v-4.0953h2.2062zm-2.0837-.1225h1.9613v-3.8505h-1.9613z" fill="#fff"/><path d="m27.0855 29.4768h-2.2062v-4.0953h2.2062zm-2.0837-.1225h1.9613v-3.8505h-1.9613z" fill="#fff"/><path d="m22.918 27.368h2.084v.122h-2.084z" fill="#fff"/><path d="m24.941 27.368h2.084v.122h-2.084z" fill="#fff"/><path d="m28.714 25.443h2.084v3.973h-2.084z" fill="#4a8bc9"/><path d="m30.736 25.443h2.084v3.973h-2.084z" fill="#4a8bc9"/><path d="m30.8585 29.4768h-2.2062v-4.0953h2.2062zm-2.0837-.1225h1.9613v-3.8505h-1.9613z" fill="#fff"/><path d="m32.881 29.4768h-2.2062v-4.0953h2.2062zm-2.0837-.1225h1.9613v-3.8505h-1.9613z" fill="#fff"/><path d="m28.714 27.368h2.084v.122h-2.084z" fill="#fff"/><path d="m30.736 27.368h2.084v.122h-2.084z" fill="#fff"/><path d="m48.9575 40.3917v3.993c0 .2106-.1707.3813-.3813.3813h-47.2015c-.2106 0-.3813-.1707-.3813-.3813v-3.993c0-.2106.1707-.3813.3813-.3813h47.2015c.2105 0 .3813.1707.3813.3813z" fill="#9ccc65"/><path d="m5.722 40.1778c-.1809 0-.3393-.0735-.4411-.1809-.1222.0444-.3382.0431-.5258-.0452-.4981.4612-1.4306.1671-1.4306-.4354 0-.5787.8521-.8692 1.3684-.4919.3856-.2121.8638-.0729 1.0234.2375h.0057c.7515-.0001.7455.9159 0 .9159z" fill="#8ec163"/><path d="m6.2734 39.7972c-.0577.3925-.6773.5557-1.0008.2545-.1027.0137-.2918.0704-.5089-.0226-.5296.4212-1.4418.1071-1.4418-.4976.0545.5891.949.8163 1.3853.3675l.0339-.0339.0452.0226c.2335.1257.3999.0561.5202.0622l.0113.0113c.2687.3153.8646.2114.9556-.164z" fill="#7ba452"/><path d="m46.4757 39.7198c0 .4293-.6744.6277-1.0065.2771-.1222.0444-.3382.0431-.5258-.0452-.4981.4612-1.4306.1671-1.4306-.4354 0-.5787.8521-.8692 1.3684-.4919.3856-.2121.8638-.0729 1.0234.2375h.0057c.3166-.0001.5654.2035.5654.4579z" fill="#8ec163"/><path d="m46.4672 39.7972c-.0702.3976-.6861.5527-1.0065.2545-.1023.0128-.2958.0687-.5089-.0226-.5427.4316-1.468.0901-1.4362-.5146.0213.5981.9372.8396 1.3797.3845l.0339-.0339c.3792.144.4309.1115.5654.0848l.0113.0113c.267.3132.8581.2146.9613-.164z" fill="#7ba452"/><path d="m3.088 38.104h.339v1.907h-.339z" fill="#a77a4e"/><path d="m3.7717 36.9843c0 .7709-.232 1.3926-.5104 1.3926-.3908 0-.5182-.9549-.5182-1.3926 0-.7709.232-1.4009.5182-1.4009.0077 0 .0154 0 .0232.0082.2707.0249.4872.6466.4872 1.3927z" fill="#8ec163"/><path d="m3.6248 36.9013c0 .5715-.2197 1.5608-.5491 1.3843-.1933-.1989-.3325-.7046-.3325-1.3013 0-.7709.232-1.4009.5182-1.4009.0077 0 .0154 0 .0232.0082.1933.1824.3402.7047.3402 1.3097z" fill="#9ccc65"/><path d="m1.346 38.104h.339v1.907h-.339z" fill="#a77a4e"/><path d="m2.0297 36.9843c0 .7441-.3032 1.7224-.696 1.3013-.1933-.1989-.3325-.7046-.3325-1.3013 0-.7709.232-1.4009.5182-1.4009.0077 0 .0154 0 .0232.0082.2706.0249.4871.6466.4871 1.3927z" fill="#8ec163"/><path d="m1.8827 36.9013c0 .7709-.232 1.3926-.5104 1.3926-.0155 0-.0232 0-.0387-.0083-.1933-.1989-.3325-.7046-.3325-1.3013 0-.7709.232-1.4009.5182-1.4009.0077 0 .0154 0 .0232.0082.1933.1824.3402.7047.3402 1.3097z" fill="#9ccc65"/><path d="m2.075 37.515h.623v2.495h-.623z" fill="#a77a4e"/><path d="m3.3316 36.0502c0 1.0088-.4264 1.8224-.938 1.8224-.6523 0-.9523-1.0874-.9523-1.8224 0-1.0089.4265-1.8333.9523-1.8333.0141 0 .0284 0 .0426.0108.4975.0326.8954.8462.8954 1.8225z" fill="#7ba452"/><path d="m3.0616 35.9417c0 1.0088-.4264 1.8224-.938 1.8224-.0285 0-.0427 0-.0711-.0109-.3553-.2603-.6111-.922-.6111-1.703 0-1.0089.4265-1.8333.9523-1.8333.0141 0 .0284 0 .0426.0108.3552.2387.6253.9221.6253 1.714z" fill="#8ec163"/><path d="m48.293 38.104h.339v1.907h-.339z" fill="#a77a4e"/><path d="m48.9762 36.9843c0 .7709-.232 1.3926-.5104 1.3926-.0619 0-.1315-.0332-.1856-.0912-.1933-.1989-.3325-.7046-.3325-1.3013 0-.7709.232-1.4009.5182-1.4009.0077 0 .0154 0 .0232.0082.2706.0248.4871.6465.4871 1.3926z" fill="#8ec163"/><path d="m48.8293 36.9013c0 .7709-.232 1.3926-.5104 1.3926-.0155 0-.0232 0-.0387-.0083-.1933-.1989-.3325-.7046-.3325-1.3013 0-.7709.232-1.4009.5182-1.4009.0077 0 .0154 0 .0232.0082.1933.1824.3402.7047.3402 1.3097z" fill="#9ccc65"/><path d="m46.55 38.104h.339v1.907h-.339z" fill="#a77a4e"/><path d="m47.2342 36.9843c0 1.8803-1.0285 1.8227-1.0285 0 0-.7709.232-1.4009.5182-1.4009.0077 0 .0154 0 .0232.0082.2706.0249.4871.6466.4871 1.3927z" fill="#8ec163"/><path d="m47.0872 36.9013c0 .5715-.2197 1.5608-.5491 1.3843-.1933-.1989-.3325-.7046-.3325-1.3013 0-.7709.232-1.4009.5182-1.4009.0077 0 .0154 0 .0232.0082.1933.1824.3402.7047.3402 1.3097z" fill="#9ccc65"/><path d="m47.28 37.515h.623v2.495h-.623z" fill="#a77a4e"/><path d="m48.5361 36.0502c0 1.0088-.4264 1.8224-.938 1.8224-.1137 0-.2417-.0434-.3412-.1194-.3553-.2603-.6111-.922-.6111-1.703 0-1.0089.4265-1.8333.9523-1.8333.0141 0 .0284 0 .0426.0108.4975.0326.8954.8462.8954 1.8225z" fill="#7ba452"/><path d="m48.2661 35.9417c0 1.0088-.4264 1.8224-.938 1.8224-.0285 0-.0427 0-.0711-.0109-.3553-.2603-.6111-.922-.6111-1.703 0-1.0089.4265-1.8333.9523-1.8333.0141 0 .0284 0 .0426.0108.3552.2387.6253.9221.6253 1.714z" fill="#8ec163"/><path d="m34.975 38.763h1.441v.752h-1.441z" fill="#ebb760"/><path d="m13.186 38.763h1.441v.752h-1.441z" fill="#ebb760"/><path d="m42.919 31.2h1.441v.752h-1.441z" fill="#ebb760"/><path d="m5.301 31.2h1.441v.752h-1.441z" fill="#ebb760"/><path d="m35.937 24.691h1.441v.752h-1.441z" fill="#ebb760"/><path d="m12.466 24.691h1.441v.752h-1.441z" fill="#ebb760"/><path d="m29.3726 29.3543h-.5978l2.8149-3.8504h.5978z" fill="#fff" opacity=".3"/><path d="m29.8778 29.3543h-.2989l2.815-3.8504h.2989z" fill="#fff" opacity=".3"/><g fill="#fff"><path d="m23.5794 29.3543h-.5978l2.815-3.8504h.5978z" opacity=".3"/><path d="m24.0847 29.3543h-.2989l2.8149-3.8504h.2989z" opacity=".3"/></g><g fill="#fff"><path d="m17.7863 29.3543h-.5979l2.815-3.8504h.5978z" opacity=".3"/><path d="m18.2915 29.3543h-.2989l2.815-3.8504h.2989z" opacity=".3"/></g><path d="m17.15 33.05h2.084v3.973h-2.084z" fill="#4a8bc9"/><path d="m19.172 33.05h2.084v3.973h-2.084z" fill="#4a8bc9"/><path d="m19.2948 37.084h-2.2062v-4.0953h2.2062zm-2.0837-.1224h1.9613v-3.8505h-1.9613z" fill="#fff"/><path d="m21.3173 37.084h-2.2062v-4.0953h2.2062zm-2.0837-.1224h1.9613v-3.8505h-1.9613z" fill="#fff"/><path d="m17.15 34.975h2.084v.122h-2.084z" fill="#fff"/><path d="m19.172 34.975h2.084v.122h-2.084z" fill="#fff"/><path d="m28.714 33.023h2.084v3.973h-2.084z" fill="#4a8bc9"/><path d="m30.736 33.023h2.084v3.973h-2.084z" fill="#4a8bc9"/><g fill="#fff"><path d="m30.8585 37.0568h-2.2062v-4.0953h2.2062zm-2.0837-.1224h1.9613v-3.8505h-1.9613z"/><path d="m32.881 37.0568h-2.2062v-4.0953h2.2062zm-2.0837-.1224h1.9613v-3.8505h-1.9613z"/><path d="m28.714 34.948h2.084v.122h-2.084z"/><path d="m30.736 34.948h2.084v.122h-2.084z"/><path d="m29.3726 36.9344h-.5978l2.8149-3.8505h.5978z" opacity=".3"/><path d="m29.8778 36.9344h-.2989l2.815-3.8505h.2989z" opacity=".3"/><g><path d="m17.7863 36.9344h-.5979l2.815-3.8505h.5978z" opacity=".3"/><path d="m18.2915 36.9344h-.2989l2.815-3.8505h.2989z" opacity=".3"/></g></g></g></svg>