<svg id="flat" height="512" viewBox="0 0 512 512" width="512" xmlns="http://www.w3.org/2000/svg"><path d="m488 88v-32a32 32 0 0 0 -32-32h-40v64z" fill="#4976f2"/><path d="m488 56v352a32 32 0 0 1 -32 32h-432v-320a32 32 0 0 1 32-32h400a32 32 0 0 0 32-32z" fill="#548aff"/><g fill="#7dafff"><path d="m24 456a32 32 0 0 0 32 32h32v-336h-32a32 32 0 0 1 -32-32z"/><path d="m216 176h16v16h-16z"/><path d="m168 312h16v16h-16z"/><path d="m168 280h16v16h-16z"/><path d="m200 280h16v16h-16z"/><path d="m464 160v-16h-24v-24h-16v24h-272v-24h-16v24h-24v16h24v208h-24v16h24v24h16v-24h88v-16h-88v-104h96v24h16v-56h-16v16h-56v-88h56v48h16v-48h24v80a8.00008 8.00008 0 0 0 8 8h24v24h-32v16h40a8.00008 8.00008 0 0 0 8-8v-40a8.00008 8.00008 0 0 0 -8-8h-24v-72h120v208h-99.47l-21.66968-36.11621a8.00059 8.00059 0 0 0 -11.29785-2.54053l-4.03125 2.6875a52.73921 52.73921 0 0 0 -23.53122 43.96924 8.00008 8.00008 0 0 0 8 8h152v24h16v-24h24v-16h-24v-208zm-288 88h-24v-88h24zm104.874 120a36.73235 36.73235 0 0 1 12.67-20.54395l12.32612 20.54395z"/></g></svg>