<svg id="Icon" height="512" viewBox="0 0 64 64" width="512" xmlns="http://www.w3.org/2000/svg"><circle cx="32" cy="32" fill="#fdd837" r="16"/><path d="m18 34c0-8.82227 7.17773-16 16-16 3.90295 0 7.48053 1.40875 10.26068 3.73932-2.93738-3.50409-7.34137-5.73932-12.26068-5.73932-8.82227 0-16 7.17773-16 16 0 4.91931 2.23523 9.3233 5.73932 12.26068-2.33057-2.78015-3.73932-6.35773-3.73932-10.26068z" fill="#f9bf2c"/><circle cx="32" cy="32" fill="#f9bf2c" r="12"/><path d="m32 31c-1.10254 0-2-.89746-2-2s.89746-2 2-2 2 .89746 2 2c0 .55273.44727 1 1 1s1-.44727 1-1c0-1.8587-1.27948-3.41095-3-3.85803v-1.17126c0-.55273-.44727-1-1-1s-1 .44727-1 1v1.17126c-1.72052.44708-3 1.99933-3 3.85803 0 2.20605 1.79395 4 4 4 1.10254 0 2 .89746 2 2s-.89746 2-2 2-2-.89746-2-2c0-.55273-.44727-1-1-1s-1 .44727-1 1c0 1.8587 1.27948 3.41095 3 3.85803v1.17126c0 .55273.44727 1 1 1s1-.44727 1-1v-1.17126c1.72052-.44708 3-1.99933 3-3.85803 0-2.20605-1.79395-4-4-4z" fill="#fef59f"/><path d="m56.31249 47.51166c3.04261-4.56982 4.68751-9.9577 4.68751-15.51166 0-14.29536-10.768-26.12267-24.61909-27.79703-1.79388-.21685-3.38091 1.17633-3.38091 2.98328 0 1.50985 1.12273 2.79027 2.62195 2.96909 10.8995 1.30011 19.37805 10.60087 19.37805 21.84466 0 3.95349-1.06818 7.79596-3.04498 11.15417l-1.19867-1.19867c-1.05131-1.05131-2.84144-.62871-3.31159.78177l-3.97767 11.93313c-.52116 1.5635.9663 3.05096 2.5298 2.52979l11.93309-3.97772c1.41047-.47016 1.83306-2.26029.78176-3.31159l-2.39924-2.39923z" fill="#d32e2e"/><path d="m56.31249 47.51166c3.04261-4.56982 4.68751-9.9577 4.68751-15.51166 0-14.29535-10.76801-26.12268-24.61908-27.79706-.5401-.06531-1.05426.02942-1.51917.22339 13.12958 2.30859 23.13824 13.79242 23.13824 27.57367 0 5.55396-1.6449 10.94183-4.68751 15.51166l2.39924 2.39923c1.05133 1.05127.62872 2.84143-.78174 3.31158l-10.82965 3.60986c.49799.41345 1.18439.60529 1.89655.36786l11.93311-3.97772c1.41046-.47015 1.83307-2.26031.78174-3.31158z" fill="#b72025"/><path d="m7.68749 16.48834c-3.04259 4.56982-4.68749 9.9577-4.68749 15.51166 0 14.29536 10.768 26.12267 24.61909 27.79703 1.79388.21685 3.38091-1.17633 3.38091-2.98328 0-1.50985-1.12273-2.79027-2.62195-2.96909-10.8995-1.30011-19.37805-10.60087-19.37805-21.84466 0-3.95349 1.06818-7.79596 3.04498-11.15417l1.19867 1.19867c1.05131 1.05131 2.84144.62871 3.31159-.78177l3.97767-11.93313c.52116-1.5635-.9663-3.05096-2.5298-2.52979l-11.93309 3.97772c-1.41047.47016-1.83306 2.26029-.78176 3.31159l2.39922 2.39923z" fill="#9ccc65"/><path d="m6 32c0-5.55396 1.6449-10.94183 4.68749-15.51166l-2.39922-2.39923c-1.05133-1.05133-.62872-2.84143.78174-3.31158l10.82965-3.60992c-.49799-.41351-1.18433-.60522-1.89655-.3678l-11.93311 3.97772c-1.41046.47015-1.83307 2.26025-.78174 3.31158l2.39922 2.39923c-3.04259 4.56982-4.68749 9.9577-4.68749 15.51166 0 14.29535 10.76801 26.12268 24.61908 27.797.5401.06531 1.05426-.02942 1.51917-.22339-13.12958-2.30853-23.13824-13.79236-23.13824-27.57361z" fill="#7cb342"/></svg>