<svg height="512pt" viewBox="0 0 512 512" width="512pt" xmlns="http://www.w3.org/2000/svg"><path d="m512 256c0 141.386719-114.613281 256-256 256s-256-114.613281-256-256 114.613281-256 256-256 256 114.613281 256 256zm0 0" fill="#6dcd01"/><path d="m411.3125 196.6875-48-48c-6.25-6.246094-16.375-6.246094-22.625 0l-116.6875 116.679688-52.6875-52.679688c-6.25-6.246094-16.375-6.246094-22.625 0l-48 48c-6.246094 6.25-6.246094 16.375 0 22.625l96 96c3 3 7.070312 4.6875 11.3125 4.6875h32c4.242188 0 8.3125-1.6875 11.3125-4.6875l160-160c6.246094-6.25 6.246094-16.375 0-22.625zm0 0" fill="#fff"/></svg>