<svg height="24" viewBox="0 0 24 24" width="24" xmlns="http://www.w3.org/2000/svg" xmlns:sketch="http://www.bohemiancoding.com/sketch/ns"><g id="Page-1" fill="none" fill-rule="evenodd"><g id="cloud_upload_arrow"><path id="cloud_upload" d="m3.75000001 19.9588634c-2.12850001-.3466593-3.75000001-2.1440441-3.75000001-4.3092082 0-1.7180028 1.02075-3.2044138 2.50575001-3.9181242-.16425-.3604965-.25575-.7595917-.25575-1.1798068 0-1.60876142 1.34325-2.91310351 3-2.91310351.88274999 0 1.67699999.3706924 2.22599999.95986757 1.16025-2.29406897 3.5895-3.87297102 6.399-3.87297102 3.89475 0 7.0605 3.03472554 7.1235 6.80282486 1.749.599371 3.0015 2.2183282 3.0015 4.1213131 0 2.1651641-1.6215 3.9625489-3.75 4.3092082v.0604469h-.75-14.99999999z" fill="#3498db"/><path id="Path" d="m8 15.5h1.9954834v4.5h3.991333v-4.5h2.0131836l-4-4.5z" fill="#ecf0f1"/></g></g></svg>