<svg id="Layer_1" enable-background="new 0 0 510 510" height="512" viewBox="0 0 510 510" width="512" xmlns="http://www.w3.org/2000/svg"><g><g><path d="m255 0c-98.131 0-158.58 55.352-158.747 55.445 0 0-2.513 3.137-2.983 5.222-3.818 16.948-7.385 39.663-7.385 56.238 0 140.833 118.763 254.972 259.596 254.972 54.231 0 114.568-25.992 154.949-57.243.903-.699 3.769-5.396 3.769-5.396.178-1.087 5.8-23.477 5.8-54.239.001-140.832-114.166-254.999-254.999-254.999z" fill="#afe6ff"/></g><path d="m334.441 154.897c-5.066-15.761-20.328-26.188-36.736-25.357-6.299.319-12.502-2.038-16.903-6.556-9.211-9.455-22.078-15.329-36.321-15.329-17.863 0-33.566 9.234-42.603 23.188-5.655 8.732-14.689 14.899-25.018 16.137-14.013 1.68-26.186 13.365-26.186 29.374 0 23.587 24.467 35.23 42.359 26.783 9.183-4.335 19.825-3.805 28.924.703 14.845 7.354 32.676 7.076 47.41-1.244 5.668-3.201 12.416-3.631 18.594-1.578 7.27 2.417 15.095 2.475 22.339.251 4.985-1.531 10.357-1.156 15.214.742 12.594 4.924 28.012-3.908 28.012-19.188 0-7.788-4.336-14.55-10.723-18.03-3.94-2.146-6.989-5.625-8.362-9.896z" fill="#05cdff"/><path d="m476.746 58.775c-5.066-15.761-20.328-26.188-36.736-25.357-6.299.319-12.502-2.038-16.903-6.556-9.211-9.455-22.078-15.329-36.321-15.329-17.863 0-33.566 9.234-42.603 23.188-5.655 8.732-14.689 14.899-25.018 16.137-14.013 1.68-26.186 13.365-26.186 29.374 0 23.587 24.467 35.23 42.359 26.783 9.183-4.335 19.825-3.805 28.924.703 14.845 7.354 32.676 7.076 47.41-1.244 5.668-3.201 12.416-3.631 18.594-1.578 7.27 2.417 15.095 2.475 22.339.251 4.985-1.531 10.357-1.156 15.214.742 12.594 4.924 28.012-3.908 28.012-19.188 0-7.788-4.336-14.55-10.723-18.03-3.94-2.146-6.989-5.625-8.362-9.896z" fill="#e1faff"/><g><path d="m114.437 41.845c-11.811 7.802-18.13 13.571-18.184 13.601-6.538 5.208-12.797 10.748-18.789 16.562v351.471h108.45v-381.634z" fill="#ffa50a"/><path d="m78.038 71.453c-48.093 46.379-78.038 111.461-78.038 183.547 0 116.889 78.65 215.401 185.914 245.522v-77.951h-107.876z" fill="#fa870a"/></g><g><path d="m185.914 274.855v-233.01h-107.876l-61.027 197.243z" fill="#ffa50a"/><path d="m119.156 422.571c-22.709 0-41.119-18.409-41.119-41.119v-339.607h-78.037v208.913l.055.017c-.023 1.407-.055 2.812-.055 4.225 0 48.861 13.743 94.51 37.573 133.296l19.952 13.648-.575 13.692c4.629 5.7 9.499 11.196 14.595 16.473l24.744 12.411 6.319 14.947c24.698 18.436 52.849 32.503 83.306 41.056v-77.951h-66.758z" fill="#fa870a"/></g><g><g fill="#cd5014"><path d="m76.938 81.366h74.821v27.368h-74.821z"/><path d="m76.903 125.208h74.821v27.368h-74.821z"/><path d="m76.867 169.05h74.821v27.368h-74.821z"/><path d="m76.831 212.892h74.821v27.368h-74.821z"/><path d="m76.796 256.734h74.821v27.368h-74.821z"/><path d="m76.76 300.576h74.821v27.368h-74.821z"/><path d="m76.725 344.418h74.821v27.368h-74.821z"/></g><path d="m34.074 81.366h44.148v27.368h-44.148z" fill="#a03c19"/><path d="m34.053 125.208h44.148v27.368h-44.148z" fill="#a03c19"/><path d="m34.032 169.05h44.148v27.368h-44.148z" fill="#a03c19"/><path d="m34.011 212.892h44.148v27.368h-44.148z" fill="#a03c19"/><path d="m33.99 256.734h44.148v27.368h-44.148z" fill="#a03c19"/><path d="m33.969 300.576h44.148v27.368h-44.148z" fill="#a03c19"/><path d="m33.948 344.418h44.148v27.368h-44.148z" fill="#a03c19"/><path d="m77.905 388.259h73.464v27.368h-73.464z" fill="#cd5014"/><path d="m78.609 388.259h-41.047c.006.01.013.021.019.031.645 1.05 1.3 2.093 1.96 3.133.144.227.287.453.432.68.65 1.018 1.307 2.031 1.972 3.039.12.182.242.364.362.546 3.786 5.711 7.795 11.261 12.016 16.638.014.018.029.037.043.055.856 1.089 1.72 2.172 2.594 3.247h39.329c-9.213-6.178-15.782-15.982-17.68-27.369z" fill="#a03c19"/><path d="m102.606 459.469h48.706v-27.368h-79.76c9.59 9.931 19.97 19.094 31.054 27.368z" fill="#a03c19"/></g><path d="m347.957 131.213-65.723 50.207v252.628h113.883l84.958-60.979c10.376-19.836 18.231-41.247 23.124-63.83.178-1.087 5.801-23.477 5.801-54.239z" fill="#6e64c3"/><path d="m282.962 369.854v-188.991l-97.048 74.137v245.522c21.973 6.17 45.142 9.478 69.086 9.478 71.217 0 136.13-29.365 182.648-77.078h-91.617c-34.832 0-63.069-28.236-63.069-63.068z" fill="#5046af"/><path d="m416.986 307.179v144.737c17.656-14.532 33.346-31.407 46.58-50.181l3.279-12.922 14.22-15.749v-17.744l-6.294-15.828 6.294-32.312h-64.079z" fill="#05cdff"/><path d="m417.884 451.172v-143.993h-46.818v46.624l10.349 25.744-10.349 22.396v17.864l8.147 6.436-8.147 14.702v41.134c16.75-8.576 32.44-18.966 46.818-30.907z" fill="#06b3ff"/><path d="m416.986 222v29.868c.027.422.035.856 0 1.312v33.839h64.079v-20.161z" fill="#05cdff"/><path d="m417.744 222.53-46.678-32.677v97.166h46.678z" fill="#06b3ff"/><g fill="#41378c"><path d="m207.817 505.626c5.581 1.044 11.225 1.905 16.928 2.58v-248.867l-16.928 12.931z"/><path d="m241.158 509.623c4.583.245 9.197.377 13.842.377 1.031 0 2.057-.021 3.086-.034v-276.097l-16.928 12.931z"/><path d="m291.426 507.393v-298.993l-16.928 12.931v287.916c5.695-.432 11.339-1.052 16.928-1.854z"/><path d="m324.767 500.302v-317.372l-16.928 12.931v308.624c5.713-1.206 11.358-2.6 16.928-4.183z"/></g><path d="m416.986 334.34v48.14l64.08-27.161v-48.14z" fill="#6ee1ff"/><path d="m371.066 353.804v48.139l46.818-19.844v-48.139z" fill="#05cdff"/><path d="m416.986 400.344v21.138l46.583-19.745c6.399-9.079 12.22-18.603 17.415-28.52z" fill="#6ee1ff"/><path d="m371.066 419.808v21.138l46.818-19.844v-21.138z" fill="#05cdff"/></g></svg>