<svg id="Layer_1" enable-background="new 0 0 68 68" height="512" viewBox="0 0 68 68" width="512" xmlns="http://www.w3.org/2000/svg"><g><g><path d="m60.4533348 62.791729v2.2615242c0 .5228729-.4238701.9467468-.9467468.9467468h-51.0131769c-.5228744 0-.9467478-.4238739-.9467478-.9467468v-2.2615242c0-.5228767.4238734-.9467506.9467478-.9467506h51.013176c.5228776-.0000001.9467477.4238738.9467477.9467506z" fill="#4f5d99"/></g><g><path d="m35.9723969 15.25v46.6000977h-27.000002v-59.8500977l5.9902344 2.9399414 3.6398926 1.7900391 4.0200195 1.9702148z" fill="#fdc72e"/></g><g><path d="m59.0226898 35.7900391v26.0600586h-23.0502929v-39.3100586l8.3002929 4.7700195 3.1997071 1.8398437 3.540039 2.0297852z" fill="#ed524e"/></g><g><g><g><path d="m32.1625824 19.8798828v1.9199219c0 .2099609-.1701679.3798828-.3801289.3798828h-7.5400391c-.2099609 0-.3798828-.1699219-.3798828-.3798828v-1.9199219c0-.2099609.1699219-.3901367.3798828-.3901367h7.5400391c.209961 0 .3801289.1801758.3801289.3901367z" fill="#e9e9ff"/></g><g><path d="m21.0925121 19.8798828v1.9199219c0 .2099609-.1799316.3798828-.3898926.3798828h-7.5300293c-.2199707 0-.3901367-.1699219-.3901367-.3798828v-1.9199219c0-.2099609.170166-.3901367.3901367-.3901367h7.5300293c.209961 0 .3898926.1801758.3898926.3901367z" fill="#e9e9ff"/></g></g><g><g><path d="m32.1625824 25.9632168v1.9199219c0 .2099609-.1701679.3798828-.3801289.3798828h-7.5400391c-.2099609 0-.3798828-.1699219-.3798828-.3798828v-1.9199219c0-.2099609.1699219-.3901367.3798828-.3901367h7.5400391c.209961 0 .3801289.1801757.3801289.3901367z" fill="#e9e9ff"/></g><g><path d="m21.0925121 25.9632168v1.9199219c0 .2099609-.1799316.3798828-.3898926.3798828h-7.5300293c-.2199707 0-.3901367-.1699219-.3901367-.3798828v-1.9199219c0-.2099609.170166-.3901367.3901367-.3901367h7.5300293c.209961 0 .3898926.1801757.3898926.3901367z" fill="#e9e9ff"/></g><g><path d="m21.0925121 13.7965498v1.9199219c0 .2099609-.1799316.3798819-.3898926.3798819h-7.5300293c-.2199707 0-.3901367-.1699209-.3901367-.3798819v-1.9199219c0-.2099609.170166-.3901367.3901367-.3901367h7.5300293c.209961 0 .3898926.1801758.3898926.3901367z" fill="#e9e9ff"/></g></g><g><g><path d="m32.1625824 32.0465508v1.9199219c0 .2099609-.1701679.3798828-.3801289.3798828h-7.5400391c-.2099609 0-.3798828-.1699219-.3798828-.3798828v-1.9199219c0-.2099628.1699219-.3901386.3798828-.3901386h7.5400391c.209961-.0000001.3801289.1801757.3801289.3901386z" fill="#e9e9ff"/></g><g><path d="m21.0925121 32.0465508v1.9199219c0 .2099609-.1799316.3798828-.3898926.3798828h-7.5300293c-.2199707 0-.3901367-.1699219-.3901367-.3798828v-1.9199219c0-.2099628.170166-.3901386.3901367-.3901386h7.5300293c.209961-.0000001.3898926.1801757.3898926.3901386z" fill="#e9e9ff"/></g></g><g><g><path d="m32.1625824 38.1298828v1.9199219c0 .2099609-.1701679.3798828-.3801289.3798828h-7.5400391c-.2099609 0-.3798828-.1699219-.3798828-.3798828v-1.9199219c0-.2099609.1699219-.3901367.3798828-.3901367h7.5400391c.209961 0 .3801289.1801758.3801289.3901367z" fill="#e9e9ff"/></g><g><path d="m21.0925121 38.1298828v1.9199219c0 .2099609-.1799316.3798828-.3898926.3798828h-7.5300293c-.2199707 0-.3901367-.1699219-.3901367-.3798828v-1.9199219c0-.2099609.170166-.3901367.3901367-.3901367h7.5300293c.209961 0 .3898926.1801758.3898926.3901367z" fill="#e9e9ff"/></g></g><g><g><path d="m32.1625824 44.2132149v1.9199219c0 .2099609-.1701679.3798828-.3801289.3798828h-7.5400391c-.2099609 0-.3798828-.1699219-.3798828-.3798828v-1.9199219c0-.2099609.1699219-.3901367.3798828-.3901367h7.5400391c.209961 0 .3801289.1801757.3801289.3901367z" fill="#e9e9ff"/></g><g><path d="m21.0925121 44.2132149v1.9199219c0 .2099609-.1799316.3798828-.3898926.3798828h-7.5300293c-.2199707 0-.3901367-.1699219-.3901367-.3798828v-1.9199219c0-.2099609.170166-.3901367.3901367-.3901367h7.5300293c.209961 0 .3898926.1801757.3898926.3901367z" fill="#e9e9ff"/></g></g><g><g><path d="m32.1625824 50.2965508v1.9199219c0 .2099609-.1701679.3798828-.3801289.3798828h-7.5400391c-.2099609 0-.3798828-.1699219-.3798828-.3798828v-1.9199219c0-.2099609.1699219-.3901367.3798828-.3901367h7.5400391c.209961-.0000001.3801289.1801757.3801289.3901367z" fill="#e9e9ff"/></g><g><path d="m21.0925121 50.2965508v1.9199219c0 .2099609-.1799316.3798828-.3898926.3798828h-7.5300293c-.2199707 0-.3901367-.1699219-.3901367-.3798828v-1.9199219c0-.2099609.170166-.3901367.3901367-.3901367h7.5300293c.209961-.0000001.3898926.1801757.3898926.3901367z" fill="#e9e9ff"/></g></g><g><g><path d="m32.1625824 56.3798828v1.9199219c0 .2099609-.1701679.3798828-.3801289.3798828h-7.5400391c-.2099609 0-.3798828-.1699219-.3798828-.3798828v-1.9199219c0-.2099609.1699219-.3901367.3798828-.3901367h7.5400391c.209961 0 .3801289.1801758.3801289.3901367z" fill="#e9e9ff"/></g><g><path d="m21.0925121 56.3798828v1.9199219c0 .2099609-.1799316.3798828-.3898926.3798828h-7.5300293c-.2199707 0-.3901367-.1699219-.3901367-.3798828v-1.9199219c0-.2099609.170166-.3901367.3901367-.3901367h7.5300293c.209961 0 .3898926.1801758.3898926.3901367z" fill="#e9e9ff"/></g></g></g><g><g><g><path d="m55.9549522 39.4114647v1.6758156c0 .1832657-.1485291.3315849-.3317947.3315849h-6.5813751c-.1832657 0-.3315849-.1483192-.3315849-.3315849v-1.6758156c0-.1832657.1483192-.3405342.3315849-.3405342h6.5813751c.1832657 0 .3317947.1572685.3317947.3405342z" fill="#e9e9ff"/></g><g><path d="m46.292366 39.4114647v1.6758156c0 .1832657-.1570511.3315849-.3403206.3315849h-6.5726357c-.1920052 0-.3405342-.1483192-.3405342-.3315849v-1.6758156c0-.1832657.1485291-.3405342.3405342-.3405342h6.5726357c.1832695 0 .3403206.1572685.3403206.3405342z" fill="#e9e9ff"/></g></g><g><g><path d="m55.9549522 44.721344v1.6758156c0 .1832657-.1485291.3315849-.3317947.3315849h-6.5813751c-.1832657 0-.3315849-.1483192-.3315849-.3315849v-1.6758156c0-.1832657.1483192-.3405342.3315849-.3405342h6.5813751c.1832657 0 .3317947.1572685.3317947.3405342z" fill="#e9e9ff"/></g><g><path d="m46.292366 44.721344v1.6758156c0 .1832657-.1570511.3315849-.3403206.3315849h-6.5726357c-.1920052 0-.3405342-.1483192-.3405342-.3315849v-1.6758156c0-.1832657.1485291-.3405342.3405342-.3405342h6.5726357c.1832695 0 .3403206.1572685.3403206.3405342z" fill="#e9e9ff"/></g><g><path d="m46.292366 34.1015854v1.6758156c0 .1832657-.1570511.3315849-.3403206.3315849h-6.5726357c-.1920052 0-.3405342-.1483192-.3405342-.3315849v-1.6758156c0-.1832657.1485291-.3405342.3405342-.3405342h6.5726357c.1832695 0 .3403206.1572685.3403206.3405342z" fill="#e9e9ff"/></g></g><g><g><path d="m55.9549522 50.0312233v1.6758156c0 .1832657-.1485291.3315849-.3317947.3315849h-6.5813751c-.1832657 0-.3315849-.1483192-.3315849-.3315849v-1.6758156c0-.1832657.1483192-.3405342.3315849-.3405342h6.5813751c.1832657 0 .3317947.1572685.3317947.3405342z" fill="#e9e9ff"/></g><g><path d="m46.292366 50.0312233v1.6758156c0 .1832657-.1570511.3315849-.3403206.3315849h-6.5726357c-.1920052 0-.3405342-.1483192-.3405342-.3315849v-1.6758156c0-.1832657.1485291-.3405342.3405342-.3405342h6.5726357c.1832695 0 .3403206.1572685.3403206.3405342z" fill="#e9e9ff"/></g></g><g><g><path d="m55.9549522 55.3411026v1.6758156c0 .1832657-.1485291.3315849-.3317947.3315849h-6.5813751c-.1832657 0-.3315849-.1483192-.3315849-.3315849v-1.6758156c0-.1832657.1483192-.3405342.3315849-.3405342h6.5813751c.1832657 0 .3317947.1572685.3317947.3405342z" fill="#e9e9ff"/></g><g><path d="m46.292366 55.3411026v1.6758156c0 .1832657-.1570511.3315849-.3403206.3315849h-6.5726357c-.1920052 0-.3405342-.1483192-.3405342-.3315849v-1.6758156c0-.1832657.1485291-.3405342.3405342-.3405342h6.5726357c.1832695 0 .3403206.1572685.3403206.3405342z" fill="#e9e9ff"/></g></g></g><g><g><path d="m2 64.4752655c0 .5390167.1039677 1.0511475.28107 1.5247345h16.3563976c-.1039677-1.4709625-1.3283615-2.6375465-2.8299713-2.6375465-.427434 0-.8355961.0962601-1.1975088.2695999-.6199522-1.1628189-1.844346-1.9522591-3.2535505-1.9522591-.5275469 0-1.0280209.1116753-1.4824333.3119011-.7777837-1.1165695-2.075312-1.8481064-3.5423286-1.8481064-2.3910695 0-4.3316751 1.9406052-4.3316751 4.3316765z" fill="#7bd681"/></g><g opacity=".3"><path d="m3.4022903 64.2990417c.3185146.2233963 1.0084138-.1803818 1.5285592-.9127846s.6795321-1.5073051.3610177-1.7410736c-.3291407-.2228813-1.0084138.1808968-1.5391848.9132996-.5204045.7324028-.6795322 1.5073052-.3503921 1.7405586z" fill="#fff"/></g></g><g opacity=".2"><g><path d="m27.2326488 61.8500977h-12.6601562l-5.6000977-25.9902344v-33.8598633l5.9902344 2.9399414z" fill="#fff"/></g><g><path d="m34.0724945 61.8500977h-3.5898457l-11.8801269-55.1201172 4.0200195 1.9702148z" fill="#fff"/></g></g><g opacity=".2"><g><path d="m51.7223969 61.8500977h-10.9199219l-4.8300781-22.4101563v-16.8999023l8.3002929 4.7700195z" fill="#fff"/></g><g><path d="m57.6125336 61.8500977h-3.0898438l-7.0502929-32.7001954 3.540039 2.0297852z" fill="#fff"/></g></g><g><g><path d="m66 64.4752655c0 .5390167-.1039658 1.0511475-.2810669 1.5247345h-16.3563995c.1039658-1.4709625 1.3283615-2.6375465 2.8299713-2.6375465.427433 0 .8355942.0962601 1.197506.2695999.6199532-1.1628189 1.8443489-1.9522591 3.2535515-1.9522591.5275459 0 1.0280228.1116753 1.4824333.3119011.7777824-1.1165695 2.0753136-1.8481064 3.5423279-1.8481064 2.3910712 0 4.3316764 1.9406052 4.3316764 4.3316765z" fill="#7bd681"/></g><g opacity=".3"><path d="m64.5977097 64.2990417c-.318512.2233963-1.0084152-.1803818-1.5285606-.9127846s-.6795311-1.5073051-.3610153-1.7410736c.3291397-.2228813 1.0084114.1808968 1.5391808.9132996.5204085.7324028.6795348 1.5073052.3503951 1.7405586z" fill="#fff"/></g></g></g></svg>