<svg id="Capa_1" enable-background="new 0 0 512 512" viewBox="0 0 512 512" xmlns="http://www.w3.org/2000/svg"><g><g><path d="m152.994 386h-60.844v45.641h62.508l3.487-1v-39.49c-.001-2.845-2.307-5.151-5.151-5.151z" fill="#cbc4cc"/></g><path d="m92.15 430.641h65.995v45.671h-65.995z" fill="#e2dee2"/><path d="m137.261 430.641v16.826c0 4.552-3.69 8.241-8.241 8.241h-35.87v20.604h64.995v-45.671z" fill="#cbc4cc"/><path d="m87.999 341.359h-54.693c-2.845 0-5.151 2.306-5.151 5.151v129.803h64.995v-129.803c0-2.845-2.306-5.151-5.151-5.151z" fill="#cbc4cc"/><path d="m87.999 341.359h-14.599v44.641h19.75v-39.49c0-2.845-2.306-5.151-5.151-5.151z" fill="#b5adb6"/><path d="m73.4 430.641v16.826c0 4.552-3.69 8.241-8.241 8.241h-37.004v20.604h64.995v-45.671z" fill="#b5adb6"/><path d="m170.977 93.026v7.069h17.05l203.854-76.965v56.362h15v-48.519l66.118 69.122h10.075v-8.237c0-.825.249-1.589.665-2.236l-77.525-81.046c-2.941-3.076-7.413-4.091-11.394-2.588l-224.549 84.778c.444.644.706 1.421.706 2.26z" fill="#cbc4cc"/><g><path d="m290.222 303.761h-35.482c-2.845 0-5.151 2.306-5.151 5.151v43.903h-52.25c-2.845 0-5.151 2.306-5.151 5.151v118.346h98.034z" fill="#a79ba7"/></g><g><path d="m269.619 303.761v142.676c0 5.121-4.151 9.272-9.272 9.272h-68.159v20.604h98.034v-172.552z" fill="#918291"/></g><g><path d="m382.383 236.41h-88.04c-2.845 0-5.151 2.306-5.151 5.151v234.751h93.191z" fill="#cbc4cc"/></g><g><path d="m351.477 236.41v211.057c0 4.552-3.69 8.241-8.241 8.241h-54.044v20.604h93.191v-239.902z" fill="#b5adb6"/></g><path d="m170.977 99.096h199.018v36.056h-199.018z" fill="#ffe177"/><g><path d="m428.767 99.096h54.336v36.056h-54.336z" fill="#ffe177"/></g><g fill="#ffe177"><path d="m381.353 154.726h36.056v321.587h-36.056z"/><path d="m381.353 154.726h36.056v321.587h-36.056z"/><path d="m381.353 154.726h36.056v321.587h-36.056z"/></g><path d="m398.555 154.726v292.742c0 4.552-3.69 8.241-8.241 8.241h-8.96v20.604h36.056v-321.587z" fill="#ffd15b"/><path d="m424.646 155.756h-50.531c-2.845 0-5.151-2.306-5.151-5.151v-66.962c0-2.845 2.306-5.151 5.151-5.151h50.531c2.845 0 5.151 2.306 5.151 5.151v66.962c0 2.845-2.306 5.151-5.151 5.151z" fill="#ffd15b"/><path d="m424.646 78.492h-15.453v51.509c0 2.845-2.306 5.151-5.151 5.151h-35.078v15.453c0 2.845 2.306 5.151 5.151 5.151h50.531c2.845 0 5.151-2.306 5.151-5.151v-66.962c0-2.844-2.306-5.151-5.151-5.151z" fill="#ffc344"/><path d="m506.849 147.54h-19.625c-2.845 0-5.151-2.306-5.151-5.151v-50.53c0-2.845 2.306-5.151 5.151-5.151h19.625c2.845 0 5.151 2.306 5.151 5.151v50.531c0 2.844-2.306 5.15-5.151 5.15z" fill="#ffd15b"/><path d="m506.849 147.54h-19.625c-2.845 0-5.151-2.306-5.151-5.151v-50.53c0-2.845 2.306-5.151 5.151-5.151h19.625c2.845 0 5.151 2.306 5.151 5.151v50.531c0 2.844-2.306 5.15-5.151 5.15z" fill="#ffd15b"/><path d="m506.849 147.54h-19.625c-2.845 0-5.151-2.306-5.151-5.151v-50.53c0-2.845 2.306-5.151 5.151-5.151h19.625c2.845 0 5.151 2.306 5.151 5.151v50.531c0 2.844-2.306 5.15-5.151 5.15z" fill="#ffd15b"/><path d="m506.849 86.708h-10.064v36.863c0 2.845-2.306 5.151-5.151 5.151h-9.562v13.668c0 2.845 2.306 5.151 5.151 5.151h19.625c2.845 0 5.151-2.306 5.151-5.151v-50.53c.001-2.846-2.305-5.152-5.15-5.152z" fill="#ffc344"/><path d="m28.155 386h64.995v44.641h-64.995z" fill="#b5adb6"/><path d="m73.4 386h19.75v44.641h-19.75z" fill="#a79ba7"/><path d="m152.994 386h-15.733v44.641h20.884v-39.49c-.001-2.845-2.307-5.151-5.151-5.151z" fill="#b5adb6"/><path d="m506.849 506.698h-501.698c-2.845 0-5.151-2.306-5.151-5.151v-21.114c0-2.845 2.306-5.151 5.151-5.151h501.698c2.845 0 5.151 2.306 5.151 5.151v21.114c0 2.845-2.306 5.151-5.151 5.151z" fill="#fea95c"/><path d="m506.849 475.282h-36.056v11.32c0 2.845-2.306 5.151-5.151 5.151h-465.642v9.794c0 2.845 2.306 5.151 5.151 5.151h501.698c2.845 0 5.151-2.306 5.151-5.151v-21.114c0-2.844-2.306-5.151-5.151-5.151z" fill="#fe9738"/><g fill="#a79ba7"><path d="m323.104 266.283h-3.09c-4.142 0-7.5 3.358-7.5 7.5s3.358 7.5 7.5 7.5h3.09c4.142 0 7.5-3.358 7.5-7.5s-3.358-7.5-7.5-7.5z"/><path d="m323.104 297h-3.09c-4.142 0-7.5 3.358-7.5 7.5s3.358 7.5 7.5 7.5h3.09c4.142 0 7.5-3.358 7.5-7.5s-3.358-7.5-7.5-7.5z"/><path d="m323.104 327.719h-3.09c-4.142 0-7.5 3.358-7.5 7.5s3.358 7.5 7.5 7.5h3.09c4.142 0 7.5-3.358 7.5-7.5s-3.358-7.5-7.5-7.5z"/><path d="m323.104 358.436h-3.09c-4.142 0-7.5 3.358-7.5 7.5s3.358 7.5 7.5 7.5h3.09c4.142 0 7.5-3.358 7.5-7.5s-3.358-7.5-7.5-7.5z"/><path d="m323.104 389.154h-3.09c-4.142 0-7.5 3.358-7.5 7.5s3.358 7.5 7.5 7.5h3.09c4.142 0 7.5-3.358 7.5-7.5s-3.358-7.5-7.5-7.5z"/><path d="m323.104 419.872h-3.09c-4.142 0-7.5 3.358-7.5 7.5s3.358 7.5 7.5 7.5h3.09c4.142 0 7.5-3.358 7.5-7.5s-3.358-7.5-7.5-7.5z"/><path d="m349.889 281.283h3.091c4.142 0 7.5-3.358 7.5-7.5s-3.358-7.5-7.5-7.5h-3.091c-4.142 0-7.5 3.358-7.5 7.5s3.358 7.5 7.5 7.5z"/><path d="m352.979 297h-3.091c-4.142 0-7.5 3.358-7.5 7.5s3.358 7.5 7.5 7.5h3.091c4.142 0 7.5-3.358 7.5-7.5s-3.357-7.5-7.5-7.5z"/><path d="m352.979 327.719h-3.091c-4.142 0-7.5 3.358-7.5 7.5s3.358 7.5 7.5 7.5h3.091c4.142 0 7.5-3.358 7.5-7.5s-3.357-7.5-7.5-7.5z"/><path d="m352.979 358.436h-3.091c-4.142 0-7.5 3.358-7.5 7.5s3.358 7.5 7.5 7.5h3.091c4.142 0 7.5-3.358 7.5-7.5s-3.357-7.5-7.5-7.5z"/><path d="m352.979 389.154h-3.091c-4.142 0-7.5 3.358-7.5 7.5s3.358 7.5 7.5 7.5h3.091c4.142 0 7.5-3.358 7.5-7.5s-3.357-7.5-7.5-7.5z"/><path d="m352.979 419.872h-3.091c-4.142 0-7.5 3.358-7.5 7.5s3.358 7.5 7.5 7.5h3.091c4.142 0 7.5-3.358 7.5-7.5s-3.357-7.5-7.5-7.5z"/></g><g fill="#a79ba7"><path d="m120.174 146.076v41.207c0 .65.091 1.277.247 1.878 3.449-5.15 8.656-9.023 14.753-10.767v-32.317h-15z"/><path d="m164.729 146.076h-15v32.317c6.098 1.745 11.304 5.618 14.753 10.768.155-.601.247-1.228.247-1.878z"/></g><path d="m166.342 279.628c-4.142 0-7.5 3.358-7.5 7.5 0 4.571-1.835 8.814-5.168 11.946-3.33 3.13-7.695 4.702-12.282 4.411-8.076-.501-14.795-7.22-15.297-15.297-.478-7.71 4.339-14.613 11.715-16.786 7.263-2.139 12.142-8.575 12.142-16.015v-26.107c-2.38.704-4.895 1.088-7.5 1.088s-5.12-.384-7.5-1.088v26.107c0 .843-.693 1.424-1.38 1.626-14.132 4.163-23.363 17.364-22.448 32.104.978 15.749 13.591 28.362 29.339 29.339.677.042 1.351.063 2.022.063 8.02 0 15.576-2.983 21.461-8.515 6.289-5.911 9.896-14.249 9.896-22.876 0-4.142-3.358-7.5-7.5-7.5z" fill="#a79ba7"/><circle cx="142.451" cy="203.869" fill="#ffe177" r="27.5"/><path d="m146.703 176.697c2.458 4.117 3.874 8.929 3.874 14.073 0 15.188-12.312 27.5-27.5 27.5-1.446 0-2.866-.113-4.252-.328 4.799 8.04 13.582 13.427 23.626 13.427 15.188 0 27.5-12.312 27.5-27.5 0-13.742-10.079-25.128-23.248-27.172z" fill="#ffd15b"/><path d="m166.977 147.076h-49.05c-2.761 0-5-2.239-5-5v-49.05c0-2.761 2.239-5 5-5h49.05c2.761 0 5 2.239 5 5v49.05c0 2.762-2.239 5-5 5z" fill="#ffd15b"/><path d="m166.977 88.026h-13.497v36.96c0 2.761-2.239 5-5 5h-35.554v12.09c0 2.761 2.239 5 5 5h49.05c2.761 0 5-2.239 5-5v-49.05c.001-2.761-2.238-5-4.999-5z" fill="#ffc344"/></g><g/><g/><g/><g/><g/><g/><g/><g/><g/><g/><g/><g/><g/><g/><g/></svg>