<svg id="Capa_1" enable-background="new 0 0 512 512" height="512" viewBox="0 0 512 512" width="512" xmlns="http://www.w3.org/2000/svg"><g><circle cx="256" cy="205.913" fill="#f4f8f9" r="205.913"/><path d="m256 0c-4.586 0-9.132.166-13.643.461 107.36 7.024 192.27 96.315 192.27 205.452s-84.91 198.428-192.27 205.452c4.511.295 9.057.461 13.643.461 113.723 0 205.913-92.191 205.913-205.913 0-113.723-92.19-205.913-205.913-205.913z" fill="#e7eef3"/><path d="m341.779 475.022-80.159 25.859-82.225-25.859 61.118-236.129h40.148z" fill="#685e68"/><path d="m231.12 275.18c8.549 5.34 18.644 8.436 29.467 8.436 10.822 0 20.917-3.096 29.466-8.436l-9.392-36.287h-40.149z" fill="#554e56"/><path d="m245.329 157.781-8.531-41.22c-5.053-24.415 3.46-49.63 22.199-66.077 5.622-4.935 11.413-9.417 17.383-13.419 15.088-10.115 35.339-8.162 48.248 4.617.199.197.398.395.594.594 18.516 18.662 12.898 50.094-10.725 61.631-15.61 7.624-27.779 20.844-34.085 37.031l-10.513 26.985z" fill="#c0d4de"/><path d="m275.149 133.8c-11.854-2.547-23.649-2.002-34.562 1.068l4.742 22.913 24.57 10.142 10.513-26.985c.676-1.735 1.433-3.429 2.241-5.093-2.438-.804-4.938-1.494-7.504-2.045z" fill="#b2c5d1"/><g><path d="m268.577 107.335c-1.262 0-2.54-.309-3.722-.961-3.737-2.059-5.097-6.759-3.037-10.496 7.082-12.848 17.071-24.175 28.89-32.756 3.454-2.507 8.285-1.74 10.792 1.713s1.739 8.285-1.713 10.792c-6.969 5.059-16.865 13.974-24.436 27.709-1.408 2.556-4.05 3.999-6.774 3.999z" fill="#b2c5d1"/></g><path d="m307.552 214.662 39.96 13.232c23.669 7.838 41.244 27.822 46.112 52.275 1.461 7.337 2.445 14.593 2.924 21.764 1.211 18.125-10.61 34.683-28.133 39.468-.271.074-.541.147-.812.218-25.421 6.698-49.828-13.89-48.001-40.115 1.207-17.33-4.153-34.48-15.016-48.038l-18.108-22.601z" fill="#c0d4de"/><path d="m313.401 252.479c8.136-8.99 13.563-19.476 16.363-30.461l-22.212-7.355-21.073 16.202 18.108 22.601c1.165 1.454 2.252 2.956 3.289 4.488 1.915-1.709 3.763-3.529 5.525-5.475z" fill="#b2c5d1"/><g><path d="m359.122 309.836c-3.907 0-7.261-2.954-7.675-6.926-.894-8.562-3.662-21.59-11.771-35.02-2.205-3.653-1.032-8.401 2.622-10.608 3.652-2.202 8.402-1.031 10.608 2.622 7.583 12.561 12.394 26.878 13.909 41.402.444 4.243-2.638 8.043-6.882 8.486-.272.03-.543.044-.811.044z" fill="#b2c5d1"/></g><path d="m227.174 240.088-31.446 27.982c-18.626 16.574-44.722 21.796-68.331 13.78-7.084-2.405-13.859-5.183-20.308-8.355-16.3-8.018-24.724-26.536-20.103-44.103.071-.271.144-.542.217-.812 6.916-25.363 36.952-36.198 58.747-21.498 14.402 9.714 31.934 13.651 49.107 11.028l28.628-4.374z" fill="#c0d4de"/><path d="m191.502 226.236c3.715 11.542 10.08 21.487 18.191 29.406l17.48-15.554-3.488-26.351-28.628 4.374c-1.841.281-3.686.472-5.532.603.522 2.513 1.173 5.023 1.977 7.522z" fill="#b2c5d1"/><g><path d="m163.4 256.747c-14.041 0-28.139-2.989-40.896-8.683-3.897-1.739-5.646-6.308-3.906-10.204 1.739-3.895 6.307-5.647 10.204-3.906 7.864 3.51 20.523 7.645 36.211 7.325 4.248-.119 7.792 3.309 7.875 7.575.083 4.267-3.309 7.792-7.575 7.875-.638.012-1.276.018-1.913.018z" fill="#b2c5d1"/></g><circle cx="260.587" cy="203.31" fill="#685e68" r="55.714"/><path d="m260.587 147.596c-3.416 0-6.754.324-10 .913 25.995 4.714 45.714 27.447 45.714 54.802 0 27.354-19.719 50.088-45.714 54.802 3.246.589 6.584.912 10 .912 30.77 0 55.714-24.944 55.714-55.714s-24.944-55.715-55.714-55.715z" fill="#554e56"/><g><path d="m287.539 215.189v-23.758c0-2.279-1.216-4.384-3.189-5.523l-20.575-11.879c-1.973-1.139-4.405-1.139-6.378 0l-20.575 11.879c-1.973 1.139-3.189 3.245-3.189 5.523v23.758c0 2.279 1.216 4.384 3.189 5.523l20.575 11.879c1.973 1.139 4.405 1.139 6.378 0l20.575-11.879c1.974-1.139 3.189-3.245 3.189-5.523z" fill="#68e7fd"/><g><g><path d="m260.587 217.683c-4.267 0-7.726-3.459-7.726-7.726v-13.293c0-4.268 3.459-7.726 7.726-7.726 4.268 0 7.726 3.459 7.726 7.726v13.293c.001 4.267-3.458 7.726-7.726 7.726z" fill="#00dcfc"/></g><g><path d="m267.234 211.036h-13.294c-4.267 0-7.726-3.459-7.726-7.726 0-4.268 3.459-7.726 7.726-7.726h13.294c4.268 0 7.726 3.459 7.726 7.726s-3.458 7.726-7.726 7.726z" fill="#00dcfc"/></g></g></g><path d="m403.755 512h-286.336c-4.175 0-7.56-3.385-7.56-7.56v-21.858c0-4.175 3.385-7.56 7.56-7.56h286.336c4.175 0 7.56 3.385 7.56 7.56v21.858c0 4.175-3.385 7.56-7.56 7.56z" fill="#c0d4de"/><path d="m403.755 475.022h-19.073c4.175 0 7.56 3.385 7.56 7.56v21.858c0 4.175-3.385 7.56-7.56 7.56h19.073c4.175 0 7.56-3.385 7.56-7.56v-21.858c0-4.175-3.385-7.56-7.56-7.56z" fill="#b2c5d1"/><g><g><path d="m247.315 475.022h-29.941v-28.063c0-4.044 3.278-7.322 7.322-7.322h15.297c4.044 0 7.322 3.278 7.322 7.322z" fill="#68e7fd"/></g><g><path d="m303.801 475.022h-29.941v-28.063c0-4.044 3.278-7.322 7.322-7.322h15.297c4.044 0 7.322 3.278 7.322 7.322z" fill="#68e7fd"/></g></g><g><path d="m260.587 368.881c-4.267 0-7.726-3.459-7.726-7.726v-46.274c0-4.268 3.459-7.726 7.726-7.726 4.268 0 7.726 3.459 7.726 7.726v46.274c.001 4.267-3.458 7.726-7.726 7.726z" fill="#554e56"/></g></g></svg>