<svg id="Capa_1" enable-background="new 0 0 495.259 495.259" height="512" viewBox="0 0 495.259 495.259" width="512" xmlns="http://www.w3.org/2000/svg"><g><path d="m413.705 392.865c-5.116-11.93-14.788-21.32-26.863-26.081l-84.965-33.504c-4.646-1.832-7.699-6.318-7.699-11.312v-56.45h-93.096v56.45c0 4.994-3.053 9.48-7.7 11.312l-84.965 33.504c-12.075 4.762-21.747 14.152-26.863 26.081-12.714 29.646-19.27 61.568-19.27 93.825 0 4.733 3.837 8.569 8.569 8.569h353.552c4.733 0 8.57-3.837 8.57-8.569 0-32.258-6.556-64.179-19.27-93.825z" fill="#80b6fc"/><path d="m413.705 392.865c-5.116-11.93-14.788-21.32-26.863-26.081l-84.965-33.504c-4.646-1.832-7.699-6.318-7.699-11.312v-28.134h-27.993v38.398c0 4.994 3.053 9.48 7.699 11.312l84.965 33.504c12.075 4.762 21.747 14.152 26.863 26.081 12.491 29.127 19.022 60.45 19.248 92.13h19.445c4.733 0 8.57-3.837 8.57-8.569 0-32.258-6.556-64.179-19.27-93.825z" fill="#5392f9"/><g fill="#62a4fb"><path d="m142.576 495.259c-.282-7.349 1.115-21.643 3.782-32.524.986-4.023-1.476-8.084-5.498-9.07-4.03-.989-8.085 1.476-9.07 5.499-2.78 11.338-4.485 26.501-4.214 36.095z"/><path d="m352.683 495.259h15.001c.271-9.594-1.435-24.757-4.214-36.095-.986-4.023-5.047-6.488-9.07-5.499-4.022.986-6.484 5.047-5.498 9.07 2.668 10.883 4.064 25.177 3.781 32.524z"/><path d="m167.346 343.546c22.143 12.247 56.059 18.915 79.51 18.915 24.554 0 56.972-6.577 78.545-19.906l-18.279-7.208c-34.327 15.667-84.894 15.679-120.871.744z"/><path d="m413.705 392.865c-5.116-11.93-14.788-21.32-26.863-26.081l-84.965-33.504c-4.646-1.832-7.699-6.318-7.699-11.312v-28.134h-27.993v38.398c0 4.994 3.053 9.48 7.699 11.312l84.965 33.504c12.075 4.762 21.747 14.152 26.863 26.081 12.491 29.127 19.022 60.45 19.248 92.13h19.445c4.733 0 8.57-3.837 8.57-8.569 0-32.258-6.556-64.179-19.27-93.825z"/></g><path d="m325.401 342.556-18.279-7.208c-9.222 4.209-19.622 7.277-30.59 9.24l23.6 9.306c9.195-2.99 17.87-6.767 25.269-11.338z" fill="#4981f8"/><path d="m230.583 90.365s3.593-106.533 93.961-88.257c83.568 16.901 16.94 197.003 50.559 250.315 2.718 4.311-.874 9.836-5.902 9.01-33.799-5.55-110.875-33.425-138.618-171.068z" fill="#e0aea2"/><path d="m375.103 252.423c-33.619-53.311 33.009-233.413-50.559-250.314-10.709-2.166-20.186-2.562-28.596-1.607 3.397.346 6.917.863 10.596 1.607 83.568 16.901 16.94 197.003 50.559 250.315 1.347 2.136 1.141 4.568-.017 6.381 4.451 1.196 8.529 2.04 12.115 2.629 5.028.825 8.62-4.7 5.902-9.011z" fill="#d79b8c"/><ellipse cx="339.939" cy="187.928" fill="#c8c3ca" rx="47.374" ry="47.374" transform="matrix(.958 -.287 .287 .958 -39.596 105.291)"/><ellipse cx="153.106" cy="187.928" fill="#c8c3ca" rx="47.374" ry="47.374" transform="matrix(.397 -.918 .918 .397 -80.167 253.822)"/><path d="m309.494 80.831c-12.329-7.083-30.945-10.812-45.088-12.728-11.122-1.507-22.381-1.507-33.503 0-14.143 1.917-32.758 5.645-45.088 12.728-4.557 2.618-8.099 6.677-10.088 11.541-11.864 29.011-57.67 156.763 30.081 212.371 25.471 16.141 58.221 16.141 83.692 0 87.751-55.608 41.945-183.36 30.081-212.371-1.988-4.863-5.531-8.923-10.087-11.541z" fill="#ffeee5"/><path d="m319.582 92.373c-1.989-4.864-5.531-8.924-10.088-11.541-12.329-7.083-30.945-10.812-45.088-12.728-10.205-1.383-20.524-1.481-30.748-.326.919.104 1.838.202 2.755.326 14.143 1.917 32.758 5.645 45.088 12.728 4.557 2.618 8.099 6.677 10.088 11.541 11.864 29.011 57.67 156.763-30.081 212.371-8.635 5.472-18.108 9.083-27.85 10.845 18.992 3.435 39.007-.176 55.843-10.845 87.751-55.609 41.944-183.36 30.081-212.371z" fill="#ffdecf"/><path d="m156.012 163.074 44.469-49.046s34.612 27.158 72.302 29.54c22.757 1.439 44.98 7.512 64.902 18.607l1.614.899v-38.969c0-41.794-33.881-75.675-75.675-75.675h-31.936c-41.794 0-75.676 33.881-75.676 75.675z" fill="#e0aea2"/><path d="m263.624 48.43h-30c41.794 0 75.676 33.881 75.676 75.675v26.041c9.825 3.003 19.344 6.993 28.386 12.029l1.614.899v-38.969c-.001-41.794-33.882-75.675-75.676-75.675z" fill="#d79b8c"/><path d="m215.786 281.018h-36.889c-23.308 0-43.229-15.865-48.444-38.58l-3.653-15.908c-.928-4.037 1.594-8.061 5.631-8.989 4.035-.926 8.062 1.594 8.988 5.631l3.653 15.908c3.643 15.86 17.552 26.937 33.825 26.937h36.889c4.142 0 7.5 3.358 7.5 7.5 0 4.143-3.358 7.501-7.5 7.501z" fill="#a29aa5"/><path d="m240.116 286.592h-15.884c-8.049 0-14.574-6.525-14.574-14.574 0-8.049 6.525-14.574 14.574-14.574h15.884c8.049 0 14.574 6.525 14.574 14.574-.001 8.049-6.526 14.574-14.574 14.574z" fill="#c8c3ca"/></g></svg>