<?xml version="1.0" encoding="utf-8"?>
<!-- Generator: Adobe Illustrator 15.0.0, SVG Export Plug-In . SVG Version: 6.00 Build 0)  -->
<!DOCTYPE svg PUBLIC "-//W3C//DTD SVG 1.1//EN" "http://www.w3.org/Graphics/SVG/1.1/DTD/svg11.dtd">
<svg version="1.1" id="Capa_1" xmlns="http://www.w3.org/2000/svg" xmlns:xlink="http://www.w3.org/1999/xlink" x="0px" y="0px"
	 width="1080px" height="716px" viewBox="0 0 1080 716" enable-background="new 0 0 1080 716" xml:space="preserve">
<g>
	<path fill="#3C5A73" d="M763.425,267.707l-24.136-57.346c-0.856-2.035,0.099-4.379,2.133-5.236
		c1.793-0.755,3.823-0.101,4.869,1.455l34.711,51.636c3.092,4.6,1.868,10.833-2.729,13.927c-4.601,3.09-10.834,1.868-13.926-2.73
		C763.989,268.881,763.669,268.276,763.425,267.707z"/>
	<path fill="#46738C" d="M817.066,303.824l-35.288,19.053c-4.252,2.296-9.559,0.71-11.853-3.543l-25.539-47.299
		c-2.295-4.251-0.709-9.559,3.542-11.854l35.288-19.052c4.252-2.295,9.56-0.708,11.853,3.543l25.54,47.299
		C822.902,296.221,821.317,301.529,817.066,303.824z"/>
	<path fill="#5F6E9B" d="M978.938,681.746l-40.862-131.936c-0.768-2.482-1.213-5.053-1.322-7.649l-4.18-99.919
		c-0.695-16.615,12.208-30.646,28.825-31.342c16.604-0.696,30.646,12.21,31.341,28.825l4.018,96.006l39.705,128.198
		c4.918,15.886-3.97,32.751-19.855,37.671C1000.668,706.537,983.842,697.579,978.938,681.746z"/>
	<path fill="#414B82" d="M827.98,702.721c-16.478-2.244-28.018-17.42-25.774-33.896L822,523.425c0.322-2.364,0.924-4.68,1.792-6.902
		l44.675-114.292c6.053-15.489,23.517-23.138,39.006-17.082c15.487,6.054,23.136,23.518,17.081,39.006l-43.368,110.95
		l-19.309,141.844C859.642,693.369,844.51,704.971,827.98,702.721z"/>
	<path fill="#64AFFF" d="M854.253,438.605h138.429V250.876c0-20.208-16.381-36.588-36.589-36.588h-65.248
		c-20.208,0-36.589,16.382-36.589,36.588v187.727h-0.003V438.605z"/>
	<g>
		<circle fill="#FFB69E" cx="936.057" cy="142.844" r="53.767"/>
		<path fill="#FFB69E" d="M885.31,369.434l-109.139-33.276c-12.634-3.853-19.752-17.216-15.9-29.85
			c3.851-12.633,17.214-19.751,29.848-15.899l89.46,27.276l37.152-77.742c5.694-11.917,19.971-16.961,31.888-11.266
			c11.916,5.695,16.96,19.973,11.266,31.888l-46.023,96.307C908.786,367.49,896.678,372.902,885.31,369.434z"/>
	</g>
	<path fill="#4699F2" d="M948.618,228.677c-11.917-5.696-26.192-0.651-31.888,11.266l-19.663,41.145l42.726,21.517l20.089-42.04
		C965.578,248.65,960.534,234.373,948.618,228.677z"/>
	<path fill="#6C9BAA" d="M602.688,156.285c0,5.921-4.799,10.722-10.72,10.722h-54.471c-5.92,0-10.722-4.8-10.722-10.722V99.084
		h75.911L602.688,156.285L602.688,156.285z"/>
	<circle fill="#46738C" cx="564.731" cy="133.042" r="14.65"/>
	<g>
		<ellipse fill="#C8E6EB" cx="530.433" cy="32.164" rx="30.631" ry="12.803"/>
		<ellipse fill="#C8E6EB" cx="469.177" cy="32.164" rx="30.631" ry="12.803"/>
		<ellipse fill="#C8E6EB" cx="660.289" cy="32.164" rx="30.631" ry="12.803"/>
		<ellipse fill="#C8E6EB" cx="599.028" cy="32.164" rx="30.63" ry="12.803"/>
	</g>
	<g>
		<path fill="#6C9BAA" d="M499.808,105.744c-5.517,0-9.988-4.473-9.988-9.987V29.833c0-5.517,4.473-9.987,9.988-9.987
			c5.518,0,9.988,4.473,9.988,9.987v65.923C509.796,101.271,505.323,105.744,499.808,105.744z"/>
		<path fill="#6C9BAA" d="M629.656,105.744c-5.518,0-9.988-4.473-9.988-9.987V29.833c0-5.517,4.473-9.987,9.988-9.987
			c5.514,0,9.986,4.473,9.986,9.987v65.923C639.645,101.271,635.171,105.744,629.656,105.744z"/>
	</g>
	<g>
		<path fill="#3C5A73" d="M478.487,197.059c-5.199-1.845-7.916-7.557-6.069-12.754l32.627-91.893
			c1.845-5.198,7.555-7.916,12.756-6.071c5.198,1.846,7.915,7.558,6.069,12.756l-32.627,91.891
			C489.404,196.162,483.71,198.915,478.487,197.059z"/>
		<path fill="#3C5A73" d="M638.221,190.99l-32.628-91.891c-1.846-5.197,0.872-10.909,6.07-12.756
			c5.197-1.846,10.908,0.873,12.756,6.07l32.628,91.893c1.845,5.198-0.873,10.907-6.071,12.755
			C645.77,198.909,640.064,196.18,638.221,190.99z"/>
		<path fill="#3C5A73" d="M628.656,109.073H500.808c-7.355,0-13.317-5.962-13.317-13.317c0-7.355,5.962-13.318,13.317-13.318
			h127.851c7.356,0,13.317,5.962,13.317,13.318C641.976,103.111,636.011,109.073,628.656,109.073z"/>
	</g>
</g>
<g>
	<polyline fill="#C97523" points="171.643,485.259 171.643,582.126 131.004,582.126 131.004,485.245 	"/>
	<polyline fill="#A85613" points="149.13,485.259 149.13,582.126 131.004,582.126 131.004,485.245 	"/>
	<ellipse fill="#8CC928" cx="151.323" cy="351.521" rx="98.592" ry="154.995"/>
	<path fill="#82B20B" d="M151.323,506.519c-54.456,0-98.592-69.398-98.592-154.995c0-85.596,44.136-154.995,98.592-154.995
		c-24.109,0-43.645,69.399-43.645,154.995C107.678,437.12,127.214,506.519,151.323,506.519z"/>
	<polygon fill="#E9EAEF" points="477.523,408.157 477.523,605.498 218.625,605.498 218.625,408.157 348.804,281.876 	"/>
	<polyline fill="#9EB1B7" points="414.175,338.482 414.175,302.03 478.899,302.03 478.899,400.121 	"/>
	<polyline fill="#879BA0" points="414.175,338.482 414.175,302.03 429.719,302.03 429.719,400.121 	"/>
	<g>
		<path fill="#85C10D" d="M373.755,564.149h129.729c7.337,0,13.286,5.948,13.286,13.286V605.5H360.468v-28.065
			C360.468,570.097,366.416,564.149,373.755,564.149z"/>
		<path fill="#85C10D" d="M66.018,564.149h150.474c7.337,0,13.287,5.948,13.287,13.286V605.5H52.731v-28.065
			C52.731,570.097,58.679,564.149,66.018,564.149z"/>
	</g>
	<polygon fill="#D2D4D8" points="477.523,415.905 477.523,452.79 348.074,329.193 218.625,452.79 218.625,415.905 337.792,302.407 
		348.074,292.858 358.347,302.407 	"/>
	<polygon fill="#EA4756" points="348.07,308.666 200.685,449.382 180.076,432.081 337.795,281.876 348.07,272.331 358.349,281.876 
		516.067,432.081 495.458,449.382 	"/>
	<rect x="250.293" y="457.646" fill="#C97523" width="85.379" height="147.851"/>
	<path fill="#8E480E" d="M341.823,605.498h-12.287V463.786h-73.095v141.712h-12.286V457.644c0-3.394,2.75-6.143,6.144-6.143h85.382
		c3.392,0,6.143,2.749,6.143,6.143L341.823,605.498L341.823,605.498z"/>
	<rect x="360.472" y="457.646" fill="#A0D9F2" width="97.231" height="85.378"/>
	<rect x="360.472" y="457.646" fill="#C97523" width="97.231" height="25.944"/>
	<g>
		<path fill="#8E480E" d="M457.696,549.17h-97.228c-3.394,0-6.144-2.75-6.144-6.144v-85.381c0-3.394,2.75-6.143,6.144-6.143h97.229
			c3.395,0,6.144,2.749,6.144,6.143v85.381C463.84,546.418,461.09,549.17,457.696,549.17z M366.611,536.882h84.944v-73.094h-84.944
			V536.882z"/>
		<path fill="#8E480E" d="M316.492,537.241h-12.394c-3.393,0-6.142-2.75-6.142-6.145c0-3.393,2.75-6.143,6.142-6.143h12.394
			c3.394,0,6.143,2.75,6.143,6.143C322.635,534.491,319.885,537.241,316.492,537.241z"/>
	</g>
	<circle fill="#413740" cx="348.073" cy="391.669" r="23.75"/>
	<rect x="360.472" y="477.445" fill="#8E480E" width="97.231" height="12.286"/>
	<path fill="#EA4756" d="M348.074,421.568c-16.485,0-29.897-13.412-29.897-29.896c0-16.486,13.411-29.897,29.897-29.897
		c16.486,0,29.897,13.411,29.897,29.897C377.971,408.156,364.56,421.568,348.074,421.568z M348.074,374.06
		c-9.709,0-17.611,7.9-17.611,17.611c0,9.71,7.901,17.611,17.611,17.611c9.711,0,17.612-7.901,17.612-17.611
		C365.686,381.96,357.785,374.06,348.074,374.06z"/>
	<g>
		<path fill="#85C10D" d="M95.26,575.96c-3.916,0-7.088-3.174-7.088-7.087v-17.935c0-3.914,3.173-7.088,7.088-7.088
			s7.088,3.174,7.088,7.088v17.935C102.349,572.788,99.175,575.96,95.26,575.96z"/>
		<path fill="#85C10D" d="M72.492,575.96c-3.916,0-7.089-3.174-7.089-7.087v-17.935c0-3.914,3.173-7.088,7.089-7.088
			c3.915,0,7.088,3.174,7.088,7.088v17.935C79.581,572.788,76.407,575.96,72.492,575.96z"/>
		<path fill="#85C10D" d="M195.133,575.96c-3.916,0-7.088-3.174-7.088-7.087v-17.935c0-3.914,3.173-7.088,7.088-7.088
			c3.915,0,7.088,3.174,7.088,7.088v17.935C202.221,572.788,199.049,575.96,195.133,575.96z"/>
	</g>
</g>
</svg>
