<svg id="svg7119" height="512" viewBox="0 0 16.933333 16.933334" width="512" xmlns="http://www.w3.org/2000/svg" xmlns:svg="http://www.w3.org/2000/svg"><g id="layer1" transform="translate(0 -280.067)"><path id="path11519" d="m13.493224 290.12106v5.0276c0 .44432-.34865.79297-.79297.79297-.4443 0-.79492-.34865-.79492-.79297v-4.23437c-.000011-.72832-.593941-1.32227-1.32226-1.32227h-.7929706v.5293h.7929706c.44432 0 .794909.34864.79492.79297v4.23437c0 .72832.593949 1.32227 1.32226 1.32227.728329 0 1.32227-.59395 1.32227-1.32227v-5.0276z" fill="#dbe9ee" font-variant-ligatures="normal" font-variant-position="normal" font-variant-caps="normal" font-variant-numeric="normal" font-variant-alternates="normal" font-feature-settings="normal" text-indent="0" text-align="start" text-decoration-line="none" text-decoration-style="solid" text-decoration-color="#000000" text-transform="none" text-orientation="mixed" white-space="normal" shape-padding="0" isolation="auto" mix-blend-mode="normal" solid-color="#000000" solid-opacity="1" vector-effect="none"/><path id="path12076" d="m1.8526035 280.59593c-.43516 0-.79492.3578-.79492.79297v13.75976h8.9960905v-13.74805c.0172-.44696-.3576805-.80468-.7929706-.80468z" fill="#33b9ef" font-variant-ligatures="normal" font-variant-position="normal" font-variant-caps="normal" font-variant-numeric="normal" font-variant-alternates="normal" font-feature-settings="normal" text-indent="0" text-align="start" text-decoration-line="none" text-decoration-style="solid" text-decoration-color="#000000" text-transform="none" text-orientation="mixed" white-space="normal" shape-padding="0" isolation="auto" mix-blend-mode="normal" solid-color="#000000" solid-opacity="1" vector-effect="none"/><path id="path12080" d="m.79400354 294.88304c-.14693-.00057-.2661801.11869-.26562.26562v1.05664c-.000561.14693.11869.26619.26562.26563h9.52539046c.14617-.00051.264239-.11945.26368-.26563v-1.05664c.000555-.14617-.11751-.26511-.26368-.26562z" fill="#2fa9da" font-variant-ligatures="normal" font-variant-position="normal" font-variant-caps="normal" font-variant-numeric="normal" font-variant-alternates="normal" font-feature-settings="normal" text-indent="0" text-align="start" text-decoration-line="none" text-decoration-style="solid" text-decoration-color="#000000" text-transform="none" text-orientation="mixed" white-space="normal" shape-padding="0" isolation="auto" mix-blend-mode="normal" solid-color="#000000" solid-opacity="1" vector-effect="none"/><path id="path12084" d="m2.1162735 281.91819v3.70508c.0005212.14617.11945.26423.26562.26367h6.3496099c.14541-.0005.2631699-.11826.26368-.26367v-3.70508c-.0005101-.14541-.11827-.26316-.26368-.26367h-6.3632799c-.1497 0-.25214.12759-.25195.26367z" fill="#dbe9ee" font-variant-ligatures="normal" font-variant-position="normal" font-variant-caps="normal" font-variant-numeric="normal" font-variant-alternates="normal" font-feature-settings="normal" text-indent="0" text-align="start" text-decoration-line="none" text-decoration-style="solid" text-decoration-color="#000000" text-transform="none" text-orientation="mixed" white-space="normal" shape-padding="0" isolation="auto" mix-blend-mode="normal" solid-color="#000000" solid-opacity="1" vector-effect="none"/><path id="path12102" d="m6.0772134 286.94554c-.0872.002-.1675699.0478-.2148498.12109l-2.3808601 3.70508c-.1138499.17622.012901.40852.2226599.4082h1.29492l-.23437 2.35352c-.025199.27407.3328001.39965.4843701.16992l2.38281-3.70313c.1138499-.17622-.012901-.40851-.2226501-.4082h-1.29492l.23437-2.35547c.015999-.15911-.1116399-.29597-.27148-.29101z" fill="#ffbc42" font-variant-ligatures="normal" font-variant-position="normal" font-variant-caps="normal" font-variant-numeric="normal" font-variant-alternates="normal" font-feature-settings="normal" text-indent="0" text-align="start" text-decoration-line="none" text-decoration-style="solid" text-decoration-color="#000000" text-transform="none" text-orientation="mixed" white-space="normal" shape-padding="0" isolation="auto" mix-blend-mode="normal" solid-color="#000000" solid-opacity="1" vector-effect="none"/><path id="path6716" d="m12.700004 289.06298v1.05833c.000529.14552.11855.26326.26407.26355h1.588009c.146121.00056.265031-.11743.26562-.26355v-1.05833z" fill="#2fa9da" font-variant-ligatures="normal" font-variant-position="normal" font-variant-caps="normal" font-variant-numeric="normal" font-variant-alternates="normal" font-feature-settings="normal" text-indent="0" text-align="start" text-decoration-line="none" text-decoration-style="solid" text-decoration-color="#000000" text-transform="none" text-orientation="mixed" white-space="normal" shape-padding="0" isolation="auto" mix-blend-mode="normal" solid-color="#000000" solid-opacity="1" vector-effect="none"/><path id="path11511" d="m12.430724 282.44358c-.14618.003-.2625.12336-.25976.26953v2.11524h.52929v-2.11524c.003-.15-.11952-.27234-.26953-.26953z" fill="#dbe9ee" font-variant-ligatures="normal" font-variant-position="normal" font-variant-caps="normal" font-variant-numeric="normal" font-variant-alternates="normal" font-feature-settings="normal" text-indent="0" text-align="start" text-decoration-line="none" text-decoration-style="solid" text-decoration-color="#000000" text-transform="none" text-orientation="mixed" white-space="normal" shape-padding="0" isolation="auto" mix-blend-mode="normal" solid-color="#000000" solid-opacity="1" vector-effect="none"/><path id="path11513" d="m15.077214 282.44358c-.146181.003-.26251.12335-.25977.26953v2.11524h.5293v-2.11524c.003-.15-.11952-.27234-.26953-.26953z" fill="#dbe9ee" font-variant-ligatures="normal" font-variant-position="normal" font-variant-caps="normal" font-variant-numeric="normal" font-variant-alternates="normal" font-feature-settings="normal" text-indent="0" text-align="start" text-decoration-line="none" text-decoration-style="solid" text-decoration-color="#000000" text-transform="none" text-orientation="mixed" white-space="normal" shape-padding="0" isolation="auto" mix-blend-mode="normal" solid-color="#000000" solid-opacity="1" vector-effect="none"/><path id="path12096" d="m11.641664 285.88694v2.11719c0 .72832.593939 1.32227 1.32227 1.32227h1.58789c.728309 0 1.32226-.59395 1.32226-1.32227v-2.11719z" fill="#33b9ef" font-variant-ligatures="normal" font-variant-position="normal" font-variant-caps="normal" font-variant-numeric="normal" font-variant-alternates="normal" font-feature-settings="normal" text-indent="0" text-align="start" text-decoration-line="none" text-decoration-style="solid" text-decoration-color="#000000" text-transform="none" text-orientation="mixed" white-space="normal" shape-padding="0" isolation="auto" mix-blend-mode="normal" solid-color="#000000" solid-opacity="1" vector-effect="none"/><path id="path12092" d="m11.377994 284.56468c-.146171-.00056-.265111.1175-.26563.26367v1.05859c-.000556.14694.118689.26619.26563.26563h4.76172c.146169-.00053.264229-.11946.26367-.26563v-1.05859c-.000503-.14541-.11826-.26316-.26367-.26367z" fill="#2fa9da" font-variant-ligatures="normal" font-variant-position="normal" font-variant-caps="normal" font-variant-numeric="normal" font-variant-alternates="normal" font-feature-settings="normal" text-indent="0" text-align="start" text-decoration-line="none" text-decoration-style="solid" text-decoration-color="#000000" text-transform="none" text-orientation="mixed" white-space="normal" shape-padding="0" isolation="auto" mix-blend-mode="normal" solid-color="#000000" solid-opacity="1" vector-effect="none"/></g></svg>