<svg id="svg7119" height="512" viewBox="0 0 16.933333 16.933334" width="512" xmlns="http://www.w3.org/2000/svg" xmlns:svg="http://www.w3.org/2000/svg"><g id="layer1" transform="translate(0 -280.067)"><path id="path5647-8" d="m1.8520843 283.24151c-.728323 0-1.32226604.59451-1.32226604 1.32227v7.9375c0 .72832.59394604 1.32422 1.32226604 1.32422h1.058594v-.5293h-1.058594c-.444312 0-.792969-.3506-.792969-.79492v-7.9375c0-.44339.348652-.79297.792969-.79297h2.380859v-.5293z" fill="#dbe9ee" font-variant-ligatures="normal" font-variant-position="normal" font-variant-caps="normal" font-variant-numeric="normal" font-variant-alternates="normal" font-feature-settings="normal" text-indent="0" text-align="start" text-decoration-line="none" text-decoration-style="solid" text-decoration-color="#000000" text-transform="none" text-orientation="mixed" white-space="normal" shape-padding="0" isolation="auto" mix-blend-mode="normal" solid-color="#000000" solid-opacity="1" vector-effect="none"/><path id="path10910" d="m11.111973 288.00311h-5.2911378c-.2181519 0-.3922289.12813-.5059119.25994-.1136841.1318-.1914869.2791-.259932.41599l-1.2552209 2.51303c-.293783.0414-.5468591.18694-.7291552.38757-.2165929.23838-.3464049.54493-.4175458.86506-.0046.0184-.0072.0373-.0078.0563v2.3828c.0002646.14632.1192961.26462.265616.26407h13.2281346c.14632.00053.265316-.11775.265615-.26407v-1.32395c0-1.31464-1.068168-2.38073-2.382801-2.38073h-.893484l-1.260653-2.51665c-.06254-.12485-.142801-.24733-.244152-.3798-.101352-.13249-.282996-.27956-.511572-.27956z" fill="#ffbc42" font-variant-ligatures="normal" font-variant-position="normal" font-variant-caps="normal" font-variant-numeric="normal" font-variant-alternates="normal" font-feature-settings="normal" text-indent="0" text-align="start" text-decoration-line="none" text-decoration-style="solid" text-decoration-color="#000000" text-transform="none" text-orientation="mixed" white-space="normal" shape-padding="0" isolation="auto" mix-blend-mode="normal" solid-color="#000000" solid-opacity="1" vector-effect="none"/><path id="path10908" d="m8.2015693 288.53228v2.64687h-3.80442l1.130681-2.26395c.06266-.12532.129598-.23921.187584-.30644.05799-.0672.08302-.076.1054209-.0762z" fill="#dbe9ee" font-variant-ligatures="normal" font-variant-position="normal" font-variant-caps="normal" font-variant-numeric="normal" font-variant-alternates="normal" font-feature-settings="normal" text-indent="0" text-align="start" text-decoration-line="none" text-decoration-style="solid" text-decoration-color="#000000" text-transform="none" text-orientation="mixed" white-space="normal" shape-padding="0" isolation="auto" mix-blend-mode="normal" solid-color="#000000" solid-opacity="1" vector-effect="none"/><path id="path2292-6-7" d="m8.7307362 288.53228h2.3812498c.03565 0 .03634.00026.09147.0724.05287.0691.118851.19748.211357.33228l1.120863 2.24224h-3.8049358z" fill="#dbe9ee" font-variant-ligatures="normal" font-variant-position="normal" font-variant-caps="normal" font-variant-numeric="normal" font-variant-alternates="normal" font-feature-settings="normal" text-indent="0" text-align="start" text-decoration-line="none" text-decoration-style="solid" text-decoration-color="#000000" text-transform="none" text-orientation="mixed" white-space="normal" shape-padding="0" isolation="auto" mix-blend-mode="normal" solid-color="#000000" solid-opacity="1" vector-effect="none"/><path id="path2300-1-2" d="m9.2602863 293.2962h1.0585937c.352867 0 .352867-.5293 0-.5293h-1.0712887c-.3654121.0171-.3400221.54636.0127.5293z" fill="#e8ab3c" font-variant-ligatures="normal" font-variant-position="normal" font-variant-caps="normal" font-variant-numeric="normal" font-variant-alternates="normal" font-feature-settings="normal" text-indent="0" text-align="start" text-decoration-line="none" text-decoration-style="solid" text-decoration-color="#000000" text-transform="none" text-orientation="mixed" white-space="normal" shape-padding="0" isolation="auto" mix-blend-mode="normal" solid-color="#000000" solid-opacity="1" vector-effect="none"/><path id="path1623-6-7-8-6" d="m9.5259123 284.56378v.5293h2.1152337c.352867 0 .352867-.5293 0-.5293z" fill="#dbe9ee" font-variant-ligatures="normal" font-variant-position="normal" font-variant-caps="normal" font-variant-numeric="normal" font-variant-alternates="normal" font-feature-settings="normal" text-indent="0" text-align="start" text-decoration-line="none" text-decoration-style="solid" text-decoration-color="#000000" text-transform="none" text-orientation="mixed" white-space="normal" shape-padding="0" isolation="auto" mix-blend-mode="normal" solid-color="#000000" solid-opacity="1" vector-effect="none"/><path id="path1625-7-8-3-7" d="m9.5259084 282.44854h2.1152336c.35286 0 .35286-.52929 0-.52929h-2.1152336z" fill="#dbe9ee" font-variant-ligatures="normal" font-variant-position="normal" font-variant-caps="normal" font-variant-numeric="normal" font-variant-alternates="normal" font-feature-settings="normal" text-indent="0" text-align="start" text-decoration-line="none" text-decoration-style="solid" text-decoration-color="#000000" text-transform="none" text-orientation="mixed" white-space="normal" shape-padding="0" isolation="auto" mix-blend-mode="normal" solid-color="#000000" solid-opacity="1" vector-effect="none"/><path id="path10923" d="m5.2915373 293.2962c-.8736172 0-1.5878911.71427-1.5878911 1.58789s.7142721 1.58594 1.5878911 1.58594c.8736129 0 1.587891-.71232 1.587891-1.58594s-.714281-1.58789-1.587891-1.58789z" fill="#33658a" font-variant-ligatures="normal" font-variant-position="normal" font-variant-caps="normal" font-variant-numeric="normal" font-variant-alternates="normal" font-feature-settings="normal" text-indent="0" text-align="start" text-decoration-line="none" text-decoration-style="solid" text-decoration-color="#000000" text-transform="none" text-orientation="mixed" white-space="normal" shape-padding="0" isolation="auto" mix-blend-mode="normal" solid-color="#000000" solid-opacity="1" vector-effect="none"/><path id="path10919" d="m13.758334 293.2962c-.873619 0-1.587891.71427-1.587891 1.58789s.714269 1.58594 1.587891 1.58594c.873613 0 1.587891-.71232 1.587891-1.58594s-.714281-1.58789-1.587891-1.58789z" fill="#33658a" font-variant-ligatures="normal" font-variant-position="normal" font-variant-caps="normal" font-variant-numeric="normal" font-variant-alternates="normal" font-feature-settings="normal" text-indent="0" text-align="start" text-decoration-line="none" text-decoration-style="solid" text-decoration-color="#000000" text-transform="none" text-orientation="mixed" white-space="normal" shape-padding="0" isolation="auto" mix-blend-mode="normal" solid-color="#000000" solid-opacity="1" vector-effect="none"/><path id="path10928" d="m3.9692723 282.71222v1.58789c.0005291.14541.118264.26316.263671.26367h1.058594v-2.11524h-1.071289c-.1481111.0135-.2511731.12759-.250976.26368z" fill="#2fa9da" font-variant-ligatures="normal" font-variant-position="normal" font-variant-caps="normal" font-variant-numeric="normal" font-variant-alternates="normal" font-feature-settings="normal" text-indent="0" text-align="start" text-decoration-line="none" text-decoration-style="solid" text-decoration-color="#000000" text-transform="none" text-orientation="mixed" white-space="normal" shape-padding="0" isolation="auto" mix-blend-mode="normal" solid-color="#000000" solid-opacity="1" vector-effect="none"/><path id="path10932" d="m6.3501312 281.38995c-.728319 0-1.322266.59394-1.322266 1.32227v1.58789c0 .72832.593947 1.32226 1.322266 1.32226h2.1171872v-4.23242z" fill="#33b9ef" font-variant-ligatures="normal" font-variant-position="normal" font-variant-caps="normal" font-variant-numeric="normal" font-variant-alternates="normal" font-feature-settings="normal" text-indent="0" text-align="start" text-decoration-line="none" text-decoration-style="solid" text-decoration-color="#000000" text-transform="none" text-orientation="mixed" white-space="normal" shape-padding="0" isolation="auto" mix-blend-mode="normal" solid-color="#000000" solid-opacity="1" vector-effect="none"/><path id="path10936" d="m8.4673184 280.86065a.26460982.26460982 0 0 0 -.265625.26368v4.76367a.26460982.26460982 0 0 0 .265625.26367h1.0585939a.26460982.26460982 0 0 0 .2636719-.26367v-4.76367a.26460982.26460982 0 0 0 -.2636719-.26368z" fill="#2fa9da" font-variant-ligatures="normal" font-variant-position="normal" font-variant-caps="normal" font-variant-numeric="normal" font-variant-alternates="normal" font-feature-settings="normal" text-indent="0" text-align="start" text-decoration-line="none" text-decoration-style="solid" text-decoration-color="#000000" text-transform="none" text-orientation="mixed" white-space="normal" shape-padding="0" isolation="auto" mix-blend-mode="normal" solid-color="#000000" solid-opacity="1" vector-effect="none"/></g></svg>