<svg id="Layer_1" enable-background="new 0 0 512 512" height="512" viewBox="0 0 512 512" width="512" xmlns="http://www.w3.org/2000/svg"><g><g><g><g><path d="m32 208h224c8.837 0 16-7.163 16-16v-32c0-8.837-7.163-16-16-16h-224c-8.837 0-16 7.163-16 16v32c0 8.837 7.163 16 16 16z" fill="#5ad7ff"/></g></g><g><g><path d="m192 208h64c8.837 0 16-7.163 16-16v-32c0-8.837-7.163-16-16-16h-64c-8.837 0-16 7.163-16 16v32c0 8.837 7.163 16 16 16z" fill="#23aae6"/></g></g><g><g><path d="m112 384h64c44.183 0 80-35.817 80-80v-96h-224v96c0 44.183 35.817 80 80 80z" fill="#4b9641"/></g></g><g><g><path d="m112 384c44.183 0 80-35.817 80-80v-80h-160v80c0 44.183 35.817 80 80 80z" fill="#91c83c"/></g></g><g><g><path d="m112 416h64v80h-64z" fill="#463c4b"/></g></g><g><g><path d="m112 432h32v64h-32z" fill="#555a6e"/></g></g><g><g><path d="m320 384h64v112h-64z" fill="#463c4b"/></g></g><g><g><path d="m320 440h32v56h-32z" fill="#555a6e"/></g></g><g><g><path d="m176 416h-64c-8.837 0-16-7.163-16-16 0-8.837 7.163-16 16-16h64c8.837 0 16 7.163 16 16 0 8.837-7.163 16-16 16z" fill="#23aae6"/></g></g><g><g><path d="m128 416h-16c-8.837 0-16-7.163-16-16 0-8.837 7.163-16 16-16h16c8.837 0 16 7.163 16 16 0 8.837-7.163 16-16 16z" fill="#5ad7ff"/></g></g><g><g><path d="m72 32c-13.255 0-24 10.745-24 24v88h48v-88c0-13.255-10.745-24-24-24z" fill="#d7e6f0"/></g></g><g><g><path d="m84 48c-6.627 0-12 5.373-12 12v84h24v-84c0-6.627-5.373-12-12-12z" fill="#a5c3dc"/></g></g><g><g><path d="m216 32c-13.255 0-24 10.745-24 24v88h48v-88c0-13.255-10.745-24-24-24z" fill="#d7e6f0"/></g></g><g><g><path d="m228 48c-6.627 0-12 5.373-12 12v84h24v-84c0-6.627-5.373-12-12-12z" fill="#a5c3dc"/></g></g></g><g><g><g><path d="m136 272h-48c-4.418 0-8-3.582-8-8 0-4.418 3.582-8 8-8h48c4.418 0 8 3.582 8 8 0 4.418-3.582 8-8 8z" fill="#4b9641"/></g></g><g><g><path d="m136 304h-48c-4.418 0-8-3.582-8-8 0-4.418 3.582-8 8-8h48c4.418 0 8 3.582 8 8 0 4.418-3.582 8-8 8z" fill="#4b9641"/></g></g><g><g><path d="m136 336h-48c-4.418 0-8-3.582-8-8 0-4.418 3.582-8 8-8h48c4.418 0 8 3.582 8 8 0 4.418-3.582 8-8 8z" fill="#4b9641"/></g></g></g><g><g><g><circle cx="352" cy="256" fill="#d7e6f0" r="144"/></g></g><g><g><path d="m224 272c-8.837 0-16-7.163-16-16 0-79.402 64.598-144 144-144 8.837 0 16 7.163 16 16s-7.163 16-16 16c-61.757 0-112 50.243-112 112 0 8.837-7.163 16-16 16z" fill="#fff"/></g></g><g><path d="m438.896 235.669c-1.473-2.287-4.007-3.669-6.727-3.669h-52.286l12.254-135.278c.202-2.238-.546-4.458-2.062-6.117s-3.658-2.605-5.905-2.605h-32c-3.133 0-5.977 1.828-7.277 4.678l-80.34 176c-1.131 2.476-.924 5.358.548 7.648s4.006 3.674 6.729 3.674h52.715l-12.342 135.273c-.204 2.239.543 4.46 2.059 6.121 1.516 1.66 3.66 2.606 5.908 2.606h32c3.137 0 5.984-1.834 7.283-4.69l80-176c1.125-2.476.916-5.354-.557-7.641z" fill="#f06423"/><path d="m406.896 235.669c-1.473-2.287-4.007-3.669-6.727-3.669h-52.286l12.254-135.278c.352-3.883-2.147-7.455-5.917-8.454-3.767-.998-7.709.863-9.328 4.411l-80.34 176c-1.131 2.476-.924 5.358.548 7.648s4.007 3.673 6.73 3.673h52.715l-12.342 135.273c-.354 3.886 2.146 7.462 5.919 8.46.683.181 1.371.267 2.05.267 3.073 0 5.958-1.781 7.281-4.691l80-176c1.125-2.475.916-5.353-.557-7.64z" fill="#faa019"/></g></g></g></svg>