<svg id="svg14514" height="512" viewBox="0 0 16.933333 16.933334" width="512" xmlns="http://www.w3.org/2000/svg" xmlns:svg="http://www.w3.org/2000/svg"><g id="layer1" transform="translate(0 -280.067)"><path id="path5651" d="m14.165023 282.40759-.507979-1.26348-5.8231589 2.38358c-.658312.28669-1.058784.90524-1.262714 1.47769l-.4707723 1.32239 3.1465783.17364.263549-.79478c.0933-.28002.202382-.51029.6154659-.75035z" fill="#e8ab3c" font-variant-ligatures="normal" font-variant-position="normal" font-variant-caps="normal" font-variant-numeric="normal" font-variant-alternates="normal" font-feature-settings="normal" text-indent="0" text-align="start" text-decoration-line="none" text-decoration-style="solid" text-decoration-color="#000000" text-transform="none" text-orientation="mixed" white-space="normal" shape-padding="0" isolation="auto" mix-blend-mode="normal" solid-color="#000000" solid-opacity="1" vector-effect="none"/><path id="path5621" d="m2.1161467 291.70831v1.58802h8.2031153v-1.58802z" fill="#e8ab3c" font-variant-ligatures="normal" font-variant-position="normal" font-variant-caps="normal" font-variant-numeric="normal" font-variant-alternates="normal" font-feature-settings="normal" text-indent="0" text-align="start" text-decoration-line="none" text-decoration-style="solid" text-decoration-color="#000000" text-transform="none" text-orientation="mixed" white-space="normal" shape-padding="0" isolation="auto" mix-blend-mode="normal" solid-color="#000000" solid-opacity="1" vector-effect="none"/><path id="path5628" d="m6.0869627 286.15155c-.4363691 0-.744786.36952-.7911679.76378l.0062-.0331-.4805889 1.91565h-3.4979802c-.43515999 0-.79478199.35807-.79478199.79323v1.85364c0 .43516.359622.79271.79478199.79271h8.9963523c.4352 0 .804564-.35685.794782-.79892v-1.84743a.26460982.26460982 0 0 0 -.01963-.0977l-1.058344-2.64635c-.057-.14241-.1218349-.29766-.2387439-.4377-.116908-.14004-.310962-.25786-.53485-.25786z" fill="#ffbc42" font-variant-ligatures="normal" font-variant-position="normal" font-variant-caps="normal" font-variant-numeric="normal" font-variant-alternates="normal" font-feature-settings="normal" text-indent="0" text-align="start" text-decoration-line="none" text-decoration-style="solid" text-decoration-color="#000000" text-transform="none" text-orientation="mixed" white-space="normal" shape-padding="0" isolation="auto" mix-blend-mode="normal" solid-color="#000000" solid-opacity="1" vector-effect="none"/><path id="path5635" d="m6.6161291 287.2104a.26460982.26460982 0 0 0 -.2557984.19689l-.4237461 1.58595a.26460982.26460982 0 0 0 .2557992.33434h1.2169803v-2.11718zm1.322401 0v3.78375l.04496.0677a.26460982.26460982 0 0 0 .220657.1173h1.588019a.26460982.26460982 0 0 0 .2635469-.26355v-1.05885a.26460982.26460982 0 0 0 -.0217-.10335l-1.0020029-2.38125a.26460982.26460982 0 0 0 -.243922-.16175z" fill="#33b9ef" font-variant-ligatures="normal" font-variant-position="normal" font-variant-caps="normal" font-variant-numeric="normal" font-variant-alternates="normal" font-feature-settings="normal" text-indent="0" text-align="start" text-decoration-line="none" text-decoration-style="solid" text-decoration-color="#000000" text-transform="none" text-orientation="mixed" white-space="normal" shape-padding="0" isolation="auto" mix-blend-mode="normal" solid-color="#000000" solid-opacity="1" vector-effect="none"/><path id="path15584" d="m1.8486897 289.85284a.26460982.26460982 0 0 0 -.26172.26758v.79492a.26465001.26465001 0 1 0 .5293 0v-.79492a.26460982.26460982 0 0 0 -.26758-.26758z" fill="#e8ab3c" font-variant-ligatures="normal" font-variant-position="normal" font-variant-caps="normal" font-variant-numeric="normal" font-variant-alternates="normal" font-feature-settings="normal" text-indent="0" text-align="start" text-decoration-line="none" text-decoration-style="solid" text-decoration-color="#000000" text-transform="none" text-orientation="mixed" white-space="normal" shape-padding="0" isolation="auto" mix-blend-mode="normal" solid-color="#000000" solid-opacity="1" vector-effect="none"/><path id="path15586" d="m2.9072798 289.85284a.26460982.26460982 0 0 0 -.2617101.26758v.79492a.26464505.26464505 0 1 0 .5292901 0v-.79492a.26460982.26460982 0 0 0 -.26758-.26758z" fill="#e8ab3c" font-variant-ligatures="normal" font-variant-position="normal" font-variant-caps="normal" font-variant-numeric="normal" font-variant-alternates="normal" font-feature-settings="normal" text-indent="0" text-align="start" text-decoration-line="none" text-decoration-style="solid" text-decoration-color="#000000" text-transform="none" text-orientation="mixed" white-space="normal" shape-padding="0" isolation="auto" mix-blend-mode="normal" solid-color="#000000" solid-opacity="1" vector-effect="none"/><path id="path15588" d="m3.9639296 289.85284a.26460982.26460982 0 0 0 -.2597698.26758v.79492a.26465005.26465005 0 1 0 .5293001 0v-.79492a.26460982.26460982 0 0 0 -.2695303-.26758z" fill="#e8ab3c" font-variant-ligatures="normal" font-variant-position="normal" font-variant-caps="normal" font-variant-numeric="normal" font-variant-alternates="normal" font-feature-settings="normal" text-indent="0" text-align="start" text-decoration-line="none" text-decoration-style="solid" text-decoration-color="#000000" text-transform="none" text-orientation="mixed" white-space="normal" shape-padding="0" isolation="auto" mix-blend-mode="normal" solid-color="#000000" solid-opacity="1" vector-effect="none"/><path id="path5599" d="m2.3818897 292.7669c-1.02147 0-1.85350999.83009-1.85350999 1.85157 0 1.02147.83203999 1.85156 1.85350999 1.85156h8.2011803c1.02148 0 1.85156-.83009 1.85156-1.85156 0-1.02148-.83008-1.85157-1.85156-1.85157z" fill="#33658a" font-variant-ligatures="normal" font-variant-position="normal" font-variant-caps="normal" font-variant-numeric="normal" font-variant-alternates="normal" font-feature-settings="normal" text-indent="0" text-align="start" text-decoration-line="none" text-decoration-style="solid" text-decoration-color="#000000" text-transform="none" text-orientation="mixed" white-space="normal" shape-padding="0" isolation="auto" mix-blend-mode="normal" solid-color="#000000" solid-opacity="1" vector-effect="none"/><g fill="#dbe9ee"><path id="path5603" d="m10.05377 293.8255c-.4352399-.00001-.7929599.35773-.7929709.79297 0 .43524.357721.79492.7929709.79492.43525 0 .79492-.35968.79492-.79492s-.35968-.79298-.79492-.79297z" font-variant-ligatures="normal" font-variant-position="normal" font-variant-caps="normal" font-variant-numeric="normal" font-variant-alternates="normal" font-feature-settings="normal" text-indent="0" text-align="start" text-decoration-line="none" text-decoration-style="solid" text-decoration-color="#000000" text-transform="none" text-orientation="mixed" white-space="normal" shape-padding="0" isolation="auto" mix-blend-mode="normal" solid-color="#000000" solid-opacity="1" vector-effect="none"/><path id="path5607" d="m7.6729091 293.8255c-.435239-.00001-.79296.35773-.79297.79297 0 .43524.357721.79492.79297.79492.435251 0 .79297-.35968.79297-.79492-.000009-.43524-.357729-.79298-.79297-.79297z" font-variant-ligatures="normal" font-variant-position="normal" font-variant-caps="normal" font-variant-numeric="normal" font-variant-alternates="normal" font-feature-settings="normal" text-indent="0" text-align="start" text-decoration-line="none" text-decoration-style="solid" text-decoration-color="#000000" text-transform="none" text-orientation="mixed" white-space="normal" shape-padding="0" isolation="auto" mix-blend-mode="normal" solid-color="#000000" solid-opacity="1" vector-effect="none"/><path id="path5611" d="m5.2920498 293.8255c-.4352401-.00001-.79492.35773-.79492.79297s.3596699.79492.79492.79492c.4352399-.00001.7929698-.35968.7929698-.79492-.0000098-.43524-.3577299-.79297-.7929698-.79297z" font-variant-ligatures="normal" font-variant-position="normal" font-variant-caps="normal" font-variant-numeric="normal" font-variant-alternates="normal" font-feature-settings="normal" text-indent="0" text-align="start" text-decoration-line="none" text-decoration-style="solid" text-decoration-color="#000000" text-transform="none" text-orientation="mixed" white-space="normal" shape-padding="0" isolation="auto" mix-blend-mode="normal" solid-color="#000000" solid-opacity="1" vector-effect="none"/><path id="path5615" d="m2.9111898 293.8255c-.4352301 0-.7949201.35773-.7949201.79297s.35968.79491.7949201.79492c.4352499 0 .79297-.35968.79297-.79492-.00001-.43524-.3577301-.79298-.79297-.79297z" font-variant-ligatures="normal" font-variant-position="normal" font-variant-caps="normal" font-variant-numeric="normal" font-variant-alternates="normal" font-feature-settings="normal" text-indent="0" text-align="start" text-decoration-line="none" text-decoration-style="solid" text-decoration-color="#000000" text-transform="none" text-orientation="mixed" white-space="normal" shape-padding="0" isolation="auto" mix-blend-mode="normal" solid-color="#000000" solid-opacity="1" vector-effect="none"/></g><path id="path5658" d="m13.911809 280.59633c-.08014.005-.160629.0181-.239779.0393-.63333.1697-1.06704.8385-.835091 1.47949l2.259293 6.24303 1.30328-.13901-1.263489-6.72258c-.109752-.58371-.66325-.9351-1.224214-.90021z" fill="#ffbc42" font-variant-ligatures="normal" font-variant-position="normal" font-variant-caps="normal" font-variant-numeric="normal" font-variant-alternates="normal" font-feature-settings="normal" text-indent="0" text-align="start" text-decoration-line="none" text-decoration-style="solid" text-decoration-color="#000000" text-transform="none" text-orientation="mixed" white-space="normal" shape-padding="0" isolation="auto" mix-blend-mode="normal" solid-color="#000000" solid-opacity="1" vector-effect="none"/><path id="path15606" d="m14.28751 281.91873c0 .14613-.11846.26458-.26459.26458-.14612 0-.26458-.11846-.26458-.26458s.11846-.26458.26458-.26458c.14613 0 .26459.11845.26459.26458z" fill="#ff6b6b"/><path id="path5665" d="m15.346864 288.00311a.26460982.26460982 0 0 0 -.212907.10749l-2.380735 3.17397a.26460982.26460982 0 0 0 .210842.42374h1.588016c1.021469 0 1.851048-.83008 1.851048-1.85156v-1.58802a.26460982.26460982 0 0 0 -.263548-.26562z" fill="#33658a" font-variant-ligatures="normal" font-variant-position="normal" font-variant-caps="normal" font-variant-numeric="normal" font-variant-alternates="normal" font-feature-settings="normal" text-indent="0" text-align="start" text-decoration-line="none" text-decoration-style="solid" text-decoration-color="#000000" text-transform="none" text-orientation="mixed" white-space="normal" shape-padding="0" isolation="auto" mix-blend-mode="normal" solid-color="#000000" solid-opacity="1" vector-effect="none"/></g></svg>