<svg id="Layer_1" enable-background="new 0 0 512 512" height="512" viewBox="0 0 512 512" width="512" xmlns="http://www.w3.org/2000/svg"><g><path d="m416.2 133.7h-210.9c-8.1 0-14.6-6.6-14.6-14.6v-8.5c0-8.1-6.6-14.6-14.6-14.6h-159.5c-8-.1-14.6 6.4-14.6 14.5v351.1c0 8.1 6.6 14.6 14.6 14.6h399.5c8.1 0 14.6-6.6 14.6-14.6v-313.3c.1-8.1-6.5-14.6-14.5-14.6z" fill="#f0b972"/><path d="m416.2 133.7h-210.9c-8.1 0-14.6-6.6-14.6-14.6v-8.5c0-8.1-6.6-14.6-14.6-14.6h-159.5c-8-.1-14.6 6.4-14.6 14.5v8.7c0-8.1 6.6-14.6 14.6-14.6h159.4c8.1 0 14.6 6.6 14.6 14.6v8.5c0 8.1 6.6 14.6 14.6 14.6h210.8c8.1 0 14.6 6.6 14.6 14.6v-8.7c.2-8-6.4-14.5-14.4-14.5z" fill="#ffc88d"/><path d="m37.3 35.7h358.1v440.6h-358.1z" fill="#788d9a"/><path d="m57.1 61.3h358.1v415h-358.1z" fill="#eff3f5"/><path d="m495.3 219.5h-157.6c-6.2 0-11.7 3.9-13.8 9.7l-2.2 6.1c-2.1 5.8-7.6 9.7-13.8 9.7h-219.4c-6.2 0-11.7 3.9-13.8 9.7l-71.9 202c-3.4 9.5 3.7 19.6 13.8 19.6h397.7c6.2 0 11.7-3.9 13.8-9.7l81-227.5c3.4-9.6-3.6-19.6-13.8-19.6z" fill="#fbd984"/><path d="m74.8 264.5c2.1-5.8 7.6-9.7 13.8-9.7h219.4c6.2 0 11.7-3.9 13.8-9.7l2.2-6.1c2.1-5.8 7.6-9.7 13.8-9.7h157.6c6.6 0 11.8 4.3 13.8 9.8v-.1c3.4-9.5-3.7-19.6-13.8-19.6h-157.6c-6.2 0-11.7 3.9-13.8 9.7l-2.2 6.1c-2.1 5.8-7.6 9.7-13.8 9.7h-219.5c-6.2 0-11.7 3.9-13.8 9.7l-71.9 202c-1.2 3.3-1 6.7 0 9.7z" fill="#ffe3a4"/><g fill="#5ac8ae"><path d="m108.4 123.1h255.4v18.5h-255.4z"/><path d="m108.4 187.3h255.4v18.5h-255.4z"/></g></g></svg>