<?xml version="1.0" encoding="iso-8859-1"?>
<!-- Generator: Adobe Illustrator 19.0.0, SVG Export Plug-In . SVG Version: 6.00 Build 0)  -->
<svg version="1.1" id="Layer_1" xmlns="http://www.w3.org/2000/svg" xmlns:xlink="http://www.w3.org/1999/xlink" x="0px" y="0px"
	 viewBox="0 0 512 512" style="enable-background:new 0 0 512 512;" xml:space="preserve">
<path style="fill:#FFDC64;" d="M256,86.857c-131.286,0-237.714,106.427-237.714,237.713v54.857h475.429V324.57
	C493.714,193.285,387.286,86.857,256,86.857z"/>
<path style="fill:#FFC850;" d="M502.857,379.429H146.286c-5.049,0-9.143-4.094-9.143-9.143v-45.714
	c0-43.323,8.053-83.898,22.088-118.846c2.129-5.302,9.944-4.392,10.915,1.239l19.237,111.571c1.512,8.77,9.12,15.179,18.021,15.179
	h97.194c8.901,0,16.507-6.408,18.021-15.179l35.942-208.463C327.507,95.199,292.729,86.857,256,86.857
	c-35.014,0-68.214,7.654-98.143,21.247c-0.001-0.008-0.005-0.017-0.006-0.025c-0.179,0.081-4.379,2.179-4.379,2.179
	C73.562,148.56,18.286,230.038,18.286,324.57v54.857H9.143c-5.049,0-9.143,4.094-9.143,9.143v11.655
	c0,3.954,2.473,7.487,6.232,8.717C71.627,430.325,159.421,443.429,256,443.429s184.373-13.104,249.768-34.486
	c3.759-1.229,6.232-4.761,6.232-8.717v-11.655C512,383.522,507.906,379.429,502.857,379.429z"/>
<path style="fill:#FFF082;" d="M274.905,333.714h-37.81c-9.854,0-17.935-7.808-18.274-17.656l-7.882-228.571
	c-0.357-10.339,7.928-18.915,18.274-18.915h53.574c10.346,0,18.631,8.576,18.274,18.915l-7.882,228.571
	C292.84,325.906,284.759,333.714,274.905,333.714z"/>
<g>
	<path style="fill:#FFDC64;" d="M505.768,391.367C440.371,406.64,352.578,416,256,416S71.627,406.64,6.232,391.367
		c-3-0.701-5.114-2.463-5.873-4.577C0.238,387.385,0,387.939,0,388.571v11.655c0,3.955,2.473,7.487,6.232,8.717
		c65.395,21.382,153.19,34.486,249.768,34.486s184.373-13.104,249.768-34.486c3.759-1.23,6.232-4.761,6.232-8.717v-11.655
		c0-0.632-0.238-1.186-0.359-1.782C510.882,388.904,508.768,390.666,505.768,391.367z"/>
	<path style="fill:#FFDC64;" d="M243.318,316.058l-5.595-228.571c-0.254-10.339,5.63-18.915,12.974-18.915h-21.483
		c-10.346,0-18.631,8.576-18.274,18.915l7.881,228.571c0.339,9.848,8.422,17.656,18.275,17.656h19.198
		C249.296,333.714,243.559,325.906,243.318,316.058z"/>
</g>
<g>
</g>
<g>
</g>
<g>
</g>
<g>
</g>
<g>
</g>
<g>
</g>
<g>
</g>
<g>
</g>
<g>
</g>
<g>
</g>
<g>
</g>
<g>
</g>
<g>
</g>
<g>
</g>
<g>
</g>
</svg>
