<svg id="Layer_1" enable-background="new 0 0 50 50" height="512" viewBox="0 0 50 50" width="512" xmlns="http://www.w3.org/2000/svg" xmlns:xlink="http://www.w3.org/1999/xlink"><pattern id="New_Pattern_Swatch_2" height="8.814" overflow="visible" patternUnits="userSpaceOnUse" viewBox="0 -8.8142 8.8142 8.8142" width="8.814" x="-70" y="-350"><g><path d="m0 0h8.8142v-8.8142h-8.8142z" fill="none"/><path d="m8.8142 0h-8.8142v-8.8142h8.8142z" fill="#88603f"/></g></pattern><g><g><path d="m10.644 9.3337h-7.66c-1.09 0-1.98-.7711-1.98-1.7174 0-.7945.6201-1.4721 1.48-1.659-.3182-1.2385 1.0702-2.2264 2.22-1.9161.6643-1.4718 3.0341-1.4189 3.66.0117 1.2383-.5034 2.8465.4203 2.44 1.8459 2.4983.1733 2.3475 3.4349-.16 3.4349z" fill="#eeeded"/><path d="m48.996 15.5718c0 .6405-.6959 1.1624-1.5579 1.1624h-6.0575c-.862 0-1.5658-.5219-1.5658-1.1624 0-.5377.4903-.9964 1.1704-1.1229-.2632-.8767.895-1.4957 1.7555-1.2969.5265-.9985 2.4018-.9555 2.8943.0079.9308-.3239 2.2645.244 1.9295 1.2494.7988.0475 1.4315.5457 1.4315 1.1625z" fill="#eeeded"/><g><path d="m47.0441 18.8704h-43.92l6.8299-6.48h30.25z" fill="url(#New_Pattern_Swatch_2)"/><path d="m3.121 18.868h43.923v24.562h-43.923z" fill="#eeeded"/><path d="m4.482 21.009h2.344v2.53h-2.344z" fill="#4a8bc9"/><path d="m6.9125 23.6252h-2.5168v-2.7028h2.5168zm-2.3445-.1723h2.172v-2.3581h-2.172z" fill="#fff"/><path d="m4.482 23.539h2.344v2.53h-2.344z" fill="#4a8bc9"/><path d="m6.9125 26.1557h-2.5168v-2.7028h2.5168zm-2.3445-.1724h2.172v-2.3581h-2.172z" fill="#fff"/><path d="m4.482 26.07h2.344v2.53h-2.344z" fill="#4a8bc9"/><path d="m6.9125 28.6861h-2.5168v-2.7028h2.5168zm-2.3445-.1723h2.172v-2.3581h-2.172z" fill="#fff"/><path d="m6.826 21.009h2.344v2.53h-2.344z" fill="#4a8bc9"/><path d="m9.2569 23.6252h-2.5168v-2.7028h2.5168zm-2.3444-.1723h2.172v-2.3581h-2.172z" fill="#fff"/><path d="m6.826 23.539h2.344v2.53h-2.344z" fill="#4a8bc9"/><path d="m9.2569 26.1557h-2.5168v-2.7028h2.5168zm-2.3444-.1724h2.172v-2.3581h-2.172z" fill="#fff"/><path d="m6.826 26.07h2.344v2.53h-2.344z" fill="#4a8bc9"/><path d="m9.2569 28.6861h-2.5168v-2.7028h2.5168zm-2.3444-.1723h2.172v-2.3581h-2.172z" fill="#fff"/><path d="m11.124 21.009h2.344v2.53h-2.344z" fill="#4a8bc9"/><path d="m13.5545 23.6252h-2.5168v-2.7028h2.5168zm-2.3444-.1723h2.172v-2.3581h-2.172z" fill="#fff"/><path d="m11.124 23.539h2.344v2.53h-2.344z" fill="#4a8bc9"/><path d="m13.5545 26.1557h-2.5168v-2.7028h2.5168zm-2.3444-.1724h2.172v-2.3581h-2.172z" fill="#fff"/><path d="m11.124 26.07h2.344v2.53h-2.344z" fill="#4a8bc9"/><path d="m13.5545 28.6861h-2.5168v-2.7028h2.5168zm-2.3444-.1723h2.172v-2.3581h-2.172z" fill="#fff"/><path d="m13.468 21.009h2.344v2.53h-2.344z" fill="#4a8bc9"/><path d="m15.8989 23.6252h-2.5168v-2.7028h2.5168zm-2.3444-.1723h2.172v-2.3581h-2.172z" fill="#fff"/><path d="m13.468 23.539h2.344v2.53h-2.344z" fill="#4a8bc9"/><path d="m15.8989 26.1557h-2.5168v-2.7028h2.5168zm-2.3444-.1724h2.172v-2.3581h-2.172z" fill="#fff"/><path d="m13.468 26.07h2.344v2.53h-2.344z" fill="#4a8bc9"/><path d="m15.8989 28.6861h-2.5168v-2.7028h2.5168zm-2.3444-.1723h2.172v-2.3581h-2.172z" fill="#fff"/><path d="m4.482 32.487h2.344v2.53h-2.344z" fill="#4a8bc9"/><path d="m6.9125 35.1035h-2.5168v-2.7028h2.5168zm-2.3445-.1724h2.172v-2.3581h-2.172z" fill="#fff"/><path d="m4.482 35.017h2.344v2.53h-2.344z" fill="#4a8bc9"/><path d="m6.9125 37.634h-2.5168v-2.7028h2.5168zm-2.3445-.1724h2.172v-2.3581h-2.172z" fill="#fff"/><path d="m4.482 37.548h2.344v2.53h-2.344z" fill="#4a8bc9"/><path d="m6.9125 40.1644h-2.5168v-2.7028h2.5168zm-2.3445-.1724h2.172v-2.358h-2.172z" fill="#fff"/><path d="m6.826 32.487h2.344v2.53h-2.344z" fill="#4a8bc9"/><path d="m9.2569 35.1035h-2.5168v-2.7028h2.5168zm-2.3444-.1724h2.172v-2.3581h-2.172z" fill="#fff"/><path d="m6.826 35.017h2.344v2.53h-2.344z" fill="#4a8bc9"/><path d="m9.2569 37.634h-2.5168v-2.7028h2.5168zm-2.3444-.1724h2.172v-2.3581h-2.172z" fill="#fff"/><path d="m6.826 37.548h2.344v2.53h-2.344z" fill="#4a8bc9"/><path d="m9.2569 40.1644h-2.5168v-2.7028h2.5168zm-2.3444-.1724h2.172v-2.358h-2.172z" fill="#fff"/><path d="m11.124 32.487h2.344v2.53h-2.344z" fill="#4a8bc9"/><path d="m13.5545 35.1035h-2.5168v-2.7028h2.5168zm-2.3444-.1724h2.172v-2.3581h-2.172z" fill="#fff"/><path d="m11.124 35.017h2.344v2.53h-2.344z" fill="#4a8bc9"/><path d="m13.5545 37.634h-2.5168v-2.7028h2.5168zm-2.3444-.1724h2.172v-2.3581h-2.172z" fill="#fff"/><path d="m11.124 37.548h2.344v2.53h-2.344z" fill="#4a8bc9"/><path d="m13.5545 40.1644h-2.5168v-2.7028h2.5168zm-2.3444-.1724h2.172v-2.358h-2.172z" fill="#fff"/><path d="m13.468 32.487h2.344v2.53h-2.344z" fill="#4a8bc9"/><path d="m15.8989 35.1035h-2.5168v-2.7028h2.5168zm-2.3444-.1724h2.172v-2.3581h-2.172z" fill="#fff"/><path d="m13.468 35.017h2.344v2.53h-2.344z" fill="#4a8bc9"/><path d="m15.8989 37.634h-2.5168v-2.7028h2.5168zm-2.3444-.1724h2.172v-2.3581h-2.172z" fill="#fff"/><path d="m13.468 37.548h2.344v2.53h-2.344z" fill="#4a8bc9"/><path d="m15.8989 40.1644h-2.5168v-2.7028h2.5168zm-2.3444-.1724h2.172v-2.358h-2.172z" fill="#fff"/><path d="m34.273 21.009h2.344v2.53h-2.344z" fill="#4a8bc9"/><path d="m36.7035 23.6252h-2.5168v-2.7028h2.5168zm-2.3444-.1723h2.172v-2.3581h-2.172z" fill="#fff"/><path d="m34.273 23.539h2.344v2.53h-2.344z" fill="#4a8bc9"/><path d="m36.7035 26.1557h-2.5168v-2.7028h2.5168zm-2.3444-.1724h2.172v-2.3581h-2.172z" fill="#fff"/><path d="m34.273 26.07h2.344v2.53h-2.344z" fill="#4a8bc9"/><path d="m36.7035 28.6861h-2.5168v-2.7028h2.5168zm-2.3444-.1723h2.172v-2.3581h-2.172z" fill="#fff"/><path d="m36.617 21.009h2.344v2.53h-2.344z" fill="#4a8bc9"/><path d="m39.0479 23.6252h-2.5168v-2.7028h2.5168zm-2.3444-.1723h2.1721v-2.3581h-2.1721z" fill="#fff"/><path d="m36.617 23.539h2.344v2.53h-2.344z" fill="#4a8bc9"/><path d="m39.0479 26.1557h-2.5168v-2.7028h2.5168zm-2.3444-.1724h2.1721v-2.3581h-2.1721z" fill="#fff"/><path d="m36.617 26.07h2.344v2.53h-2.344z" fill="#4a8bc9"/><path d="m39.0479 28.6861h-2.5168v-2.7028h2.5168zm-2.3444-.1723h2.1721v-2.3581h-2.1721z" fill="#fff"/><path d="m40.915 21.009h2.344v2.53h-2.344z" fill="#4a8bc9"/><path d="m43.3455 23.6252h-2.5168v-2.7028h2.5168zm-2.3444-.1723h2.172v-2.3581h-2.172z" fill="#fff"/><path d="m40.915 23.539h2.344v2.53h-2.344z" fill="#4a8bc9"/><path d="m43.3455 26.1557h-2.5168v-2.7028h2.5168zm-2.3444-.1724h2.172v-2.3581h-2.172z" fill="#fff"/><path d="m40.915 26.07h2.344v2.53h-2.344z" fill="#4a8bc9"/><path d="m43.3455 28.6861h-2.5168v-2.7028h2.5168zm-2.3444-.1723h2.172v-2.3581h-2.172z" fill="#fff"/><path d="m43.259 21.009h2.344v2.53h-2.344z" fill="#4a8bc9"/><path d="m45.6899 23.6252h-2.5168v-2.7028h2.5168zm-2.3444-.1723h2.172v-2.3581h-2.172z" fill="#fff"/><path d="m43.259 23.539h2.344v2.53h-2.344z" fill="#4a8bc9"/><path d="m45.6899 26.1557h-2.5168v-2.7028h2.5168zm-2.3444-.1724h2.172v-2.3581h-2.172z" fill="#fff"/><path d="m43.259 26.07h2.344v2.53h-2.344z" fill="#4a8bc9"/><path d="m45.6899 28.6861h-2.5168v-2.7028h2.5168zm-2.3444-.1723h2.172v-2.3581h-2.172z" fill="#fff"/><path d="m20.477 21.009h1.87v2.53h-1.87z" fill="#4a8bc9"/><path d="m22.4332 23.6252h-2.0424v-2.7028h2.0424zm-1.87-.1723h1.6976v-2.3581h-1.6976z" fill="#fff"/><path d="m20.477 23.539h1.87v2.53h-1.87z" fill="#4a8bc9"/><path d="m22.4332 26.1557h-2.0424v-2.7028h2.0424zm-1.87-.1724h1.6976v-2.3581h-1.6976z" fill="#fff"/><path d="m20.477 26.07h1.87v2.53h-1.87z" fill="#4a8bc9"/><path d="m22.4332 28.6861h-2.0424v-2.7028h2.0424zm-1.87-.1723h1.6976v-2.3581h-1.6976z" fill="#fff"/><path d="m22.347 21.009h1.87v2.53h-1.87z" fill="#4a8bc9"/><path d="m24.3032 23.6252h-2.0423v-2.7028h2.0423zm-1.87-.1723h1.6976v-2.3581h-1.6976z" fill="#fff"/><path d="m22.347 23.539h1.87v2.53h-1.87z" fill="#4a8bc9"/><path d="m24.3032 26.1557h-2.0423v-2.7028h2.0423zm-1.87-.1724h1.6976v-2.3581h-1.6976z" fill="#fff"/><path d="m22.347 26.07h1.87v2.53h-1.87z" fill="#4a8bc9"/><path d="m24.3032 28.6861h-2.0423v-2.7028h2.0423zm-1.87-.1723h1.6976v-2.3581h-1.6976z" fill="#fff"/><path d="m25.775 21.009h1.87v2.53h-1.87z" fill="#4a8bc9"/><path d="m27.7311 23.6252h-2.0423v-2.7028h2.0423zm-1.87-.1723h1.6976v-2.3581h-1.6976z" fill="#fff"/><path d="m25.775 23.539h1.87v2.53h-1.87z" fill="#4a8bc9"/><path d="m27.7311 26.1557h-2.0423v-2.7028h2.0423zm-1.87-.1724h1.6976v-2.3581h-1.6976z" fill="#fff"/><path d="m25.775 26.07h1.87v2.53h-1.87z" fill="#4a8bc9"/><path d="m27.7311 28.6861h-2.0423v-2.7028h2.0423zm-1.87-.1723h1.6976v-2.3581h-1.6976z" fill="#fff"/><path d="m27.645 21.009h1.87v2.53h-1.87z" fill="#4a8bc9"/><path d="m29.6011 23.6252h-2.0424v-2.7028h2.0424zm-1.87-.1723h1.6976v-2.3581h-1.6976z" fill="#fff"/><path d="m27.645 23.539h1.87v2.53h-1.87z" fill="#4a8bc9"/><path d="m29.6011 26.1557h-2.0424v-2.7028h2.0424zm-1.87-.1724h1.6976v-2.3581h-1.6976z" fill="#fff"/><path d="m27.645 26.07h1.87v2.53h-1.87z" fill="#4a8bc9"/><path d="m29.6011 28.6861h-2.0424v-2.7028h2.0424zm-1.87-.1723h1.6976v-2.3581h-1.6976z" fill="#fff"/><path d="m34.273 32.487h2.344v2.53h-2.344z" fill="#4a8bc9"/><path d="m36.7035 35.1035h-2.5168v-2.7028h2.5168zm-2.3444-.1724h2.172v-2.3581h-2.172z" fill="#fff"/><path d="m34.273 35.017h2.344v2.53h-2.344z" fill="#4a8bc9"/><path d="m36.7035 37.634h-2.5168v-2.7028h2.5168zm-2.3444-.1724h2.172v-2.3581h-2.172z" fill="#fff"/><path d="m34.273 37.548h2.344v2.53h-2.344z" fill="#4a8bc9"/><path d="m36.7035 40.1644h-2.5168v-2.7028h2.5168zm-2.3444-.1724h2.172v-2.358h-2.172z" fill="#fff"/><path d="m36.617 32.487h2.344v2.53h-2.344z" fill="#4a8bc9"/><path d="m39.0479 35.1035h-2.5168v-2.7028h2.5168zm-2.3444-.1724h2.1721v-2.3581h-2.1721z" fill="#fff"/><path d="m36.617 35.017h2.344v2.53h-2.344z" fill="#4a8bc9"/><path d="m39.0479 37.634h-2.5168v-2.7028h2.5168zm-2.3444-.1724h2.1721v-2.3581h-2.1721z" fill="#fff"/><path d="m36.617 37.548h2.344v2.53h-2.344z" fill="#4a8bc9"/><path d="m39.0479 40.1644h-2.5168v-2.7028h2.5168zm-2.3444-.1724h2.1721v-2.358h-2.1721z" fill="#fff"/><path d="m40.915 32.487h2.344v2.53h-2.344z" fill="#4a8bc9"/><path d="m43.3455 35.1035h-2.5168v-2.7028h2.5168zm-2.3444-.1724h2.172v-2.3581h-2.172z" fill="#fff"/><path d="m40.915 35.017h2.344v2.53h-2.344z" fill="#4a8bc9"/><path d="m43.3455 37.634h-2.5168v-2.7028h2.5168zm-2.3444-.1724h2.172v-2.3581h-2.172z" fill="#fff"/><path d="m40.915 37.548h2.344v2.53h-2.344z" fill="#4a8bc9"/><path d="m43.3455 40.1644h-2.5168v-2.7028h2.5168zm-2.3444-.1724h2.172v-2.358h-2.172z" fill="#fff"/><path d="m43.259 32.487h2.344v2.53h-2.344z" fill="#4a8bc9"/><path d="m45.6899 35.1035h-2.5168v-2.7028h2.5168zm-2.3444-.1724h2.172v-2.3581h-2.172z" fill="#fff"/><path d="m43.259 35.017h2.344v2.53h-2.344z" fill="#4a8bc9"/><path d="m45.6899 37.634h-2.5168v-2.7028h2.5168zm-2.3444-.1724h2.172v-2.3581h-2.172z" fill="#fff"/><path d="m43.259 37.548h2.344v2.53h-2.344z" fill="#4a8bc9"/><path d="m45.6899 40.1644h-2.5168v-2.7028h2.5168zm-2.3444-.1724h2.172v-2.358h-2.172z" fill="#fff"/><path d="m28.8442 43.4301h-7.6115v-11.9447c2.4111-1.4747 4.9544-1.4038 7.6115 0z" fill="#ee7373"/><path d="m28.1304 33.1037v-1.2375c-1.1199-.5394-2.2052-.8125-3.2311-.8125-1.0213 0-1.9907.2576-2.9528.7861v1.2639z" fill="#d25c59"/><path d="m22.737 34.489h4.603v8.941h-4.603z" fill="#d25c59"/><path d="m20.829 33.581h8.506v.433h-8.506z" fill="#d25c59"/><path d="m32.036 18.868h.799v24.562h-.799z" fill="#d2d2d2"/><path d="m17.157 18.868h.799v24.562h-.799z" fill="#d2d2d2"/><path d="m48.9045 43.9223v2.6291c0 .2707-.2195.4902-.4902.4902h-46.8698c-.2707 0-.4902-.2195-.4902-.4902v-2.6291c0-.2707.2195-.4902.4902-.4902h46.8698c.2707 0 .4902.2195.4902.4902z" fill="#9ccc65"/><path d="m9.4028 43.7278c-.3195 0-.599-.1298-.7787-.3195-.2157.0784-.597.0761-.9284-.0799-.2696.2496-.6489.3993-1.0782.3993-.7986 0-1.4475-.5291-1.4475-1.168 0-1.0217 1.5044-1.5346 2.4159-.8685.6807-.3745 1.5251-.1287 1.8069.4193h.01c1.3269 0 1.3163 1.6173 0 1.6173z" fill="#8ec163"/><path d="m10.3764 43.0558c-.0499.3394-.3594.599-.6888.6789-.3594.0998-.7886.0399-1.0781-.2296-.13.0173-.5286.1186-.8985-.0399-.4392.3494-1.0382.4093-1.5473.2696-.5191-.1498-.9983-.589-.9983-1.1481.0499.5391.5391.9284 1.0282 1.0282.5091.1099 1.0682-.0199 1.4176-.3793l.0599-.0599c.1007.0294.2961.2472.9983.1497.1033.0646.3278.4598.9983.3295.3094-.05.6288-.2697.7087-.5991z" fill="#7ba452"/><path d="m44.5229 42.9191c0 .758-1.1906 1.1082-1.777.4892-.2157.0784-.597.0761-.9284-.0799-.2696.2496-.6489.3993-1.0782.3993-.7986 0-1.4475-.5291-1.4475-1.168 0-1.0217 1.5044-1.5346 2.4159-.8685.6807-.3745 1.5251-.1287 1.8069.4193.1002.0357 1.0083.0363 1.0083.8086z" fill="#8ec163"/><path d="m44.5078 43.0558c-.0599.3394-.3694.599-.6988.6789-.3594.0998-.7886.0399-1.0781-.2296-.125.0156-.5223.1213-.8985-.0399-.4392.3494-1.0382.4093-1.5473.2696-.5291-.1498-1.0183-.609-.9883-1.178.0199.559.5191.9584 1.0182 1.0582.5091.1099 1.0682-.0199 1.4176-.3793l.0599-.0599.0798.0399c.4128.2223.7088.0992.9185.1098.1033.0646.3278.4598.9983.3295.3094-.0501.6289-.2698.7187-.5992z" fill="#7ba452"/><path d="m4.752 40.066h.598v3.366h-.598z" fill="#a77a4e"/><path d="m8.2688 32.5731-2.5378 7.4189h-1.1166l2.5378-7.4189z" fill="#fff" opacity=".3"/><path d="m9.0382 32.5731-2.5378 7.4189h-.4252l2.5378-7.4189z" fill="#fff" opacity=".3"/><path d="m5.9596 38.0895c0 1.361-.4096 2.4586-.9011 2.4586-.1092 0-.2322-.0586-.3277-.161-.3413-.3512-.5871-1.2439-.5871-2.2976 0-1.3611.4097-2.4732.9148-2.4732.0136 0 .0273 0 .0409.0146.4779.0438.8602 1.1414.8602 2.4586z" fill="#8ec163"/><path d="m5.7002 37.9431c0 1.361-.4096 2.4586-.9011 2.4586-.0273 0-.041 0-.0683-.0146-.3413-.3512-.5871-1.2439-.5871-2.2976 0-1.3611.4097-2.4732.9148-2.4732.0136 0 .0273 0 .0409.0146.3414.3219.6008 1.2439.6008 2.3122z" fill="#9ccc65"/><path d="m1.677 40.066h.598v3.366h-.598z" fill="#a77a4e"/><path d="m2.8839 38.0895c0 1.361-.4096 2.4586-.9011 2.4586-.1092 0-.2322-.0586-.3277-.161-.3413-.3512-.5871-1.2439-.5871-2.2976 0-1.3611.4097-2.4732.9148-2.4732.0136 0 .0272 0 .0409.0146.478.0438.8602 1.1414.8602 2.4586z" fill="#8ec163"/><path d="m2.6245 37.9431c0 1.361-.4096 2.4586-.9011 2.4586-.0273 0-.041 0-.0683-.0146-.3413-.3512-.5871-1.2439-.5871-2.2976 0-1.3611.4097-2.4732.9148-2.4732.0136 0 .0272 0 .0409.0146.3414.3219.6008 1.2439.6008 2.3122z" fill="#9ccc65"/><path d="m2.964 39.027h1.1v4.405h-1.1z" fill="#a77a4e"/><path d="m5.1825 36.4404c0 1.7811-.7528 3.2175-1.6561 3.2175-.2008 0-.4267-.0767-.6024-.2108-.6273-.4596-1.079-1.6279-1.079-3.0068 0-1.7812.7529-3.2367 1.6814-3.2367.025 0 .0501 0 .0752.0191.8784.0575 1.5809 1.4939 1.5809 3.2177z" fill="#7ba452"/><path d="m4.7057 36.2488c0 1.7811-.7528 3.2175-1.6561 3.2175-.0502 0-.0754 0-.1256-.0192-.6273-.4596-1.079-1.6279-1.079-3.0068 0-1.7812.7529-3.2367 1.6814-3.2367.025 0 .0501 0 .0752.0191.6274.4214 1.1041 1.628 1.1041 3.0261z" fill="#8ec163"/><path d="m47.731 40.066h.598v3.366h-.598z" fill="#a77a4e"/><path d="m48.9376 38.0895c0 1.361-.4096 2.4586-.9011 2.4586-.1092 0-.2322-.0586-.3277-.161-.3413-.3512-.5871-1.2439-.5871-2.2976 0-1.3611.4097-2.4732.9148-2.4732.0136 0 .0272 0 .0409.0146.478.0438.8602 1.1414.8602 2.4586z" fill="#8ec163"/><path d="m48.6782 37.9431c0 1.361-.4096 2.4586-.9011 2.4586-.0273 0-.041 0-.0683-.0146-.3413-.3512-.5871-1.2439-.5871-2.2976 0-1.3611.4097-2.4732.9148-2.4732.0136 0 .0272 0 .0409.0146.3414.3219.6008 1.2439.6008 2.3122z" fill="#9ccc65"/><path d="m44.655 40.066h.598v3.366h-.598z" fill="#a77a4e"/><path d="m45.862 38.0895c0 1.361-.4096 2.4586-.9011 2.4586-.1092 0-.2322-.0586-.3277-.161-.3413-.3512-.5871-1.2439-.5871-2.2976 0-1.3611.4097-2.4732.9148-2.4732.0136 0 .0273 0 .0409.0146.4779.0438.8602 1.1414.8602 2.4586z" fill="#8ec163"/><path d="m45.6026 37.9431c0 1.361-.4096 2.4586-.9011 2.4586-.0273 0-.041 0-.0683-.0146-.3413-.3512-.5871-1.2439-.5871-2.2976 0-1.3611.4097-2.4732.9148-2.4732.0136 0 .0273 0 .0409.0146.3413.3219.6008 1.2439.6008 2.3122z" fill="#9ccc65"/><path d="m45.942 39.027h1.1v4.405h-1.1z" fill="#a77a4e"/><path d="m48.1606 36.4404c0 1.7811-.7528 3.2175-1.6561 3.2175-.2008 0-.4267-.0767-.6024-.2108-.6273-.4596-1.079-1.6279-1.079-3.0068 0-1.7812.7529-3.2367 1.6814-3.2367.025 0 .0501 0 .0752.0191.8783.0575 1.5809 1.4939 1.5809 3.2177z" fill="#7ba452"/><path d="m47.6838 36.2488c0 1.7811-.7528 3.2175-1.6561 3.2175-.0502 0-.0754 0-.1256-.0192-.6273-.4596-1.079-1.6279-1.079-3.0068 0-1.7812.7529-3.2367 1.6814-3.2367.025 0 .0501 0 .0752.0191.6273.4214 1.1041 1.628 1.1041 3.0261z" fill="#8ec163"/><path d="m35.4934 42.091c0 .6004-.1958 1.0871-.4361 1.0871-.0297 0-.0593-.008-.0861-.0227-.1988-.1003-.3501-.5389-.3501-1.0644s.1513-.9641.3501-1.0643c.0267-.0147.0564-.0227.0861-.0227.2403-.0001.4361.4866.4361 1.087z" fill="#7ba452"/><path d="m35.3154 42.091c0 .5255-.1483.9641-.3442 1.0644-.1988-.1003-.3501-.5389-.3501-1.0644s.1513-.9641.3501-1.0643c.1959.1002.3442.5388.3442 1.0643z" fill="#8ec163"/><path d="m35.4794 43.4351h-.8442l-.1012-.5672h1.0466z" fill="url(#New_Pattern_Swatch_2)"/><path d="m37.3736 42.091c0 .6004-.1958 1.0871-.4361 1.0871-.0297 0-.0593-.008-.086-.0227-.1988-.1003-.3501-.5389-.3501-1.0644s.1513-.9641.3501-1.0643c.0267-.0147.0564-.0227.086-.0227.2403-.0001.4361.4866.4361 1.087z" fill="#7ba452"/><path d="m37.1956 42.091c0 .5255-.1483.9641-.3442 1.0644-.1988-.1003-.3501-.5389-.3501-1.0644s.1513-.9641.3501-1.0643c.1959.1002.3442.5388.3442 1.0643z" fill="#8ec163"/><path d="m37.3596 43.4351h-.8442l-.1012-.5672h1.0466z" fill="url(#New_Pattern_Swatch_2)"/><path d="m13.4612 42.091c0 .6004-.1958 1.0871-.4361 1.0871-.0297 0-.0593-.008-.0861-.0227-.1988-.1003-.3501-.5389-.3501-1.0644s.1513-.9641.3501-1.0643c.0267-.0147.0564-.0227.0861-.0227.2403-.0001.4361.4866.4361 1.087z" fill="#7ba452"/><path d="m13.2832 42.091c0 .5255-.1483.9641-.3442 1.0644-.1988-.1003-.3501-.5389-.3501-1.0644s.1513-.9641.3501-1.0643c.1958.1002.3442.5388.3442 1.0643z" fill="#8ec163"/><path d="m13.4471 43.4351h-.8441l-.1013-.5672h1.0466z" fill="url(#New_Pattern_Swatch_2)"/><path d="m15.3414 42.091c0 .6004-.1958 1.0871-.4361 1.0871-.0297 0-.0593-.008-.0861-.0227-.1988-.1003-.3501-.5389-.3501-1.0644s.1513-.9641.3501-1.0643c.0267-.0147.0564-.0227.0861-.0227.2403-.0001.4361.4866.4361 1.087z" fill="#7ba452"/><path d="m15.1634 42.091c0 .5255-.1483.9641-.3442 1.0644-.1988-.1003-.3501-.5389-.3501-1.0644s.1513-.9641.3501-1.0643c.1958.1002.3442.5388.3442 1.0643z" fill="#8ec163"/><path d="m15.3273 43.4351h-.8441l-.1013-.5672h1.0466z" fill="url(#New_Pattern_Swatch_2)"/><g fill="#fff"><path d="m44.7278 21.0948-2.5835 7.419h-1.1368l2.5836-7.419z" opacity=".3"/><path d="m44.7278 32.5731-2.5835 7.4189h-1.1368l2.5836-7.4189z" opacity=".3"/><path d="m45.5111 21.0948-2.5836 7.419h-.4328l2.5835-7.419z" opacity=".3"/><path d="m45.5111 32.5731-2.5836 7.4189h-.4328l2.5835-7.4189z" opacity=".3"/><path d="m38.1062 21.0948-2.5378 7.419h-1.1167l2.5378-7.419z" opacity=".3"/><path d="m38.8755 21.0948-2.5378 7.419h-.4252l2.5378-7.419z" opacity=".3"/><path d="m38.1062 32.5731-2.5378 7.4189h-1.1167l2.5378-7.4189z" opacity=".3"/><path d="m38.8755 32.5731-2.5378 7.4189h-.4252l2.5378-7.4189z" opacity=".3"/><path d="m14.9572 32.5731-2.5378 7.4189h-1.1167l2.5378-7.4189z" opacity=".3"/><path d="m15.7265 32.5731-2.5378 7.4189h-.4252l2.5378-7.4189z" opacity=".3"/><path d="m8.2688 21.0948-2.5378 7.419h-1.1166l2.5378-7.419z" opacity=".3"/><path d="m9.0382 21.0948-2.5378 7.419h-.4252l2.5378-7.419z" opacity=".3"/><path d="m14.9572 21.0948-2.5378 7.419h-1.1167l2.5378-7.419z" opacity=".3"/><path d="m15.7265 21.0948-2.5378 7.419h-.4252l2.5378-7.419z" opacity=".3"/><path d="m28.4659 21.0948-.9625 7.419h-1.1167l.9625-7.419z" opacity=".3"/><path d="m29.2352 21.0948-.9625 7.419h-.4252l.9625-7.419z" opacity=".3"/><path d="m23.0881 21.0948-.9625 7.419h-1.1166l.9625-7.419z" opacity=".3"/><path d="m23.8575 21.0948-.9625 7.419h-.4252l.9625-7.419z" opacity=".3"/><path d="m27.0341 38.954c0 .21-.17.39-.39.39-.21 0-.38-.18-.38-.39s.17-.3799.38-.3799c.22 0 .39.17.39.3799z"/></g></g></g><path d="m34.3327 19.5241h-18.6773l9.3387-9.2437z" fill="#a77a4e"/></g></svg>