<svg id="Layer_1" enable-background="new 0 0 68 68" height="512" viewBox="0 0 68 68" width="512" xmlns="http://www.w3.org/2000/svg"><g><g><path d="m50.7900391 4.4599609v7.2001953h-33.5800782v-7.2001953c0-1.3598632 1.0998536-2.4599609 2.459961-2.4599609h28.6599121c1.3601074 0 2.4602051 1.1000977 2.4602051 2.4599609z" fill="#e5e8ef"/></g><g><path d="m17.21 6.79h33.58v4.87h-33.58z" fill="#cdd4df"/></g><g><path d="m57.25 12.1699219v50.8300781h-46.5v-50.8300781c0-1.8701172 1.5097656-3.3798828 3.369873-3.3798828h39.7600098c1.8598633 0 3.3701172 1.5097656 3.3701172 3.3798828z" fill="#e5e8ef"/></g><g><path d="m57.25 63.0032539h-46.5l43.1274414-54.208332c1.8626137 0 3.3725586 1.5099459 3.3725586 3.3725586z" fill="#cdd4df"/></g><g><path d="m40.4499512 50.3300781v12.7397461h-12.9001465v-12.7397461c0-1.1904297.9702148-2.1601563 2.1601563-2.1601563h8.5800781c1.1899414.0000001 2.1599121.9697266 2.1599121 2.1601563z" fill="#435e88"/></g><g><path d="m27.5515404 63.0668945 10.7376595-14.8969727c1.1925545 0 2.1593132.9667587 2.1593132 2.159317v12.7376556h-12.8969727z" fill="#33527d"/></g><g><g><g><path d="m52.25 39.8398438v7.0800781c0 .8398438-.6801758 1.5200195-1.5200195 1.5200195h-7.0900879c-.8400879 0-1.5200195-.6801758-1.5200195-1.5200195v-7.0800781c0-.8398438.6799316-1.5200195 1.5200195-1.5200195h7.0900879c.8398437-.0000001 1.5200195.6801757 1.5200195 1.5200195z" fill="#5cbeff"/></g><g><path d="m52.25 39.8398438v7.0800781c0 .8398438-.6801758 1.5200195-1.5200195 1.5200195h-7.0900879c-.5200195 0-.9699707-.2602539-1.2399902-.6499023l9.3200684-9.0898438c.3298339.2695313.5300292.6796875.5300292 1.1396485z" fill="#079cff"/></g></g><g><g><path d="m52.25 27.5800781v7.0800781c0 .8398438-.6801758 1.5195313-1.5200195 1.5195313h-7.0900879c-.8400879 0-1.5200195-.6796875-1.5200195-1.5195313v-7.0800781c0-.840332.6799316-1.5200195 1.5200195-1.5200195h7.0900879c.8398437 0 1.5200195.6796875 1.5200195 1.5200195z" fill="#5cbeff"/></g><g><path d="m52.25 27.579834v7.0800781c0 .8398438-.6801758 1.5200195-1.5200195 1.5200195h-7.0900879c-.5200195 0-.9699707-.2602539-1.2399902-.6499023l9.3200684-9.0898438c.3298339.2695313.5300292.6796875.5300292 1.1396485z" fill="#079cff"/></g></g><g><g><path d="m52.25 15.3198242v7.0800781c0 .8398438-.6801758 1.5200195-1.5200195 1.5200195h-7.0900879c-.8400879 0-1.5200195-.6801758-1.5200195-1.5200195v-7.0800781c0-.8398438.6799316-1.5200195 1.5200195-1.5200195h7.0900879c.8398437 0 1.5200195.6801758 1.5200195 1.5200195z" fill="#5cbeff"/></g><g><path d="m52.25 15.3209047v7.0800772c0 .8398438-.6801758 1.5200195-1.5200195 1.5200195h-7.0900879c-.5200195 0-.9699707-.2602539-1.2399902-.6499023l9.3200684-9.0898428c.3298339.2695312.5300292.6796875.5300292 1.1396484z" fill="#079cff"/></g></g></g><g><g><g><path d="m39.0698242 27.5800781v7.0800781c0 .8398438-.6799316 1.5195313-1.5200195 1.5195313h-7.0898438c-.8400879 0-1.5200195-.6796875-1.5200195-1.5195313v-7.0800781c0-.840332.6799316-1.5200195 1.5200195-1.5200195h7.0898438c.8400879 0 1.5200195.6796875 1.5200195 1.5200195z" fill="#5cbeff"/></g><g><path d="m39.0650902 27.579834v7.0800781c0 .8398438-.6801758 1.5200195-1.5200195 1.5200195h-7.0900879c-.5200195 0-.9699707-.2602539-1.2399902-.6499023l9.3200684-9.0898438c.3298339.2695313.5300292.6796875.5300292 1.1396485z" fill="#079cff"/></g></g><g><g><path d="m39.0650902 15.3209047v7.0800772c0 .8398438-.6801758 1.5200195-1.5200195 1.5200195h-7.0900879c-.8400879 0-1.5200195-.6801758-1.5200195-1.5200195v-7.0800772c0-.8398438.6799316-1.5200195 1.5200195-1.5200195h7.0900879c.8398437 0 1.5200195.6801758 1.5200195 1.5200195z" fill="#5cbeff"/></g><g><path d="m39.0650902 15.3209047v7.0800772c0 .8398438-.6801758 1.5200195-1.5200195 1.5200195h-7.0900879c-.5200195 0-.9699707-.2602539-1.2399902-.6499023l9.3200684-9.0898428c.3298339.2695312.5300292.6796875.5300292 1.1396484z" fill="#079cff"/></g></g></g><g><g><g><path d="m25.8798828 39.8398438v7.0800781c0 .8398438-.6799316 1.5200195-1.5200195 1.5200195h-7.0898438c-.8400879 0-1.5200195-.6801758-1.5200195-1.5200195v-7.0800781c0-.8398438.6799316-1.5200195 1.5200195-1.5200195h7.0898438c.8400879-.0000001 1.5200195.6801757 1.5200195 1.5200195z" fill="#5cbeff"/></g><g><path d="m25.8801804 39.8398438v7.0800781c0 .8398438-.6801758 1.5200195-1.5200195 1.5200195h-7.0900879c-.5200195 0-.9699707-.2602539-1.2399902-.6499023l9.3200684-9.0898438c.3298338.2695313.5300292.6796875.5300292 1.1396485z" fill="#079cff"/></g></g><g><g><path d="m25.8801804 27.579834v7.0800781c0 .8398438-.6801758 1.5200195-1.5200195 1.5200195h-7.0900879c-.8400879 0-1.5200195-.6801758-1.5200195-1.5200195v-7.0800781c0-.8398438.6799316-1.5200195 1.5200195-1.5200195h7.0900879c.8398437 0 1.5200195.6801757 1.5200195 1.5200195z" fill="#5cbeff"/></g><g><path d="m25.8801804 27.579834v7.0800781c0 .8398438-.6801758 1.5200195-1.5200195 1.5200195h-7.0900879c-.5200195 0-.9699707-.2602539-1.2399902-.6499023l9.3200684-9.0898438c.3298338.2695313.5300292.6796875.5300292 1.1396485z" fill="#079cff"/></g></g><g><g><path d="m25.8798828 15.3198242v7.0800781c0 .8398438-.6799316 1.5200195-1.5200195 1.5200195h-7.0898438c-.8400879 0-1.5200195-.6801758-1.5200195-1.5200195v-7.0800781c0-.8398438.6799316-1.5200195 1.5200195-1.5200195h7.0898438c.8400879 0 1.5200195.6801758 1.5200195 1.5200195z" fill="#5cbeff"/></g><g><path d="m25.8801804 15.3209047v7.0800772c0 .8398438-.6801758 1.5200195-1.5200195 1.5200195h-7.0900879c-.5200195 0-.9699707-.2602539-1.2399902-.6499023l9.3200684-9.0898428c.3298338.2695312.5300292.6796875.5300292 1.1396484z" fill="#079cff"/></g></g></g><g><g><path d="m15.125 50.6907539c0 3.6243706-2.9381313 6.5625-6.5625 6.5625s-6.5625-2.9381294-6.5625-6.5625c0-3.6243668 2.9381313-11.5625 6.5625-11.5625s6.5625 7.9381333 6.5625 11.5625z" fill="#4cc66e"/></g><g><path d="m15.125 50.6931953c0 3.6201172-2.9399414 6.5600586-6.5600586 6.5600586-1.1298828 0-2.1999512-.2900391-3.1298828-.7900391.25.0302734.5.0400391.75.0400391 3.6298828 0 6.5698242-2.9399414 6.5698242-6.5600586 0-2.9301758-1.9199219-8.6899414-4.579834-10.7797852.1298828-.0200195.2600098-.0302734.3898926-.0302734 3.6201172 0 6.5600586 7.9301758 6.5600586 11.5600586z" fill="#14a142"/></g><g><g><path d="m8.5625 64.6502304c-.5522461 0-1-.4477539-1-1.0000038v-15.4594727c0-.5522461.4477539-1 1-1s1 .4477539 1 1v15.4594727c0 .5522499-.4477539 1.0000038-1 1.0000038z" fill="#14a142"/></g></g></g><g><g><path d="m66 50.6907539c0 3.6243706-2.9381294 6.5625-6.5625 6.5625s-6.5625-2.9381294-6.5625-6.5625c0-3.6243668 2.9381294-11.5625 6.5625-11.5625s6.5625 7.9381333 6.5625 11.5625z" fill="#4cc66e"/></g><g><path d="m66 50.6931953c0 3.6201172-2.9399414 6.5600586-6.5600586 6.5600586-1.1298828 0-2.1999512-.2900391-3.1298828-.7900391.25.0302734.5.0400391.75.0400391 3.6298828 0 6.5698242-2.9399414 6.5698242-6.5600586 0-2.9301758-1.9199219-8.6899414-4.579834-10.7797852.1298828-.0200195.2600098-.0302734.3898926-.0302734 3.6201172 0 6.5600586 7.9301758 6.5600586 11.5600586z" fill="#14a142"/></g><g><g><path d="m59.4375 64.6502304c-.5522461 0-1-.4477539-1-1.0000038v-15.4594727c0-.5522461.4477539-1 1-1s1 .4477539 1 1v15.4594727c0 .5522499-.4477539 1.0000038-1 1.0000038z" fill="#14a142"/></g></g></g><g><path d="m66 63.9599609c0 .5698242-.2299805 1.0698242-.6000977 1.4399414s-.8701171.6000977-1.4399414.6000977h-59.9199218c-1.130127 0-2.0400391-.9101562-2.0400391-2.0400391 0-.5703125.2299805-1.0703125.5998535-1.4399414.3701172-.3701172.8701172-.6000977 1.4401855-.6000977h59.9199219c1.1298829.0000001 2.0400391.9101563 2.0400391 2.0400391z" fill="#435e88"/></g><g><path d="m66 63.9599609c0 .5698242-.2299805 1.0698242-.6000977 1.4399414s-.8701171.6000977-1.4399414.6000977h-10.25c.5698242 0 1.0698242-.2299805 1.4399414-.6000977s.6000977-.8701171.6000977-1.4399414c0-1.1298828-.9101563-2.0400391-2.0400391-2.0400391h10.25c1.1298829.0000001 2.0400391.9101563 2.0400391 2.0400391z" fill="#33527d"/></g></g></svg>