<svg id="Layer_1" enable-background="new 0 0 512 512" height="512" viewBox="0 0 512 512" width="512" xmlns="http://www.w3.org/2000/svg"><g><path d="m95.391 116.938c-1.239-2.989-4.156-4.938-7.391-4.938h-20.9l12.49-37.47c1.173-3.52-.228-7.384-3.384-9.335-3.157-1.951-7.24-1.476-9.863 1.148l-48 48c-2.288 2.288-2.972 5.729-1.733 8.718s4.155 4.939 7.39 4.939h20.9l-12.49 37.47c-1.173 3.52.228 7.384 3.384 9.335 1.3.803 2.756 1.195 4.203 1.195 2.068 0 4.116-.8 5.66-2.343l48-48c2.288-2.288 2.972-5.729 1.734-8.719z" fill="#faa019"/><g><g><path d="m128 208h64v240h-64z" fill="#463c4b"/></g></g><g><g><path d="m144 240h-16v208h32v-192c0-8.837-7.163-16-16-16z" fill="#555a6e"/></g></g><g><g><path d="m128 224h48c17.673 0 32-14.327 32-32 0-17.673-14.327-32-32-32h-48c-17.673 0-32 14.327-32 32 0 17.673 14.327 32 32 32z" fill="#555a6e"/></g></g><g><g><circle cx="176" cy="192" fill="#463c4b" r="32"/></g></g><g><g><g><path d="m168 16h-8c-4.418 0-8 3.582-8 8v120c0 8.837 7.163 16 16 16h16c8.837 0 16-7.163 16-16v-96c0-17.673-14.327-32-32-32z" fill="#a5c3dc"/></g></g><g><g><path d="m168 160c-8.837 0-16-7.163-16-16v-120c0-4.418 3.582-8 8-8h8z" fill="#d7e6f0"/></g></g></g><g><g><g><path d="m27.58 286.928 4 6.928c2.209 3.826 7.102 5.137 10.928 2.928l103.923-60c7.653-4.418 10.275-14.204 5.856-21.856l-8-13.856c-4.418-7.653-14.204-10.275-21.856-5.856l-83.138 48c-15.306 8.836-20.55 28.407-11.713 43.712z" fill="#a5c3dc"/></g></g><g><g><path d="m152.287 214.928c4.418 7.653 1.796 17.438-5.856 21.856l-103.923 60c-3.826 2.209-8.719.898-10.928-2.928l-4-6.928z" fill="#d7e6f0"/></g></g></g><g><g><g><path d="m332.42 273.072 4-6.928c2.209-3.826.898-8.719-2.928-10.928l-103.923-60c-7.653-4.418-17.438-1.796-21.856 5.856l-8 13.856c-4.418 7.653-1.796 17.438 5.856 21.856l83.138 48c15.306 8.837 34.877 3.593 43.713-11.712z" fill="#a5c3dc"/></g></g><g><g><path d="m207.713 201.072c4.418-7.653 14.204-10.275 21.856-5.856l103.923 60c3.826 2.209 5.137 7.102 2.928 10.928l-4 6.928z" fill="#d7e6f0"/></g></g></g><g><g><g><g><path d="m200 224h-24c-17.673 0-32-14.327-32-32 0-17.673 14.327-32 32-32h24c17.673 0 32 14.327 32 32 0 17.673-14.327 32-32 32z" fill="#5ad7ff"/></g></g></g><g><g><path d="m200 224h-24c-17.673 0-32-14.327-32-32h45.333c5.891 0 10.667-4.776 10.667-10.667v-21.333c17.673 0 32 14.327 32 32 0 17.673-14.327 32-32 32z" fill="#23aae6"/></g></g></g><g><g><g><circle cx="368" cy="128" fill="#91c83c" r="112"/></g></g><g fill="#4b9641"><path d="m453.657 122.343-16-16c-3.125-3.124-8.189-3.124-11.314 0l-16 16c-2.288 2.288-2.972 5.729-1.733 8.718s4.155 4.939 7.39 4.939h7.419c-3.895 27.101-27.257 48-55.419 48-14.958 0-29.021-5.825-39.599-16.402-3.123-3.124-8.188-3.124-11.313 0-3.124 3.124-3.124 8.189.001 11.314 13.599 13.599 31.68 21.088 50.911 21.088 36.996 0 67.551-28.052 71.545-64h8.455c3.235 0 6.152-1.949 7.391-4.938s.554-6.431-1.734-8.719z"/><path d="m327.391 124.938c-1.239-2.989-4.156-4.938-7.391-4.938h-7.419c3.895-27.101 27.257-48 55.419-48 14.958 0 29.021 5.825 39.599 16.402 3.123 3.124 8.188 3.124 11.313 0 3.124-3.124 3.124-8.189-.001-11.314-13.598-13.599-31.68-21.088-50.911-21.088-36.996 0-67.551 28.052-71.545 64h-8.455c-3.235 0-6.152 1.949-7.391 4.938s-.555 6.43 1.733 8.718l16 16c1.563 1.562 3.609 2.343 5.657 2.343s4.095-.781 5.657-2.343l16-16c2.289-2.287 2.973-5.728 1.735-8.718z"/></g></g><g><g><g><g><path d="m344 400h40v24h-40z" fill="#463c4b"/></g></g><g><g><path d="m418 448h-108c-3.314 0-6-2.686-6-6 0-9.941 8.059-18 18-18h84c9.941 0 18 8.059 18 18 0 3.314-2.686 6-6 6z" fill="#555a6e"/></g></g></g><g><g><g><path d="m248 384v-112c0-8.837 7.163-16 16-16h200c8.837 0 16 7.163 16 16v112c0 8.837-7.163 16-16 16h-200c-8.837 0-16-7.163-16-16z" fill="#a5c3dc"/></g></g><g><g><path d="m248 352v-80c0-8.837 7.163-16 16-16h200c8.837 0 16 7.163 16 16v80c0 8.837-7.163 16-16 16h-200c-8.837 0-16-7.163-16-16z" fill="#d7e6f0"/></g></g></g><g><g><g><g><path d="m312 304h-40c-4.418 0-8-3.582-8-8v-16c0-4.418 3.582-8 8-8h40c4.418 0 8 3.582 8 8v16c0 4.418-3.582 8-8 8z" fill="#23aae6"/></g></g><g><g><path d="m384 304h-40c-4.418 0-8-3.582-8-8v-16c0-4.418 3.582-8 8-8h40c4.418 0 8 3.582 8 8v16c0 4.418-3.582 8-8 8z" fill="#23aae6"/></g></g><g><g><path d="m456 304h-40c-4.418 0-8-3.582-8-8v-16c0-4.418 3.582-8 8-8h40c4.418 0 8 3.582 8 8v16c0 4.418-3.582 8-8 8z" fill="#23aae6"/></g></g></g><g><g><g><path d="m312 352h-40c-4.418 0-8-3.582-8-8v-16c0-4.418 3.582-8 8-8h40c4.418 0 8 3.582 8 8v16c0 4.418-3.582 8-8 8z" fill="#23aae6"/></g></g><g><g><path d="m384 352h-40c-4.418 0-8-3.582-8-8v-16c0-4.418 3.582-8 8-8h40c4.418 0 8 3.582 8 8v16c0 4.418-3.582 8-8 8z" fill="#23aae6"/></g></g><g><g><path d="m456 352h-40c-4.418 0-8-3.582-8-8v-16c0-4.418 3.582-8 8-8h40c4.418 0 8 3.582 8 8v16c0 4.418-3.582 8-8 8z" fill="#23aae6"/></g></g></g></g></g><g><g><path d="m488 496h-464c-4.418 0-8-3.582-8-8v-32c0-4.418 3.582-8 8-8h464c4.418 0 8 3.582 8 8v32c0 4.418-3.582 8-8 8z" fill="#4b9641"/></g></g><g><g><path d="m488 464h-464c-4.418 0-8-3.582-8-8 0-4.418 3.582-8 8-8h464c4.418 0 8 3.582 8 8 0 4.418-3.582 8-8 8z" fill="#91c83c"/></g></g></g></svg>