<svg id="Layer_1" height="512" viewBox="0 0 512 512" width="512" xmlns="http://www.w3.org/2000/svg"><g><circle cx="256.001" cy="267" fill="#ffca45" r="245"/><g><g><path d="m464.981 394.93c-80.846 131.827-268.977 155.658-379.91 47.59-28.159-111.254-56.317-222.507-84.48-333.76-2.85-11.28 4.86-22.95 17.22-26.08 107.862-27.304 215.727-54.6 323.59-81.9 12.37-3.13 24.7 3.47 27.56 14.75 32.001 126.468 64.013 252.933 96.02 379.4z" fill="#eaf2ff"/></g><g><g><path d="m314.371 95.972-227.493 57.578c-4.015 1.016-8.095-1.415-9.111-5.431s1.415-8.095 5.431-9.111l227.493-57.578c4.015-1.016 8.095 1.415 9.111 5.431s-1.416 8.095-5.431 9.111z" fill="#76beff"/></g><g><path d="m328.357 151.23-227.493 57.578c-4.015 1.016-8.095-1.415-9.111-5.431s1.415-8.095 5.431-9.111l227.493-57.578c4.015-1.016 8.095 1.415 9.111 5.431s-1.416 8.095-5.431 9.111z" fill="#76beff"/></g><g><path d="m343.017 209.154-227.493 57.578c-4.015 1.016-8.095-1.415-9.111-5.431s1.415-8.095 5.431-9.111l227.493-57.578c4.016-1.016 8.095 1.415 9.111 5.431s-1.416 8.094-5.431 9.111z" fill="#76beff"/></g><g><path d="m355.223 257.383-227.493 57.578c-4.015 1.016-8.095-1.415-9.111-5.431s1.415-8.095 5.431-9.111l227.493-57.578c4.015-1.016 8.095 1.415 9.111 5.431s-1.415 8.095-5.431 9.111z" fill="#76beff"/></g><g><g><g><path d="m243.117 402.32c9.267 36.615-12.983 73.946-49.599 83.213-36.615 9.267-73.946-12.983-83.213-49.599s12.984-73.946 49.599-83.213 73.946 12.983 83.213 49.599z" fill="#36b990"/></g></g><g><path d="m172.573 455.762c-1.861.471-3.901.232-5.68-.828l-34.014-20.274c-3.558-2.121-4.723-6.724-2.603-10.283 2.121-3.557 6.725-4.722 10.282-2.602l27.572 16.435 35.26-59.157c2.121-3.557 6.725-4.722 10.282-2.602 3.558 2.121 4.723 6.724 2.603 10.283l-39.1 65.599c-1.06 1.777-2.741 2.958-4.602 3.429z" fill="#fff"/></g></g><g><path d="m374.975 335.422-103.729 26.254c-4.016 1.016-8.095-1.415-9.111-5.431s1.415-8.095 5.431-9.111l103.729-26.254c4.015-1.016 8.095 1.415 9.111 5.431s-1.416 8.095-5.431 9.111z" fill="#76beff"/></g><g><path d="m386.589 381.309-103.729 26.253c-4.015 1.016-8.095-1.415-9.111-5.431s1.415-8.095 5.431-9.111l103.729-26.254c4.015-1.016 8.095 1.415 9.111 5.431 1.016 4.017-1.416 8.095-5.431 9.112z" fill="#76beff"/></g></g></g><g><path d="m497.652 83.458c-7.142 7.142-15.939 11.611-25.152 13.428-16.758 3.281-32.315 10.819-45.651 21.369l-33.34-33.34c1.464-1.86 2.857-3.762 4.193-5.706 8.358-12.063 14.361-25.661 17.275-40.143 1.86-9.213 6.385-17.996 13.583-25.109 19.361-19.134 51.555-18.505 70.18 1.336 3.21 3.422 5.834 7.191 7.884 11.179 9.441 18.421 6.45 41.564-8.972 56.986z" fill="#a54b0e"/><path d="m492.879 68.786c-12.397 12.397-28.607 12.8-44.003 19.074-12.71 5.179-26.147 16.376-38.665 3.858l-12.509-12.509c8.355-12.06 14.378-25.743 17.275-40.143 2.942-14.577 12.654-27.353 25.989-33.96 23.705-11.744 53.525-2.231 65.659 21.366 2.354 14.956-2.228 30.795-13.746 42.314z" fill="#bf6015"/><path d="m431.594 146.688-.071.071-66.468-66.468.071-.071c1.81-1.81 3.939-3.118 6.194-3.917 1.817-.658 3.741-.983 5.65-.983 4.285 0 8.57 1.626 11.844 4.9l42.78 42.78c4.73 4.73 6.046 11.589 3.924 17.501-.806 2.248-2.114 4.377-3.924 6.187z" fill="#6d2929"/><path d="m435.518 140.501-64.198-64.198c1.817-.658 3.741-.983 5.65-.983 4.285 0 8.57 1.626 11.844 4.9l42.78 42.78c4.73 4.73 6.045 11.589 3.924 17.501z" fill="#844242"/><path d="m415.861 195.655-5.48 5.48c-1.181 1.181-2.517 2.107-3.946 2.772-5.183 2.44-11.561 1.52-15.853-2.772l-79.903-79.903c-4.292-4.292-5.211-10.67-2.772-15.853.665-1.428 1.591-2.765 2.772-3.946l5.48-5.48z" fill="#4d5961"/><path d="m415.861 195.655-5.48 5.48c-1.181 1.181-2.517 2.107-3.946 2.772l-98.528-98.528c.665-1.428 1.591-2.765 2.772-3.946l5.48-5.48z" fill="#454545"/><path d="m435.978 207.358c-3.988 3.309-7.99 3.309-11.978 0l-119.544-119.544c-4.25-4.25-3.055-8.514.212-12.162 4.2-4.667 11.823-8.316 15.818-9.581 14.008-4.448 29.72-.629 40.114 9.765l75.378 75.378c3.161 3.161 5.678 6.725 7.545 10.529 7.304 14.827 4.794 33.276-7.545 45.615z" fill="#d88521"/><path d="m431.912 190.918c-3.988 3.309-7.99 3.309-11.978 0l-115.266-115.266c4.2-4.667 11.823-8.316 15.818-9.581 14.008-4.448 29.72-.629 40.114 9.765l75.378 75.378c3.161 3.161 5.678 6.725 7.545 10.529.29 10.528-3.578 21.142-11.611 29.175z" fill="#fea832"/></g></g></svg>